<?xml version="1.0" encoding="utf-8"?>
<!-- Generator: Adobe Illustrator 16.0.3, SVG Export Plug-In . SVG Version: 6.00 Build 0)  -->
<!DOCTYPE svg PUBLIC "-//W3C//DTD SVG 1.1//EN" "http://www.w3.org/Graphics/SVG/1.1/DTD/svg11.dtd">
<svg version="1.1" id="Layer_1" xmlns="http://www.w3.org/2000/svg" xmlns:xlink="http://www.w3.org/1999/xlink" x="0px" y="0px"
	 width="100px" height="100px" viewBox="0 0 100 100" enable-background="new 0 0 100 100" xml:space="preserve">
<g id="Interac_x5F_Process_Color">
</g>
<g id="New_Symbol_3">
</g>
<g>
	<path fill="#F1F2F2" d="M100,95c0,2.75-2.25,5-5,5H5c-2.75,0-5-2.25-5-5V5c0-2.75,2.25-5,5-5h90c2.75,0,5,2.25,5,5V95z"/>
</g>
<g>
	<g>
		<rect x="38.64" y="29.943" fill="#00A664" width="22.721" height="22.721"/>
		<path fill="#FFFFFF" d="M58.117,36.619v9.371L50,50.675l-8.114-4.686v-9.371L50,31.93L58.117,36.619 M50,32.77l-7.39,4.264v8.534
			L50,49.835l7.391-4.268v-8.534L50,32.77 M48.986,36.867l-1.158,0.672v1.337l1.158,0.67l0.726-0.416l-0.438-0.254v-1.337
			l0.438-0.25L48.986,36.867 M50.725,37.202v1.674l2.901,1.677v2.005l-1.886,1.088l-1.016-0.584v2.175l-1.739,1.002h1.448
			l1.74-1.002v-1.508h0.868l2.03-1.17v-2.005l-2.898-1.677v-1.674l-1.74-1.006h-1.448L50.725,37.202 M49.273,40.049v1.503
			l2.467,1.426l0.724-0.42l-1.739-1.006v-1.503l0.437-0.253l-0.726-0.417L49.273,40.049 M44.93,40.885v1.505l1.157,0.671
			l0.726-0.422l-0.434-0.249v-1.505l1.885-1.089l-0.724-0.417L44.93,40.885 M47.828,42.725v0.67l1.738-1.005l-0.58-0.332
			L47.828,42.725 M47.828,44.063v0.833l2.317-1.335v-0.837L47.828,44.063 M48.408,45.236l0.578,0.332l1.159-0.671v-0.666
			L48.408,45.236 M47.247,43.061l-1.16,0.667h1.16V43.061z"/>
	</g>
	<g>
		<path fill="#00A664" d="M77.531,56.676c-0.543,0.026-2.975,0.245-3.508,2.934l-1.771,8.834c1.813-0.687,3.263-1.517,3.681-3.754
			L77.531,56.676"/>
		<path fill="#231F20" d="M23.653,68.82l-2.602-9.834H21.05c-0.915-0.15-1.45,0.377-1.89,0.97L12.5,69.79l0.002,0.006
			c0.406,0.138,1.124,0.228,1.778-0.72c0.246-0.396,1.652-2.521,1.652-2.521h4.658c0,0,0.858,3.317,0.858,3.319
			c0.123,0.003-0.08,0.003,0.029,0.003c1.425-0.005,1.899-0.292,2.081-0.543C23.646,69.213,23.704,69.038,23.653,68.82
			 M19.341,65.865h-2.968l2.919-4.354c0,0,0.9,3.465,0.903,3.473C20.286,65.32,20.424,65.865,19.341,65.865z"/>
		<path fill="#231F20" d="M50.4,63.391c-0.624-0.763-1.726-1.166-3.185-1.166c-2.728,0-4.732,1.572-5.235,4.104
			c-0.205,1.032-0.035,1.919,0.494,2.562c0.621,0.758,1.703,1.16,3.123,1.16c2.719,0,4.796-1.617,5.292-4.121
			C51.093,64.904,50.923,64.027,50.4,63.391 M48.439,65.729c-0.227,1.127-0.944,3.75-2.699,3.789c-0.438,0-0.775-0.144-1.012-0.429
			c-0.435-0.521-0.515-1.479-0.239-2.856c0.475-2.338,1.354-3.475,2.694-3.475c0.427,0,0.764,0.143,1.001,0.426
			C48.696,63.796,48.604,64.904,48.439,65.729z"/>
		<path fill="#231F20" d="M57.374,62.491c-1.179,0.644-2.206,1.864-2.284,1.997l0.408-2.078v-0.003c0,0-0.748,0.009-0.784,0.009
			c-1.481-0.005-1.666,0.702-1.719,0.999c-0.002,0.017-1.286,6.467-1.286,6.467l0.002,0.003c0.036,0,0.396-0.009,0.607-0.02
			c1.166-0.106,1.793-0.567,1.942-1.223c0,0,0.427-2.287,0.452-2.328c0.096-0.688,0.584-1.424,1.192-1.773
			c0.336-0.184,0.53-0.229,1.132-0.229c1.822,0,2.131-2.146,2.081-2.142C58.475,62.171,57.954,62.176,57.374,62.491"/>
		<path fill="#231F20" d="M66.48,59.436c0-0.002,0.002-0.006,0.002-0.006l0.002-0.009L66.48,59.436 M68.977,58.023
			c-2.063-0.109-2.461,1.213-2.494,1.406l-0.752,3.76c-0.679-0.809-1.414-0.965-2.422-0.965c-2.401,0-3.869,1.98-4.261,3.945
			c-0.18,0.91-0.25,2.171,0.438,3.012c0.474,0.576,1.248,0.869,2.294,0.869c0.017,0,1.766,0.176,2.887-1.435
			c0.017-0.017,0.252,1.183,1.965,1.183L68.977,58.023z M65.031,66.1c-0.18,0.709-1.039,3.096-2.45,3.086
			c-0.38-0.004-0.679-0.147-0.878-0.426c-0.461-0.638-0.371-1.736-0.172-2.648c0.254-1.168,0.912-3.129,2.468-3.144
			c0.442-0.003,0.772,0.146,0.983,0.438C65.49,64.105,65.216,65.371,65.031,66.1z"/>
		<path fill="#00A664" d="M79.273,54.788c-5.865-1.388-11.385-1.039-14.705-0.741c-0.004,0-0.202,0.02-0.202,0.029
			c0,0.109,0.104,0.123,0.106,0.123c17.35,0.412,19.711,3.624,19.494,7.045c-0.393,6.206-7.576,8.017-11.935,8.264l-0.06,0.29
			c3.531,0.164,10.139,0.033,13.643-4.126C89.984,60.48,86.295,56.421,79.273,54.788"/>
		<path fill="#231F20" d="M38.846,62.768c0.681,0,1.055,0.289,1.483,0.596c0.826,0.429,1.596-0.504,1.596-0.504
			c-0.683-0.396-1.846-0.635-2.949-0.635c-2.901,0-5.09,1.6-5.581,4.073c-0.204,1.027-0.041,1.874,0.484,2.515
			c0.665,0.811,1.869,1.24,3.477,1.238c1.907-0.002,3.327-1.023,3.335-1.15c0.009-0.125-0.161-0.313-0.326-0.396h-0.011
			c-0.59,0.427-1.5,0.749-2.088,0.749c-0.906,0-1.569-0.247-1.969-0.734c-0.456-0.553-0.571-1.42-0.341-2.571
			C36.18,64.824,37.271,62.768,38.846,62.768"/>
		<path fill="#231F20" d="M30.36,62.768c0.683,0,1.056,0.289,1.485,0.596c0.825,0.429,1.595-0.504,1.595-0.504
			c-0.684-0.396-1.844-0.635-2.949-0.635c-2.901,0-5.09,1.6-5.581,4.073c-0.203,1.027-0.04,1.874,0.486,2.515
			c0.665,0.811,1.868,1.24,3.476,1.238c1.907-0.002,3.326-1.023,3.334-1.15c0.008-0.125-0.162-0.313-0.326-0.396h-0.012
			c-0.589,0.427-1.499,0.749-2.087,0.749c-0.906,0-1.568-0.247-1.969-0.734c-0.455-0.553-0.57-1.42-0.341-2.571
			C27.694,64.824,28.784,62.768,30.36,62.768"/>
	</g>
</g>
</svg>
