<?xml version="1.0" encoding="utf-8"?>
<!-- Generator: Adobe Illustrator 16.0.3, SVG Export Plug-In . SVG Version: 6.00 Build 0)  -->
<!DOCTYPE svg PUBLIC "-//W3C//DTD SVG 1.1//EN" "http://www.w3.org/Graphics/SVG/1.1/DTD/svg11.dtd">
<svg version="1.1" id="Layer_1" xmlns="http://www.w3.org/2000/svg" xmlns:xlink="http://www.w3.org/1999/xlink" x="0px" y="0px"
	 width="100px" height="100px" viewBox="0 0 100 100" enable-background="new 0 0 100 100" xml:space="preserve">
<g id="Interac_x5F_Process_Color">
</g>
<g id="New_Symbol_3">
</g>
<g>
	<g>
		<path fill="#21ACE3" d="M100,95c0,2.75-2.25,5-5,5H5c-2.75,0-5-2.25-5-5V5c0-2.75,2.25-5,5-5h90c2.75,0,5,2.25,5,5V95z"/>
	</g>
	<g>
		<polygon fill="#FFFFFF" points="73.244,36.484 71.527,40.588 75.053,40.588 		"/>
		<path fill="#FFFFFF" d="M52.213,37.863c0-0.576-0.383-1.35-1.586-1.35h-3.604v2.66h3.59C51.793,39.174,52.213,38.65,52.213,37.863
			z"/>
		<path fill="#FFFFFF" d="M61.936,56.795h-3.602v2.66h3.59c1.18,0,1.598-0.525,1.598-1.311
			C63.521,57.568,63.141,56.795,61.936,56.795z"/>
		<path fill="#FFFFFF" d="M49.529,56.795h-3.602v2.818h3.59c1.18,0,1.6-0.682,1.6-1.469C51.117,57.568,50.736,56.795,49.529,56.795z
			"/>
		<polygon fill="#FFFFFF" points="43.02,64.889 43.02,55.402 38.879,59.988 		"/>
		<path fill="#FFFFFF" d="M100,51.76h-7.436c-1.146,0-2.23,0.602-2.23,0.602V51.76c0,0-7.346,0-8.609,0
			c-1.266,0-2.207,0.602-2.207,0.602V51.76H66.303v0.652c0,0-1.096-0.652-2.4-0.652c-1.303,0-10.28,0-10.28,0v0.576
			c-1.029-0.549-2.113-0.576-2.113-0.576H39.963l-2.217,2.453l-2.168-2.453H20.063v16.609h15.295l2.219-2.531l2.074,2.531h9.119
			v-4.033c0,0,1.291,0,2.66,0c1.371,0,2.191-0.441,2.191-0.441v4.476h7.398v-4.502h0.325c0.354,0,0.525,0.071,0.525,0.469
			c0,0.399,0,4.033,0,4.033s22.383,0,23.674,0c1.293,0,2.142-0.496,2.142-0.496v0.496h7.85c2.219,0,3.598-0.72,4.465-1.634V51.76z
			 M49.754,62.031h-3.877v3.986h-5.531l-3.379-3.906l-3.461,3.879H22.514V54.25h11.361l3.195,3.668l3.303-3.643h10.115
			c1.417,0,3.487,0.654,3.487,3.59C53.975,61.98,51.248,62.031,49.754,62.031z M66.299,63.605l0.105,2.412h-2.807l-0.076-2.15
			c-0.025-0.996-0.418-1.992-1.414-1.992h-3.773v4.143h-2.883v-11.74h7.494c1.416,0,3.459,0.63,3.459,3.144
			c0,1.416-0.418,2.465-1.992,3.25C65.777,60.826,66.299,61.717,66.299,63.605z M77.313,56.777h-6.539v2.203h6.355v2.227h-6.355
			v2.318h6.539v2.465h-9.424V54.25h9.424V56.777z M84.809,66.043h-6.053v-2.518h4.717c0.799,0,1.992,0,1.992-1.127
			c0-0.535-0.211-0.877-1.063-0.967c-0.379-0.056-1.781-0.134-1.99-0.138c-3.203-0.084-3.943-1.676-3.943-3.612
			c0-2.201,1.545-3.404,3.432-3.404h6.054v2.516h-4.429c-1.01,0.01-2.098-0.119-2.098,1.02c0,0.722,0.539,0.865,1.221,0.933
			c0.234,0,1.808,0.082,2.017,0.08c3.543,0.182,3.84,1.95,3.84,3.838C88.504,64.861,86.697,66.043,84.809,66.043z M95.66,66.043
			h-6.055v-2.518h4.717c0.801,0,1.992,0,1.992-1.127c0-0.535-0.209-0.877-1.062-0.967c-0.379-0.056-1.778-0.134-1.992-0.138
			c-3.198-0.084-3.944-1.676-3.944-3.612c0-2.201,1.547-3.404,3.436-3.404h6.053v2.516h-4.43c-1.008,0.01-2.096-0.119-2.096,1.02
			c0,0.722,0.537,0.865,1.219,0.933c0.236,0,1.809,0.082,2.02,0.08c2.92,0.149,3.633,1.38,3.793,2.864c0,0,0.037,1.228-0.01,1.479
			C98.961,65.023,97.395,66.043,95.66,66.043z"/>
		<path fill="#FFFFFF" d="M0,48.174h5.807l1.215-2.715h1.945l1.146,2.715h9.707v-1.346l0.652,1.346h5.193l0.6-1.254v1.254h22.908
			v-4.385h0.418c0,0,0.43-0.039,0.43,0.521c0,0.563,0,3.863,0,3.863h11.428c0,0,0-0.574,0-1.176
			c1.605,1.148,3.746,1.176,3.746,1.176h5.74l1.25-2.957h1.858l1.334,2.957h9.483v-2.871l1.794,2.887h7.631V31.631h-7.429v2.4
			l-1.409-2.4h-7.771v2.4l-1.063-2.4c0,0-10.3,0-12.125,0c-1.826,0-3.063,0.904-3.063,0.904v-0.904h-6.871l0.006,0.643
			c-0.94-0.662-2.371-0.643-2.371-0.643H24.918l-1.859,4l-1.9-3.982H12.52v2.348l-0.992-2.365H4.463L0.774,39.98L0,41.64V48.174z
			 M65.201,33.99h3.764v2.551h-1.779c-1.916,0-3.41,0.201-3.41,2.953v0.852c0.015,2.07,1.101,2.561,1.793,2.703
			c0.171,0.041,1.849,0.041,1.849,0.041l3.972-9.094h3.813l4.909,11.02V33.99h4.261l4.86,8.129V33.99h2.884v11.752h-3.933
			l-5.188-8.598v8.598h-5.688l-1.142-2.621h-5.752l-1.125,2.621h-3.8c-3.197,0-4.613-2.68-4.547-5.93
			C61.039,34.99,63.891,33.99,65.201,33.99z M56.605,33.982h2.883v11.754h-2.883V33.982z M44.141,33.996h7.496
			c1.414,0,3.459,0.627,3.459,3.143c0,1.416-0.418,2.467-1.992,3.25c1.363,0.158,1.89,1.049,1.89,2.936l0.104,2.412h-2.806
			l-0.078-2.15c-0.024-0.996-0.42-1.99-1.416-1.99h-3.773v4.141h-2.883L44.141,33.996L44.141,33.996z M33.01,33.996h9.42v2.527
			h-6.537v2.203h6.354v2.227h-6.354v2.318h6.537v2.465h-9.42V33.996z M5.934,33.996h3.814l5.031,11.307V33.996h4.52l3.525,7.875
			l3.537-7.875h4.6v11.74h-2.883v-8.57l-3.943,8.57h-2.621l-3.854-8.715v8.715h-5.803l-1.141-2.621H4.963l-1.125,2.621H0.797
			L5.934,33.996z"/>
		<polygon fill="#FFFFFF" points="7.771,36.479 6.053,40.582 9.563,40.582 		"/>
		<polygon fill="#FFFFFF" points="25.355,56.777 25.355,58.98 31.713,58.98 31.713,61.207 25.355,61.207 25.355,63.525 
			32.002,63.525 35.172,59.988 32.365,56.793 		"/>
	</g>
</g>
</svg>
