<?xml version="1.0" encoding="utf-8"?>
<!-- Generator: Adobe Illustrator 16.0.3, SVG Export Plug-In . SVG Version: 6.00 Build 0)  -->
<!DOCTYPE svg PUBLIC "-//W3C//DTD SVG 1.1//EN" "http://www.w3.org/Graphics/SVG/1.1/DTD/svg11.dtd">
<svg version="1.1" id="Layer_1" xmlns="http://www.w3.org/2000/svg" xmlns:xlink="http://www.w3.org/1999/xlink" x="0px" y="0px"
	 width="100px" height="100px" viewBox="0 0 100 100" enable-background="new 0 0 100 100" xml:space="preserve">
<g id="Interac_x5F_Process_Color">
</g>
<g id="New_Symbol_3">
</g>
<g>
	<path fill="#69A55A" d="M100,95c0,2.75-2.25,5-5,5H5c-2.75,0-5-2.25-5-5V5c0-2.75,2.25-5,5-5h90c2.75,0,5,2.25,5,5V95z"/>
</g>
<g>
	<g>
		<path fill="#FFFFFF" d="M40.135,79.348c0-1.248-0.145-1.799-0.816-1.799c-0.803,0-0.875,0.768-0.875,3.012
			c0,2.541,0.084,3.201,0.924,3.201c0.742,0,0.826-0.852,0.838-2.183h1.943v0.3c0,1.848-0.516,3.227-3.01,3.227
			c-2.578,0-2.783-1.932-2.783-4.51c0-2.195,0.121-4.39,2.975-4.39c1.775,0,2.746,0.769,2.746,2.782v0.359H40.135z"/>
		<path fill="#FFFFFF" d="M44.947,76.373h2.518l2.135,8.563h-2.086l-0.313-1.631H45.15l-0.301,1.631h-2.086L44.947,76.373z
			 M46.17,77.932h-0.023l-0.709,3.814h1.465L46.17,77.932z"/>
		<path fill="#FFFFFF" d="M52.291,82.322v0.3c0,0.647,0.18,1.14,0.875,1.14c0.709,0,0.912-0.527,0.912-1.02
			c0-1.848-3.682-0.815-3.682-4.018c0-1.367,0.73-2.52,2.807-2.52c2.014,0,2.734,1.02,2.734,2.338v0.204h-1.943
			c0-0.408-0.047-0.708-0.168-0.899c-0.119-0.203-0.313-0.3-0.611-0.3c-0.504,0-0.803,0.3-0.803,0.925
			c0,1.786,3.682,0.887,3.682,3.909c0,1.943-1.08,2.724-2.928,2.724c-1.463,0-2.818-0.444-2.818-2.231v-0.552H52.291L52.291,82.322z
			"/>
		<path fill="#FFFFFF" d="M57.439,76.373h2.016v3.203h1.607v-3.203h2.014v8.563h-2.014v-3.658h-1.607v3.658h-2.016V76.373z"/>
	</g>
</g>
<g>
	<ellipse fill="#FFFFFF" cx="50" cy="37.984" rx="16.137" ry="20"/>
	<g>
		<path fill="#69A55A" d="M53.212,33.632c-0.698-1.048-1.583-1.746-2.887-1.746c-1,0-2.304,0.512-2.304,1.676
			c0,2.816,8.357,2.816,8.357,8.287c0.022,3.096-2.12,4.819-4.772,5.401v2.141h-2.234V47.25c-2.491-0.233-4.516-1.607-5.75-3.795
			l2.84-1.699c0.815,1.419,2.049,2.328,3.749,2.328c1.187,0,2.747-0.465,2.747-1.932c0-2.677-8.357-2.793-8.357-8.263
			c0-2.84,2.118-4.773,4.771-5.167V26.58h2.234v2.142c1.862,0.512,3.539,1.512,4.399,3.258L53.212,33.632z"/>
	</g>
</g>
</svg>
