<?xml version="1.0" encoding="utf-8"?>
<!-- Generator: Adobe Illustrator 22.0.1, SVG Export Plug-In . SVG Version: 6.00 Build 0)  -->
<svg version="1.1" id="Capa_1" xmlns="http://www.w3.org/2000/svg" xmlns:xlink="http://www.w3.org/1999/xlink" x="0px" y="0px"
	 viewBox="0 0 489 302.2" style="enable-background:new 0 0 489 302.2;" xml:space="preserve">
<g>
	<path d="M488.8,11.6v279.1c0,6.4-5.2,11.6-11.6,11.6h-465c-6.4,0-11.6-5.2-11.6-11.6V11.6C0.6,5.2,5.8,0,12.2,0h465
		C483.6,0,488.8,5.2,488.8,11.6z M452.7,88.1c-3.4,0.9-6.9,1.3-10.6,1.3c-23.7,0-42.8-19.2-42.8-42.8c0-3.6,0.5-7.1,1.3-10.4H86.3
		c0.5,2.6,0.7,5.2,0.7,7.9c0,23.7-19.2,42.8-42.8,42.8c-2.6,0-5.1-0.2-7.5-0.7v130c2.4-0.4,5-0.7,7.5-0.7
		c23.7,0,42.8,19.2,42.8,42.8c0,2.7-0.3,5.3-0.7,7.9h313.3c-0.2-1.7-0.3-3.5-0.3-5.3c0-23.7,19.2-42.8,42.8-42.8
		c3.7,0,7.2,0.5,10.6,1.3L452.7,88.1L452.7,88.1z M407,135.1h-36c-3.2,0-5.7,2.6-5.7,5.7v20.6c0,3.2,2.6,5.7,5.7,5.7h36
		c3.2,0,5.7-2.6,5.7-5.7v-20.6C412.7,137.7,410.1,135.1,407,135.1z M118.4,135.1h-36c-3.2,0-5.7,2.6-5.7,5.7v20.6
		c0,3.2,2.6,5.7,5.7,5.7h36c3.2,0,5.7-2.6,5.7-5.7v-20.6C124.1,137.7,121.6,135.1,118.4,135.1z M337.4,151.2c0,51.4-41.5,93-92.7,93
		s-92.7-41.6-92.7-93s41.5-93,92.7-93C295.9,58.2,337.4,99.8,337.4,151.2z M279.4,192.4c-1.2-2.9-2.4-5.8-3.7-8.6
		c-1.2-2.5-2.6-3.3-5.4-2.7c-3.5,0.8-6.9,1.9-10.5,2.6c-6.8,1.4-13.6,1.5-20.3-0.6c-8.4-2.7-12.8-8.7-15.6-16.6h22.7
		c1.8,0,3.2-1.4,3.2-3.2v-7.2c0-1.8-1.4-3.2-3.2-3.2h-24.9c0-2,0-3.9,0-5.9h24.9c1.8,0,3.2-1.4,3.2-3.2v-7.2c0-1.8-1.4-3.2-3.2-3.2
		h-21.8c0-0.1,0-0.2,0-0.2c2.6-6,6.4-10.8,12.7-13.2c7.3-2.9,14.7-2.8,22.2-1.3c3.6,0.7,7,1.8,10.6,2.6c2.6,0.6,4.1-0.2,5.2-2.6
		c1.3-2.8,2.5-5.6,3.6-8.5c1.1-2.7,0.5-4.6-2.1-6.1c-0.6-0.4-1.3-0.7-2-0.9c-10.5-4.1-21.3-5.6-32.5-3.8c-7.9,1.3-15.2,4-21.5,8.9
		c-8,6.2-13.2,14.4-16.2,24l-0.4,1.1h-11.2c-1.8,0-3.2,1.4-3.2,3.2v7.2c0,1.8,1.4,3.2,3.2,3.2h8.8c0,2,0,3.9,0,5.9h-8.8
		c-1.8,0-3.2,1.4-3.2,3.2v7.2c0,1.8,1.4,3.2,3.2,3.2h10.6c0.8,2.6,1.5,5.3,2.5,7.8c5.4,13,14.4,22.3,28,26.7
		c11.2,3.7,22.5,3.5,33.8,0.4c2.9-0.8,5.9-1.9,8.6-3.1C279.7,197.1,280.4,195,279.4,192.4z"/>
</g>
</svg>
