<?xml version="1.0" encoding="utf-8"?>
<!-- Generator: Adobe Illustrator 16.0.3, SVG Export Plug-In . SVG Version: 6.00 Build 0)  -->
<!DOCTYPE svg PUBLIC "-//W3C//DTD SVG 1.1//EN" "http://www.w3.org/Graphics/SVG/1.1/DTD/svg11.dtd">
<svg version="1.1" id="Layer_1" xmlns="http://www.w3.org/2000/svg" xmlns:xlink="http://www.w3.org/1999/xlink" x="0px" y="0px"
	 width="100px" height="100px" viewBox="0 0 100 100" enable-background="new 0 0 100 100" xml:space="preserve">
<g id="Interac_x5F_Process_Color">
</g>
<g id="New_Symbol_3">
</g>
<g>
	<path fill="#084D95" d="M100,95c0,2.75-2.25,5-5,5H5c-2.75,0-5-2.25-5-5V5c0-2.75,2.25-5,5-5h90c2.75,0,5,2.25,5,5V95z"/>
</g>
<g>
	<path fill="#FFFFFF" d="M53,53.563c7.088,0.033,13.557-5.778,13.557-12.853c0-7.733-6.469-13.079-13.557-13.076h-6.102
		c-7.17-0.003-13.074,5.344-13.074,13.076c0,7.074,5.904,12.886,13.074,12.853H53z"/>
	<path fill="#084D95" d="M49.621,47.597V33.554c2.822,1.083,4.826,3.815,4.83,7.021C54.447,43.781,52.443,46.512,49.621,47.597
		 M39.406,40.576c0.006-3.204,2.008-5.936,4.828-7.021v14.041C41.414,46.509,39.412,43.779,39.406,40.576 M46.928,28.705
		c-6.553,0.004-11.865,5.314-11.867,11.871c0.002,6.555,5.314,11.863,11.867,11.867c6.557-0.004,11.867-5.313,11.869-11.867
		C58.795,34.019,53.484,28.708,46.928,28.705"/>
	<g>
		<path fill="#FFFFFF" d="M20.564,62.41c0,1.057,0.756,1.179,1.426,1.179c2.961,0,3.936-2.233,3.936-4.276
			c0-2.563-1.646-4.412-4.291-4.412c-0.563,0-0.822,0.039-1.07,0.055L20.564,62.41L20.564,62.41z M19.223,55.98
			c0-1.232-0.645-1.15-1.262-1.164V54.46c0.535,0.026,1.084,0.026,1.619,0.026c0.574,0,1.355-0.026,2.371-0.026
			c3.549,0,5.482,2.37,5.482,4.799c0,1.355-0.795,4.771-5.646,4.771c-0.699,0-1.344-0.027-1.988-0.027
			c-0.617,0-1.221,0.014-1.838,0.027v-0.355c0.822-0.084,1.221-0.109,1.262-1.043V55.98z"/>
		<path fill="#FFFFFF" d="M29.381,55.652c-0.357,0-0.672-0.329-0.672-0.686c0-0.345,0.33-0.66,0.672-0.66
			c0.355,0,0.67,0.289,0.67,0.66C30.051,55.336,29.75,55.652,29.381,55.652 M27.914,63.672h0.26c0.385,0,0.658,0,0.658-0.454v-3.715
			c0-0.603-0.205-0.685-0.713-0.959v-0.219c0.643-0.193,1.412-0.452,1.467-0.492c0.096-0.058,0.178-0.071,0.246-0.071
			s0.096,0.084,0.096,0.193v5.263c0,0.454,0.301,0.454,0.687,0.454h0.234v0.355c-0.467,0-0.948-0.027-1.44-0.027
			c-0.494,0-0.988,0.014-1.494,0.027V63.672z"/>
		<path fill="#FFFFFF" d="M32.148,59.585c0-0.507-0.152-0.644-0.793-0.903V58.42c0.588-0.189,1.15-0.369,1.807-0.658
			c0.043,0,0.082,0.029,0.082,0.139v0.891c0.783-0.561,1.455-1.027,2.375-1.027c1.164,0,1.574,0.851,1.574,1.92v3.535
			c0,0.454,0.303,0.454,0.686,0.454h0.248v0.354c-0.482,0-0.963-0.026-1.453-0.026c-0.494,0-0.986,0.015-1.48,0.026v-0.354h0.244
			c0.385,0,0.658,0,0.658-0.454V59.67c0-0.781-0.477-1.166-1.26-1.166c-0.438,0-1.137,0.355-1.592,0.659v4.056
			c0,0.454,0.305,0.454,0.688,0.454h0.246v0.354c-0.479,0-0.959-0.026-1.453-0.026c-0.492,0-0.986,0.015-1.48,0.026v-0.354h0.248
			c0.383,0,0.656,0,0.656-0.454L32.148,59.585L32.148,59.585z"/>
		<path fill="#FFFFFF" d="M41.594,59.807c0.344,0,0.383-0.18,0.383-0.344c0-0.699-0.424-1.262-1.191-1.262
			c-0.836,0-1.412,0.617-1.576,1.604h2.384V59.807z M39.168,60.245c-0.027,0.124-0.027,0.328,0,0.795
			c0.082,1.303,0.92,2.371,2.014,2.371c0.756,0,1.346-0.412,1.852-0.917l0.191,0.189c-0.631,0.838-1.412,1.549-2.535,1.549
			c-2.18,0-2.619-2.11-2.619-2.987c0-2.688,1.809-3.481,2.77-3.481c1.111,0,2.305,0.699,2.316,2.152c0,0.083,0,0.164-0.012,0.247
			l-0.125,0.082H39.168z"/>
		<path fill="#FFFFFF" d="M43.473,63.672h0.369c0.383,0,0.658,0,0.658-0.454v-3.851c0-0.426-0.506-0.508-0.713-0.618v-0.205
			c1-0.425,1.549-0.782,1.674-0.782c0.08,0,0.121,0.043,0.121,0.182v1.232h0.029c0.342-0.535,0.918-1.414,1.754-1.414
			c0.344,0,0.781,0.232,0.781,0.728c0,0.37-0.26,0.7-0.645,0.7c-0.426,0-0.426-0.33-0.906-0.33c-0.232,0-0.998,0.316-0.998,1.14
			v3.22c0,0.454,0.273,0.454,0.658,0.454h0.766v0.354C46.268,64.014,45.693,64,45.104,64c-0.563,0-1.137,0.014-1.631,0.027V63.672z"
			/>
		<path fill="#FFFFFF" d="M48.75,62.122c0.178,0.905,0.727,1.674,1.727,1.674c0.809,0,1.109-0.494,1.109-0.976
			c0-1.616-2.986-1.096-2.986-3.303c0-0.769,0.615-1.756,2.125-1.756c0.438,0,1.025,0.124,1.563,0.398l0.096,1.396h-0.315
			c-0.137-0.861-0.617-1.354-1.494-1.354c-0.549,0-1.068,0.315-1.068,0.903c0,1.604,3.18,1.109,3.18,3.262
			c0,0.906-0.727,1.865-2.356,1.865c-0.549,0-1.193-0.191-1.672-0.465l-0.15-1.576L48.75,62.122z"/>
		<path fill="#FFFFFF" d="M65.063,56.939h-0.344c-0.26-1.604-1.398-2.248-2.934-2.248c-1.576,0-3.867,1.056-3.867,4.347
			c0,2.771,1.977,4.758,4.086,4.758c1.357,0,2.482-0.932,2.758-2.372l0.314,0.081l-0.314,2.002
			c-0.578,0.356-2.127,0.728-3.031,0.728c-3.207,0-5.233-2.068-5.233-5.154c0-2.811,2.508-4.825,5.192-4.825
			c1.109,0,2.181,0.356,3.236,0.728L65.063,56.939z"/>
		<path fill="#FFFFFF" d="M65.557,63.672h0.26c0.386,0,0.658,0,0.658-0.454v-7.634c0-0.893-0.205-0.919-0.729-1.07v-0.219
			c0.551-0.178,1.127-0.424,1.414-0.59c0.148-0.082,0.26-0.15,0.301-0.15c0.082,0,0.109,0.082,0.109,0.191v9.472
			c0,0.454,0.303,0.454,0.688,0.454h0.23v0.355c-0.465,0-0.945-0.027-1.438-0.027s-0.985,0.014-1.493,0.027V63.672L65.557,63.672z"
			/>
		<path fill="#FFFFFF" d="M74.357,63.273c0,0.248,0.149,0.261,0.383,0.261c0.164,0,0.369-0.013,0.549-0.013v0.287
			c-0.59,0.055-1.715,0.344-1.975,0.424l-0.068-0.041v-1.108c-0.822,0.672-1.453,1.149-2.428,1.149c-0.74,0-1.508-0.479-1.508-1.629
			v-3.512c0-0.355-0.054-0.699-0.82-0.767v-0.261c0.492-0.015,1.588-0.097,1.768-0.097c0.152,0,0.152,0.097,0.152,0.396V61.9
			c0,0.412,0,1.591,1.191,1.591c0.465,0,1.082-0.356,1.657-0.835v-3.688c0-0.272-0.657-0.424-1.149-0.561v-0.248
			c1.231-0.082,2-0.191,2.137-0.191c0.111,0,0.111,0.097,0.111,0.248V63.273z"/>
		<path fill="#FFFFFF" d="M77.084,62.479c0,0.521,0.494,1.398,1.412,1.398c1.469,0,2.082-1.439,2.082-2.661
			c0-1.479-1.123-2.713-2.191-2.713c-0.508,0-0.932,0.329-1.303,0.646V62.479z M77.084,58.75c0.549-0.466,1.289-0.986,2.043-0.986
			c1.59,0,2.549,1.387,2.549,2.879c0,1.795-1.316,3.592-3.275,3.592c-1.016,0-1.549-0.33-1.905-0.479l-0.41,0.313l-0.287-0.149
			c0.121-0.81,0.191-1.604,0.191-2.44v-5.894c0-0.894-0.207-0.919-0.728-1.069v-0.22c0.549-0.178,1.123-0.424,1.412-0.59
			c0.15-0.082,0.258-0.149,0.303-0.149c0.082,0,0.107,0.082,0.107,0.19V58.75z"/>
		<path fill="#FFFFFF" d="M17.945,71.999h0.105c0.268,0,0.551-0.037,0.551-0.426v-3.906c0-0.39-0.283-0.427-0.551-0.427h-0.105
			v-0.225c0.293,0,0.74,0.029,1.105,0.029c0.373,0,0.82-0.029,1.17-0.029v0.225h-0.104c-0.268,0-0.553,0.037-0.553,0.427v3.906
			c0,0.389,0.285,0.426,0.553,0.426h0.104v0.226c-0.357,0-0.805-0.031-1.178-0.031c-0.365,0-0.805,0.031-1.098,0.031L17.945,71.999
			L17.945,71.999z"/>
		<path fill="#FFFFFF" d="M20.189,72.189v-0.158h-0.072c-0.266,0-0.584-0.045-0.586-0.458v-3.906
			c0.002-0.413,0.32-0.459,0.586-0.459h0.072v-0.159c-0.346,0-0.775,0.03-1.139,0.03c-0.354,0-0.783-0.029-1.072-0.03v0.159h0.07
			c0.268,0,0.584,0.046,0.584,0.459v3.906c0,0.413-0.316,0.458-0.584,0.458h-0.07v0.158c0.289-0.002,0.711-0.028,1.064-0.028
			C19.406,72.161,19.838,72.189,20.189,72.189 M20.221,72.253c-0.359,0-0.805-0.028-1.178-0.028c-0.365,0-0.803,0.028-1.098,0.028
			h-0.031v-0.03v-0.225v-0.033h0.031h0.104c0.273-0.006,0.518-0.027,0.52-0.393v-3.906c-0.002-0.366-0.246-0.389-0.52-0.395h-0.135
			V67.24v-0.258h0.031c0.295,0,0.74,0.029,1.105,0.029c0.373,0,0.818-0.029,1.17-0.029h0.033v0.033v0.256H20.22h-0.104
			c-0.27,0.006-0.52,0.028-0.52,0.396v3.906c0,0.364,0.25,0.387,0.52,0.393h0.137v0.033v0.255L20.221,72.253L20.221,72.253z"/>
		<path fill="#FFFFFF" d="M25.346,70.752l0.014-0.016v-2.797c0-0.61-0.424-0.7-0.648-0.7h-0.164v-0.224
			c0.35,0,0.693,0.028,1.045,0.028c0.305,0,0.611-0.028,0.916-0.028v0.224h-0.111c-0.314,0-0.664,0.06-0.664,0.946v3.396
			c0,0.261,0.008,0.521,0.045,0.753h-0.283l-3.842-4.281v3.072c0,0.65,0.127,0.873,0.701,0.873h0.127v0.225
			c-0.32,0-0.641-0.029-0.963-0.029c-0.334,0-0.678,0.029-1.014,0.029v-0.225h0.105c0.514,0,0.67-0.352,0.67-0.947V67.91
			c0-0.417-0.344-0.671-0.678-0.671h-0.098v-0.224c0.283,0,0.574,0.028,0.855,0.028c0.227,0,0.441-0.028,0.666-0.028L25.346,70.752z
			"/>
		<path fill="#FFFFFF" d="M25.33,70.736v-0.002l-0.008-0.006L25.33,70.736z M25.346,70.752l0.023-0.021L25.346,70.752z
			 M25.494,72.301h0.248c-0.035-0.225-0.041-0.472-0.041-0.72v-3.396c0-0.894,0.375-0.979,0.695-0.979h0.08v-0.159
			c-0.293,0.001-0.588,0.03-0.885,0.03c-0.342,0-0.676-0.029-1.012-0.03v0.159h0.131c0.229,0,0.682,0.103,0.682,0.733l-0.01,2.819
			l-0.016,0.015l-0.025,0.023l-3.316-3.751c-0.221,0-0.438,0.03-0.666,0.03c-0.271,0-0.553-0.029-0.822-0.03l-0.002,0.159h0.066
			c0.35,0,0.711,0.268,0.711,0.703v3.141c0,0.598-0.166,0.979-0.703,0.98l-0.072-0.002v0.16c0.322-0.002,0.656-0.029,0.98-0.029
			c0.313,0,0.623,0.027,0.93,0.029v-0.158h-0.094c-0.586-0.002-0.732-0.256-0.732-0.906v-3.157L25.494,72.301z M25.777,72.366
			l-0.307-0.011l-3.787-4.22v2.989c0.01,0.65,0.107,0.833,0.67,0.84h0.16v0.033v0.255H22.48c-0.322,0-0.643-0.028-0.963-0.028
			c-0.332,0-0.676,0.028-1.014,0.028H20.47v-0.03v-0.258h0.033h0.105c0.492-0.003,0.633-0.318,0.641-0.914V67.91
			c-0.002-0.396-0.33-0.639-0.648-0.639H20.47v-0.033v-0.254h0.033c0.285,0,0.576,0.026,0.855,0.026
			c0.223,0,0.439-0.026,0.691-0.018l3.279,3.69v-2.744c-0.006-0.594-0.402-0.664-0.619-0.67h-0.197v-0.033v-0.254h0.033
			c0.352,0,0.695,0.027,1.045,0.027c0.305,0,0.609-0.027,0.916-0.027h0.033v0.031v0.256h-0.033h-0.111
			c-0.309,0.01-0.623,0.035-0.631,0.914v3.396c0,0.261,0.006,0.521,0.041,0.746l0.008,0.037h-0.036V72.366z"/>
		<path fill="#FFFFFF" d="M27.627,67.389c-0.561,0-0.584,0.133-0.693,0.678h-0.225c0.029-0.209,0.066-0.416,0.092-0.633
			c0.027-0.211,0.043-0.418,0.043-0.634h0.178c0.061,0.224,0.246,0.216,0.449,0.216h3.848c0.203,0,0.389-0.007,0.402-0.23
			l0.18,0.029c-0.029,0.201-0.061,0.402-0.082,0.604c-0.014,0.202-0.014,0.403-0.014,0.604l-0.225,0.084
			c-0.016-0.275-0.053-0.717-0.553-0.717h-1.223v3.969c0,0.574,0.262,0.641,0.619,0.641h0.141v0.225
			c-0.289,0-0.813-0.029-1.215-0.029c-0.447,0-0.969,0.029-1.26,0.029V72h0.141c0.412,0,0.619-0.037,0.619-0.626v-3.983h-1.222
			V67.389z"/>
		<path fill="#FFFFFF" d="M30.566,72.253c-0.293,0-0.814-0.028-1.217-0.028c-0.447,0-0.967,0.028-1.26,0.028h-0.033v-0.03v-0.258
			h0.033h0.141c0.412-0.008,0.576-0.015,0.586-0.593V67.42h-1.189v-0.031v-0.033h1.254v4.018c0,0.6-0.24,0.658-0.65,0.659h-0.109
			v0.157c0.295-0.002,0.795-0.028,1.229-0.028c0.391,0,0.889,0.026,1.184,0.028v-0.157h-0.109c-0.361-0.001-0.65-0.089-0.65-0.675
			v-4.002h1.256c0.498,0.002,0.564,0.428,0.58,0.703L31.771,68c0-0.193,0.002-0.391,0.016-0.586
			c0.021-0.191,0.047-0.382,0.076-0.572l-0.113-0.019c-0.035,0.217-0.244,0.228-0.434,0.225H27.47h-0.039
			c-0.176,0-0.367-0.007-0.434-0.216h-0.123c-0.002,0.206-0.018,0.406-0.045,0.604c-0.021,0.205-0.055,0.401-0.082,0.601h0.158
			c0.1-0.521,0.162-0.688,0.721-0.681v0.033v0.03c-0.553,0.013-0.541,0.103-0.664,0.654L26.958,68.1h-0.025H26.67l0.006-0.039
			c0.029-0.209,0.068-0.418,0.09-0.635c0.031-0.207,0.045-0.414,0.045-0.628v-0.032h0.033h0.205l0.004,0.022
			c0.051,0.188,0.189,0.188,0.379,0.192h0.039h3.846c0.209-0.004,0.359-0.006,0.373-0.201l0.002-0.034l0.035,0.007l0.211,0.033
			l-0.006,0.031c-0.029,0.201-0.059,0.401-0.082,0.602c-0.014,0.2-0.014,0.4-0.014,0.602v0.023l-0.021,0.009l-0.264,0.095
			l-0.002-0.043c-0.021-0.278-0.049-0.686-0.52-0.686h-1.191v3.938c0.006,0.563,0.229,0.602,0.586,0.607h0.174v0.033v0.255h-0.032
			V72.253z"/>
		<path fill="#FFFFFF" d="M32.137,71.999h0.107c0.268,0,0.551-0.037,0.551-0.426v-3.906c0-0.39-0.283-0.427-0.551-0.427h-0.107
			v-0.225c0.455,0,1.232,0.029,1.857,0.029c0.627,0,1.402-0.029,1.91-0.029c-0.014,0.319-0.006,0.814,0.016,1.142l-0.225,0.061
			c-0.037-0.483-0.125-0.87-0.91-0.87H33.75V69.3h0.887c0.447,0,0.545-0.254,0.59-0.657h0.223c-0.014,0.293-0.021,0.582-0.021,0.873
			c0,0.284,0.008,0.567,0.021,0.852l-0.223,0.043c-0.045-0.445-0.066-0.736-0.584-0.736H33.75v1.736
			c0,0.484,0.432,0.484,0.908,0.484c0.896,0,1.291-0.06,1.514-0.908l0.211,0.051c-0.1,0.396-0.188,0.791-0.254,1.188
			c-0.479,0-1.336-0.029-2.006-0.029c-0.674,0-1.559,0.029-1.986,0.029V71.999z"/>
		<path fill="#FFFFFF" d="M36.1,72.189c0.066-0.377,0.152-0.754,0.242-1.129l-0.146-0.037c-0.225,0.834-0.656,0.908-1.535,0.902
			c-0.471,0-0.941,0-0.943-0.518v-1.768h0.926c0.521-0.007,0.574,0.308,0.611,0.731l0.162-0.034
			c-0.016-0.273-0.021-0.549-0.021-0.822c0-0.281,0.006-0.561,0.021-0.842h-0.162c-0.041,0.389-0.162,0.66-0.617,0.656h-0.92v-2.02
			h1.068c0.777-0.006,0.904,0.395,0.939,0.862l0.16-0.042c-0.012-0.21-0.021-0.48-0.021-0.729c0-0.127,0.002-0.25,0.006-0.354
			c-0.506,0.001-1.26,0.03-1.875,0.03c-0.613,0-1.367-0.029-1.824-0.03v0.159h0.074c0.264,0,0.582,0.046,0.584,0.459v3.906
			c-0.002,0.412-0.32,0.457-0.584,0.459H32.17v0.156c0.436,0,1.295-0.027,1.953-0.027S35.619,72.189,36.1,72.189 M36.129,72.253
			c-0.479,0-1.338-0.028-2.006-0.028c-0.674,0-1.559,0.028-1.986,0.028h-0.029v-0.03v-0.225v-0.033h0.029h0.107
			c0.27-0.004,0.516-0.027,0.518-0.393v-3.906c-0.002-0.364-0.248-0.389-0.518-0.395h-0.137V67.24v-0.256h0.029
			c0.457,0,1.232,0.027,1.857,0.027c0.627,0,1.402-0.027,1.91-0.027h0.033v0.033c-0.008,0.112-0.01,0.244-0.01,0.385
			c0,0.259,0.01,0.539,0.023,0.752v0.027l-0.023,0.008l-0.262,0.067l-0.004-0.038c-0.043-0.482-0.107-0.836-0.877-0.842h-1.006
			v1.889h0.857c0.43-0.005,0.506-0.225,0.557-0.627l0.004-0.029h0.029h0.256l-0.002,0.033c-0.012,0.291-0.021,0.582-0.021,0.873
			c0,0.281,0.01,0.564,0.021,0.849l0.002,0.026l-0.027,0.006l-0.258,0.054l-0.004-0.037c-0.051-0.456-0.055-0.703-0.551-0.709
			h-0.863v1.705c0.002,0.452,0.395,0.45,0.881,0.452c0.896-0.006,1.258-0.049,1.482-0.887l0.008-0.029l0.029,0.007l0.24,0.062
			l-0.008,0.03c-0.096,0.394-0.186,0.789-0.252,1.187l-0.006,0.023L36.129,72.253L36.129,72.253z"/>
		<path fill="#FFFFFF" d="M38.342,69.536h0.367c0.746,0,1.146-0.281,1.146-1.162c0-0.664-0.422-1.088-1.088-1.088
			c-0.225,0-0.32,0.021-0.426,0.028L38.342,69.536L38.342,69.536z M37.389,67.807c0-0.545-0.299-0.566-0.531-0.566h-0.133v-0.225
			c0.238,0,0.699,0.029,1.156,0.029c0.447,0,0.805-0.029,1.199-0.029c0.939,0,1.777,0.252,1.777,1.313
			c0,0.67-0.449,1.081-1.037,1.313l1.275,1.907c0.209,0.314,0.357,0.402,0.725,0.447v0.226c-0.248,0-0.486-0.031-0.732-0.031
			c-0.23,0-0.471,0.031-0.701,0.031c-0.574-0.755-1.068-1.56-1.551-2.418h-0.494v1.598c0,0.574,0.27,0.596,0.611,0.596h0.135v0.225
			c-0.424,0-0.855-0.029-1.281-0.029c-0.359,0-0.709,0.029-1.082,0.029v-0.225h0.133c0.279,0,0.531-0.127,0.531-0.402V67.807z"/>
		<path fill="#FFFFFF" d="M38.709,69.504c0.738-0.007,1.109-0.264,1.117-1.13c-0.006-0.651-0.41-1.056-1.059-1.058
			c-0.201,0-0.297,0.018-0.393,0.025v2.161L38.709,69.504L38.709,69.504z M38.342,69.568h-0.031v-2.282l0.029-0.004
			c0.102-0.009,0.201-0.028,0.428-0.028c0.68,0,1.121,0.441,1.123,1.121c-0.002,0.891-0.432,1.193-1.182,1.193H38.342z
			 M38.342,69.771h0.512l0.008,0.019c0.486,0.856,0.977,1.662,1.525,2.399c0.227,0,0.469-0.028,0.699-0.028
			c0.238,0,0.469,0.024,0.701,0.028v-0.164c-0.352-0.043-0.516-0.147-0.719-0.457l-1.297-1.94l0.035-0.017
			c0.584-0.229,1.018-0.629,1.018-1.281c0-1.036-0.807-1.275-1.744-1.281c-0.393,0-0.752,0.03-1.199,0.03
			c-0.439,0-0.881-0.029-1.125-0.03v0.159h0.102c0.234,0,0.563,0.038,0.563,0.599v3.791c0,0.299-0.279,0.435-0.563,0.436h-0.102
			v0.156c0.359,0,0.699-0.027,1.049-0.027c0.416,0,0.838,0.027,1.25,0.027v-0.156h-0.102c-0.34-0.001-0.643-0.041-0.643-0.631
			v-1.629h0.032V69.771z M41.82,72.253c-0.252,0-0.49-0.028-0.734-0.028c-0.227,0-0.465,0.028-0.725,0.018
			c-0.572-0.75-1.063-1.553-1.545-2.403h-0.441v1.563c0.008,0.561,0.232,0.557,0.578,0.563h0.168v0.033v0.255h-0.033
			c-0.426,0-0.859-0.027-1.283-0.027c-0.355,0-0.707,0.027-1.08,0.027h-0.033v-0.029v-0.259h0.033h0.133
			c0.27-0.002,0.496-0.116,0.498-0.368v-3.791c-0.006-0.527-0.264-0.525-0.498-0.533h-0.166V67.24v-0.258h0.033
			c0.242,0,0.701,0.029,1.156,0.029c0.445,0,0.803-0.029,1.199-0.029c0.941,0.004,1.807,0.263,1.809,1.348
			c0,0.672-0.445,1.093-1.02,1.327l1.252,1.876c0.209,0.31,0.34,0.388,0.703,0.433l0.027,0.005v0.028v0.255L41.82,72.253
			L41.82,72.253z"/>
		<path fill="#FFFFFF" d="M46.883,70.752l0.014-0.016v-2.797c0-0.61-0.426-0.7-0.648-0.7h-0.164v-0.224
			c0.35,0,0.693,0.028,1.045,0.028c0.307,0,0.609-0.028,0.918-0.028v0.224h-0.111c-0.314,0-0.664,0.06-0.664,0.946v3.396
			c0,0.261,0.008,0.521,0.043,0.753h-0.283l-3.84-4.281v3.072c0,0.65,0.125,0.873,0.701,0.873h0.127v0.225
			c-0.32,0-0.643-0.029-0.963-0.029c-0.336,0-0.68,0.029-1.014,0.029v-0.225h0.102c0.518,0,0.674-0.352,0.674-0.947V67.91
			c0-0.417-0.344-0.671-0.68-0.671h-0.096v-0.224c0.281,0,0.572,0.028,0.855,0.028c0.223,0,0.439-0.028,0.664-0.028L46.883,70.752z"
			/>
		<path fill="#FFFFFF" d="M46.863,70.736L46.863,70.736l-0.006-0.006L46.863,70.736z M46.883,70.752l0.023-0.021L46.883,70.752z
			 M47.031,72.301h0.246c-0.033-0.223-0.041-0.472-0.041-0.72v-3.396c0.002-0.894,0.379-0.978,0.699-0.979h0.078v-0.159
			c-0.293,0.001-0.588,0.03-0.885,0.03c-0.344,0-0.676-0.029-1.012-0.03v0.159h0.131c0.23,0.002,0.682,0.103,0.682,0.733
			l-0.012,2.819l-0.012,0.015l-0.023,0.023l-3.32-3.751c-0.221,0-0.438,0.03-0.664,0.03c-0.275,0-0.555-0.029-0.826-0.03v0.159
			h0.066c0.352,0.002,0.711,0.268,0.711,0.703v3.14c0,0.599-0.168,0.979-0.705,0.981l-0.072-0.002v0.158
			c0.324,0,0.654-0.027,0.982-0.027c0.313,0,0.623,0.027,0.934,0.027v-0.156h-0.096c-0.588-0.002-0.734-0.256-0.736-0.906v-3.156
			L47.031,72.301z M47.314,72.366l-0.307-0.011l-3.785-4.22v2.989c0.01,0.65,0.105,0.833,0.67,0.84h0.158v0.033v0.255h-0.033
			c-0.322,0-0.643-0.028-0.963-0.028c-0.332,0-0.678,0.028-1.012,0.028h-0.035v-0.03v-0.258h0.035h0.102
			c0.492-0.002,0.635-0.318,0.641-0.915v-3.14c-0.002-0.396-0.328-0.639-0.646-0.639h-0.131V67.24v-0.258h0.035
			c0.283,0,0.574,0.029,0.855,0.029c0.221,0,0.436-0.029,0.688-0.02l3.277,3.693v-2.746c0-0.592-0.398-0.664-0.615-0.668h-0.197
			V67.24v-0.258h0.033c0.352,0,0.695,0.029,1.045,0.029c0.305,0,0.609-0.029,0.916-0.029h0.035v0.033v0.256h-0.035h-0.109
			c-0.309,0.008-0.625,0.035-0.633,0.914v3.396c0,0.261,0.006,0.52,0.043,0.747l0.004,0.037H47.314z"/>
		<path fill="#FFFFFF" d="M50.336,67.852H50.32l-0.693,2.111h1.393L50.336,67.852z M49.246,71.154
			c-0.074,0.255-0.166,0.449-0.166,0.582c0,0.226,0.314,0.263,0.561,0.263h0.084v0.226c-0.301-0.019-0.605-0.031-0.906-0.031
			c-0.268,0-0.533,0.014-0.803,0.031v-0.226h0.045c0.289,0,0.537-0.172,0.646-0.485l1.195-3.423
			c0.098-0.276,0.232-0.647,0.277-0.926c0.238-0.082,0.535-0.229,0.678-0.319c0.022-0.007,0.037-0.016,0.059-0.016
			s0.037,0,0.053,0.023c0.021,0.058,0.043,0.125,0.068,0.186l1.371,3.9c0.09,0.263,0.18,0.535,0.275,0.763
			c0.09,0.209,0.246,0.297,0.493,0.297h0.043v0.226c-0.334-0.019-0.67-0.031-1.028-0.031c-0.363,0-0.738,0.014-1.119,0.031v-0.226
			h0.084c0.17,0,0.463-0.028,0.463-0.215c0-0.099-0.066-0.3-0.152-0.539l-0.291-0.865h-1.691L49.246,71.154z"/>
		<path fill="#FFFFFF" d="M50.303,67.861l0.018-0.006L50.303,67.861z M49.67,69.93h1.307l-0.647-1.998L49.67,69.93z M49.58,69.995
			l0.715-2.177h0.025h0.016v0.033l-0.008,0.002l0.008-0.002v-0.033h0.021l0.709,2.177H49.58z M51.105,72.188
			c0.367-0.014,0.731-0.026,1.086-0.026c0.348,0,0.672,0.014,0.998,0.026v-0.156h-0.013c-0.256,0.003-0.432-0.098-0.522-0.317
			c-0.098-0.228-0.189-0.502-0.277-0.764l-1.373-3.901c-0.021-0.059-0.043-0.126-0.063-0.18c-0.008-0.008-0.004-0.008-0.012-0.008
			h-0.015c-0.017,0-0.022,0.005-0.043,0.011c-0.146,0.094-0.443,0.239-0.664,0.299c-0.045,0.281-0.182,0.653-0.277,0.931
			l-1.193,3.424c-0.115,0.326-0.375,0.508-0.678,0.507h-0.014v0.157c0.258-0.015,0.516-0.027,0.773-0.027
			c0.289,0,0.584,0.014,0.867,0.027v-0.157h-0.047c-0.244-0.003-0.582-0.03-0.592-0.293c0.002-0.148,0.092-0.339,0.164-0.593
			l0.033,0.01l-0.033-0.01l0.246-0.797h1.74l0.299,0.887c0.082,0.238,0.152,0.438,0.152,0.549c-0.013,0.229-0.326,0.242-0.496,0.247
			h-0.049v0.155H51.105z M53.219,72.253c-0.334-0.013-0.67-0.028-1.027-0.028c-0.362,0-0.735,0.017-1.116,0.028l-0.033,0.003v-0.033
			v-0.26h0.031h0.082c0.174,0,0.428-0.038,0.43-0.18c0.002-0.086-0.063-0.291-0.147-0.527l-0.283-0.845h-1.646l-0.23,0.754
			c-0.076,0.255-0.166,0.451-0.166,0.571c0.002,0.184,0.281,0.227,0.529,0.227h0.115v0.035v0.258l-0.035-0.003
			c-0.297-0.013-0.604-0.028-0.9-0.028c-0.268,0-0.535,0.017-0.803,0.028l-0.035,0.003v-0.033v-0.26h0.033h0.045
			c0.277,0,0.508-0.156,0.615-0.46l1.195-3.424c0.098-0.276,0.23-0.647,0.297-0.945c0.232-0.081,0.531-0.229,0.676-0.319
			c0.021-0.008,0.044-0.019,0.072-0.019c0.019-0.001,0.06,0.004,0.082,0.044c0.021,0.061,0.045,0.128,0.067,0.188l1.373,3.902
			c0.088,0.26,0.177,0.537,0.275,0.756c0.084,0.199,0.223,0.277,0.463,0.277h0.076v0.035v0.258L53.219,72.253z"/>
		<path fill="#FFFFFF" d="M53.549,67.389c-0.559,0-0.582,0.133-0.693,0.678h-0.225c0.029-0.209,0.068-0.416,0.092-0.633
			c0.029-0.211,0.041-0.418,0.041-0.634h0.182c0.062,0.224,0.248,0.216,0.447,0.216h3.851c0.2,0,0.387-0.007,0.399-0.23l0.181,0.029
			c-0.029,0.201-0.06,0.402-0.08,0.604c-0.017,0.202-0.017,0.403-0.017,0.604l-0.225,0.084c-0.014-0.275-0.051-0.717-0.551-0.717
			h-1.225v3.969c0,0.574,0.262,0.641,0.618,0.641h0.144v0.225c-0.291,0-0.813-0.029-1.217-0.029c-0.447,0-0.97,0.029-1.261,0.029V72
			h0.142c0.412,0,0.619-0.037,0.619-0.626v-3.983h-1.223V67.389z"/>
		<path fill="#FFFFFF" d="M56.488,72.253c-0.293,0-0.816-0.028-1.217-0.028c-0.445,0-0.967,0.028-1.261,0.028h-0.032v-0.03v-0.258
			h0.032h0.142c0.412-0.008,0.576-0.015,0.588-0.593l-0.002-3.952h-1.189v-0.031v-0.033h1.256v4.018c0,0.6-0.242,0.656-0.652,0.658
			h-0.108v0.158c0.295-0.002,0.797-0.028,1.229-0.028c0.391,0,0.889,0.026,1.184,0.028v-0.158h-0.109
			c-0.358-0.002-0.647-0.088-0.649-0.674v-4.002h1.256c0.5,0.002,0.563,0.428,0.58,0.703L57.693,68c0-0.193,0.002-0.391,0.016-0.585
			c0.021-0.192,0.049-0.383,0.074-0.573l-0.111-0.019c-0.035,0.217-0.244,0.228-0.43,0.225h-3.85h-0.039
			c-0.174,0.001-0.365-0.007-0.435-0.217h-0.123c0,0.207-0.014,0.407-0.043,0.604c-0.021,0.207-0.058,0.403-0.086,0.601h0.16
			c0.098-0.521,0.164-0.688,0.721-0.681v0.033v0.03c-0.553,0.011-0.539,0.103-0.662,0.654L52.882,68.1h-0.026h-0.263l0.007-0.037
			c0.028-0.211,0.065-0.42,0.088-0.636c0.03-0.208,0.045-0.415,0.045-0.629v-0.032h0.031h0.204l0.007,0.022
			c0.055,0.188,0.188,0.188,0.379,0.192c0.014,0,0.024,0.002,0.039,0.002h3.85c0.205-0.006,0.357-0.008,0.369-0.203l0.002-0.034
			l0.033,0.007l0.215,0.033l-0.008,0.031c-0.031,0.201-0.06,0.401-0.082,0.602c-0.015,0.2-0.015,0.4-0.015,0.602v0.023l-0.021,0.009
			l-0.266,0.095v-0.043c-0.021-0.278-0.048-0.686-0.521-0.686h-1.19v3.938c0.008,0.563,0.23,0.602,0.586,0.607h0.174v0.033v0.255
			h-0.031V72.253z"/>
		<path fill="#FFFFFF" d="M58.098,71.999h0.105c0.268,0,0.551-0.037,0.551-0.426v-3.906c0-0.39-0.283-0.427-0.551-0.427h-0.105
			v-0.225c0.291,0,0.738,0.029,1.104,0.029c0.373,0,0.819-0.029,1.172-0.029v0.225H60.27c-0.271,0-0.555,0.037-0.555,0.427v3.906
			c0,0.389,0.283,0.426,0.555,0.426h0.104v0.226c-0.358,0-0.806-0.031-1.179-0.031c-0.366,0-0.807,0.031-1.098,0.031V71.999z"/>
		<path fill="#FFFFFF" d="M60.34,72.189v-0.158h-0.07c-0.27,0-0.586-0.045-0.586-0.458v-3.906c0-0.413,0.316-0.459,0.586-0.459h0.07
			v-0.159c-0.346,0.001-0.777,0.03-1.139,0.03c-0.354,0-0.781-0.029-1.072-0.03v0.159h0.074c0.264,0,0.584,0.046,0.584,0.459v3.906
			c0,0.413-0.32,0.458-0.584,0.458h-0.074v0.158c0.289-0.004,0.709-0.028,1.066-0.028C59.555,72.161,59.986,72.188,60.34,72.189
			 M60.373,72.253c-0.361,0-0.809-0.028-1.178-0.028c-0.365,0-0.805,0.028-1.098,0.028h-0.033v-0.03v-0.225v-0.033h0.033h0.104
			c0.268-0.004,0.516-0.027,0.518-0.393v-3.906c-0.002-0.364-0.25-0.389-0.518-0.395h-0.14V67.24v-0.256h0.033
			c0.293,0,0.74,0.027,1.104,0.027c0.37,0,0.817-0.027,1.172-0.027h0.03v0.031v0.256h-0.03H60.27
			c-0.274,0.006-0.52,0.03-0.521,0.396v3.906c0.002,0.364,0.246,0.389,0.521,0.393h0.136v0.033v0.255L60.373,72.253L60.373,72.253z"
			/>
		<path fill="#FFFFFF" d="M63.461,72.006c1.447,0,1.699-1.275,1.699-2.363c0-1.091-0.588-2.41-1.826-2.41
			c-1.305,0-1.693,1.164-1.693,2.162C61.641,70.73,62.252,72.006,63.461,72.006 M63.348,66.904c1.59,0,2.855,0.986,2.855,2.574
			c0,1.717-1.229,2.855-2.816,2.855c-1.582,0-2.791-1.074-2.791-2.678C60.596,68.105,61.797,66.904,63.348,66.904"/>
		<path fill="#FFFFFF" d="M61.607,69.395C61.609,68.391,62,67.2,63.334,67.2c1.266,0.004,1.855,1.347,1.859,2.442
			c-0.004,1.088-0.258,2.395-1.732,2.395v-0.03v-0.032c1.418-0.002,1.664-1.244,1.668-2.33c0-1.082-0.584-2.377-1.795-2.379
			c-1.281,0.002-1.658,1.137-1.662,2.131c0.002,1.328,0.607,2.576,1.789,2.578v0.032v0.03
			C62.223,72.035,61.609,70.736,61.607,69.395 M60.563,69.657c0.002-1.569,1.218-2.781,2.785-2.785v0.032v0.033
			c-1.533,0-2.721,1.185-2.721,2.72c0.002,1.586,1.191,2.644,2.758,2.645c1.574-0.001,2.787-1.126,2.789-2.823
			c0-1.568-1.248-2.539-2.826-2.541v-0.031v-0.033c1.603,0.002,2.885,0.998,2.889,2.605c-0.002,1.733-1.247,2.886-2.852,2.889
			C61.789,72.363,60.564,71.277,60.563,69.657"/>
		<path fill="#FFFFFF" d="M71.232,70.752l0.016-0.016v-2.797c0-0.61-0.428-0.7-0.652-0.7h-0.16v-0.224
			c0.349,0,0.691,0.028,1.041,0.028c0.308,0,0.613-0.028,0.92-0.028v0.224h-0.112c-0.314,0-0.664,0.06-0.664,0.946v3.396
			c0,0.261,0.006,0.521,0.045,0.753h-0.283l-3.842-4.281v3.072c0,0.65,0.125,0.873,0.701,0.873h0.127v0.225
			c-0.32,0-0.642-0.029-0.961-0.029c-0.339,0-0.681,0.029-1.019,0.029v-0.225h0.107c0.516,0,0.67-0.352,0.67-0.947V67.91
			c0-0.417-0.342-0.671-0.68-0.671h-0.098v-0.224c0.284,0,0.573,0.028,0.858,0.028c0.223,0,0.438-0.028,0.664-0.028L71.232,70.752z"
			/>
		<path fill="#FFFFFF" d="M71.213,70.736L71.213,70.736l-0.004-0.006L71.213,70.736z M71.232,70.752l0.021-0.021L71.232,70.752z
			 M71.381,72.301h0.244c-0.031-0.225-0.037-0.472-0.037-0.72v-3.396c0-0.896,0.377-0.978,0.695-0.979h0.08v-0.159
			c-0.295,0.001-0.588,0.03-0.889,0.03c-0.339,0-0.673-0.029-1.009-0.03v0.159h0.129c0.23,0.002,0.683,0.104,0.683,0.733
			l-0.008,2.819l-0.017,0.015l-0.021,0.023l-3.32-3.751c-0.221,0-0.438,0.03-0.664,0.03c-0.275,0-0.555-0.029-0.826-0.03v0.159
			h0.064c0.352,0.002,0.711,0.268,0.711,0.703v3.141c0,0.598-0.166,0.979-0.701,0.98l-0.074-0.002v0.158
			c0.326,0,0.656-0.027,0.982-0.027c0.313,0,0.621,0.027,0.932,0.027v-0.156h-0.098c-0.586-0.002-0.732-0.256-0.732-0.906v-3.157
			L71.381,72.301z M71.664,72.366l-0.309-0.011l-3.785-4.22v2.989c0.01,0.65,0.109,0.832,0.668,0.838h0.16v0.035v0.255h-0.031
			c-0.322,0-0.645-0.028-0.963-0.028c-0.334,0-0.676,0.028-1.016,0.028h-0.031v-0.03v-0.26h0.031h0.106
			c0.489-0.001,0.633-0.316,0.637-0.912V67.91c0-0.396-0.325-0.639-0.646-0.639h-0.129V67.24v-0.256h0.031
			c0.286,0,0.575,0.027,0.858,0.027c0.221,0,0.437-0.027,0.688-0.018l3.276,3.691v-2.744c-0.002-0.594-0.397-0.664-0.616-0.67H70.4
			V67.24v-0.256h0.033c0.352,0,0.694,0.027,1.041,0.027c0.307,0,0.61-0.027,0.922-0.027h0.03v0.031v0.256h-0.03h-0.113
			c-0.307,0.011-0.625,0.037-0.633,0.914v3.396c0,0.261,0.008,0.521,0.045,0.747l0.006,0.037H71.664z"/>
		<path fill="#FFFFFF" d="M74.686,67.852h-0.018l-0.693,2.111h1.396L74.686,67.852z M73.594,71.154
			c-0.072,0.255-0.164,0.449-0.164,0.582c0,0.226,0.314,0.263,0.562,0.263h0.082v0.226c-0.3-0.019-0.605-0.031-0.904-0.031
			c-0.269,0-0.535,0.014-0.803,0.031v-0.226h0.041c0.293,0,0.541-0.172,0.649-0.485l1.195-3.423c0.096-0.276,0.23-0.647,0.273-0.926
			c0.24-0.082,0.539-0.229,0.682-0.319c0.021-0.007,0.035-0.016,0.059-0.016c0.021,0,0.037,0,0.051,0.023
			c0.023,0.058,0.048,0.125,0.068,0.186l1.371,3.9c0.09,0.263,0.18,0.535,0.277,0.763c0.09,0.209,0.246,0.297,0.492,0.297h0.045
			v0.226c-0.336-0.019-0.672-0.031-1.031-0.031c-0.363,0-0.736,0.014-1.117,0.031v-0.226h0.082c0.172,0,0.463-0.028,0.463-0.215
			c0-0.099-0.066-0.3-0.15-0.539l-0.291-0.865h-1.692L73.594,71.154z"/>
		<path fill="#FFFFFF" d="M74.654,67.861l0.014-0.006L74.654,67.861z M74.02,69.93h1.306l-0.65-1.998L74.02,69.93z M73.93,69.995
			l0.715-2.177h0.023h0.018v0.033l-0.01,0.002l0.01-0.002v-0.033h0.021l0.707,2.177H73.93z M75.453,72.189
			c0.371-0.016,0.732-0.028,1.086-0.028c0.35,0,0.674,0.014,0.998,0.026l-0.002-0.156h-0.012c-0.252,0.001-0.429-0.098-0.521-0.317
			c-0.101-0.228-0.188-0.502-0.276-0.764l-1.373-3.901c-0.021-0.059-0.045-0.126-0.062-0.178c-0.008-0.01-0.008-0.01-0.012-0.01
			h-0.017c-0.016,0-0.024,0.005-0.043,0.011c-0.145,0.092-0.443,0.241-0.664,0.299c-0.045,0.281-0.182,0.653-0.276,0.931
			l-1.195,3.424c-0.112,0.326-0.373,0.508-0.68,0.507h-0.011v0.157c0.258-0.015,0.515-0.027,0.771-0.027
			c0.291,0,0.586,0.014,0.871,0.027v-0.157h-0.051c-0.242-0.003-0.582-0.028-0.592-0.294c0.002-0.147,0.094-0.338,0.166-0.592
			l0.03,0.01l-0.03-0.01l0.248-0.797h1.737l0.297,0.887c0.084,0.238,0.152,0.438,0.152,0.549c-0.013,0.229-0.324,0.242-0.494,0.247
			H75.45v0.157H75.453z M77.568,72.253c-0.338-0.013-0.672-0.028-1.029-0.028c-0.361,0-0.736,0.017-1.115,0.028l-0.033,0.003v-0.033
			v-0.258h0.031h0.082c0.174,0,0.43-0.04,0.43-0.182c0.002-0.086-0.063-0.289-0.147-0.527l-0.283-0.845h-1.646l-0.229,0.754
			c-0.078,0.255-0.166,0.451-0.164,0.571c0,0.184,0.279,0.229,0.525,0.229h0.114v0.033v0.258l-0.033-0.003
			c-0.299-0.013-0.604-0.028-0.901-0.028c-0.267,0-0.533,0.017-0.803,0.028l-0.033,0.003v-0.033v-0.258h0.033h0.041
			c0.278-0.002,0.512-0.16,0.62-0.462l1.193-3.424c0.096-0.276,0.23-0.647,0.295-0.945c0.236-0.081,0.535-0.229,0.68-0.319
			c0.021-0.008,0.039-0.018,0.07-0.018c0.021-0.002,0.06,0.003,0.082,0.045c0.021,0.057,0.043,0.126,0.068,0.186l1.371,3.902
			c0.09,0.26,0.18,0.537,0.275,0.758c0.09,0.197,0.223,0.275,0.461,0.277h0.08v0.033v0.258L77.568,72.253z"/>
		<path fill="#FFFFFF" d="M79.449,71.492c0,0.3,0.209,0.388,0.447,0.419c0.305,0.021,0.641,0.021,0.985-0.019
			c0.313-0.037,0.58-0.215,0.716-0.4c0.118-0.165,0.186-0.373,0.229-0.538h0.217c-0.082,0.426-0.188,0.845-0.274,1.271
			c-0.656,0-1.314-0.031-1.97-0.031c-0.657,0-1.313,0.031-1.971,0.031v-0.226h0.104c0.27,0,0.561-0.037,0.561-0.5v-3.832
			c0-0.39-0.291-0.427-0.561-0.427H77.83v-0.225c0.396,0,0.783,0.029,1.18,0.029c0.381,0,0.752-0.029,1.133-0.029v0.225h-0.188
			c-0.281,0-0.506,0.008-0.506,0.402V71.492z"/>
		<path fill="#FFFFFF" d="M81.742,72.189c0.086-0.403,0.184-0.801,0.264-1.203h-0.154c-0.045,0.162-0.112,0.363-0.229,0.525
			c-0.141,0.191-0.416,0.374-0.74,0.414c-0.195,0.02-0.387,0.031-0.57,0.031c-0.145,0-0.285-0.007-0.42-0.018
			c-0.244-0.025-0.479-0.129-0.477-0.448v-3.849c0-0.416,0.262-0.437,0.539-0.437h0.154v-0.159c-0.367,0.001-0.729,0.03-1.101,0.03
			c-0.389,0-0.766-0.029-1.147-0.03v0.159h0.072c0.266,0,0.594,0.046,0.594,0.458v3.833c0,0.481-0.324,0.532-0.594,0.532h-0.072
			v0.158c0.646,0,1.291-0.028,1.938-0.028C80.448,72.159,81.096,72.189,81.742,72.189 M81.77,72.253
			c-0.658,0-1.313-0.028-1.969-0.028c-0.658,0-1.313,0.028-1.973,0.028h-0.029v-0.03v-0.258h0.029h0.105
			c0.27-0.006,0.524-0.023,0.526-0.467v-3.833c-0.002-0.363-0.256-0.388-0.526-0.394h-0.136V67.24v-0.256h0.029
			c0.397,0,0.787,0.027,1.182,0.027c0.38,0,0.75-0.027,1.134-0.027h0.03v0.031v0.256h-0.03h-0.188
			c-0.287,0.008-0.47-0.006-0.476,0.371v3.85c0.002,0.277,0.187,0.354,0.418,0.385c0.131,0.009,0.271,0.016,0.414,0.016
			c0.183,0,0.371-0.009,0.564-0.027c0.305-0.037,0.566-0.213,0.693-0.393c0.115-0.156,0.182-0.361,0.225-0.523l0.008-0.025h0.025
			h0.256l-0.006,0.039c-0.086,0.426-0.188,0.844-0.279,1.268l-0.006,0.024H81.77V72.253z"/>
	</g>
</g>
</svg>
