<?xml version="1.0" encoding="utf-8"?>
<!-- Generator: Adobe Illustrator 16.0.3, SVG Export Plug-In . SVG Version: 6.00 Build 0)  -->
<!DOCTYPE svg PUBLIC "-//W3C//DTD SVG 1.1//EN" "http://www.w3.org/Graphics/SVG/1.1/DTD/svg11.dtd">
<svg version="1.1" id="Layer_1" xmlns="http://www.w3.org/2000/svg" xmlns:xlink="http://www.w3.org/1999/xlink" x="0px" y="0px"
	 width="100px" height="100px" viewBox="0 0 100 100" enable-background="new 0 0 100 100" xml:space="preserve">
<g id="Interac_x5F_Process_Color">
</g>
<g id="New_Symbol_3">
</g>
<g>
	<g>
		<path fill="#F1F2F2" d="M100,95c0,2.75-2.25,5-5,5H5c-2.75,0-5-2.25-5-5V5c0-2.75,2.25-5,5-5h90c2.75,0,5,2.25,5,5V95z"/>
	</g>
	<g>
		<path fill="#231F20" d="M16.018,44.044h-3.387v11.827H16c1.791,0,3.084-0.423,4.219-1.365c1.35-1.115,2.146-2.799,2.146-4.54
			C22.365,46.476,19.76,44.044,16.018,44.044z M18.713,52.93c-0.725,0.654-1.668,0.939-3.158,0.939h-0.617v-7.821h0.617
			c1.49,0,2.396,0.267,3.158,0.957c0.797,0.71,1.277,1.812,1.277,2.944C19.99,51.085,19.51,52.219,18.713,52.93z"/>
		<rect x="23.428" y="44.044" fill="#231F20" width="2.307" height="11.827"/>
		<path fill="#231F20" d="M31.375,48.583c-1.385-0.512-1.791-0.85-1.791-1.489c0-0.745,0.725-1.311,1.719-1.311
			c0.691,0,1.26,0.284,1.859,0.958l1.209-1.581c-0.994-0.868-2.18-1.311-3.477-1.311c-2.092,0-3.689,1.453-3.689,3.389
			c0,1.629,0.744,2.463,2.912,3.243c0.902,0.319,1.363,0.531,1.594,0.673c0.461,0.301,0.691,0.728,0.691,1.225
			c0,0.958-0.762,1.668-1.791,1.668c-1.1,0-1.986-0.55-2.518-1.576l-1.49,1.434c1.063,1.561,2.34,2.253,4.096,2.253
			c2.396,0,4.078-1.595,4.078-3.884C34.777,50.393,33.998,49.542,31.375,48.583z"/>
		<path fill="#231F20" d="M35.504,49.966c0,3.478,2.73,6.173,6.244,6.173c0.992,0,1.842-0.195,2.891-0.689v-2.715
			c-0.922,0.924-1.738,1.295-2.785,1.295c-2.322,0-3.971-1.686-3.971-4.079c0-2.271,1.699-4.062,3.865-4.062
			c1.1,0,1.934,0.392,2.891,1.33v-2.714c-1.012-0.513-1.846-0.726-2.836-0.726C38.307,43.777,35.504,46.527,35.504,49.966z"/>
		<polygon fill="#231F20" points="62.93,51.989 59.775,44.044 57.256,44.044 62.275,56.175 63.518,56.175 68.625,44.044 
			66.125,44.044 		"/>
		<polygon fill="#231F20" points="69.67,55.871 76.211,55.871 76.211,53.869 71.975,53.869 71.975,50.677 76.055,50.677 
			76.055,48.674 71.975,48.674 71.975,46.048 76.211,46.048 76.211,44.044 69.67,44.044 		"/>
		<path fill="#231F20" d="M85.346,47.536c0-2.214-1.525-3.492-4.186-3.492h-3.42v11.827h2.303V51.12h0.301l3.193,4.751h2.836
			l-3.723-4.982C84.389,50.536,85.346,49.347,85.346,47.536z M80.717,49.49h-0.674v-3.583h0.711c1.438,0,2.217,0.602,2.217,1.753
			C82.971,48.849,82.191,49.49,80.717,49.49z"/>
		<g>
			<g>
				
					<linearGradient id="SVGID_1_" gradientUnits="userSpaceOnUse" x1="-509.0947" y1="-10.0391" x2="-513.4509" y2="-3.2187" gradientTransform="matrix(1 0 0 -1 564 45)">
					<stop  offset="0" style="stop-color:#F89F20"/>
					<stop  offset="0.2502" style="stop-color:#F79A20"/>
					<stop  offset="0.5331" style="stop-color:#F68D20"/>
					<stop  offset="0.6196" style="stop-color:#F58720"/>
					<stop  offset="0.7232" style="stop-color:#F48120"/>
					<stop  offset="1" style="stop-color:#F37521"/>
				</linearGradient>
				<circle fill="url(#SVGID_1_)" cx="51.686" cy="49.999" r="6.292"/>
				
					<linearGradient id="SVGID_2_" gradientUnits="userSpaceOnUse" x1="-509.7832" y1="-9.9482" x2="-516.1494" y2="2.4948" gradientTransform="matrix(1 0 0 -1 564 45)">
					<stop  offset="0" style="stop-color:#F58720;stop-opacity:0"/>
					<stop  offset="0.3587" style="stop-color:#E16F27;stop-opacity:0.2704"/>
					<stop  offset="0.703" style="stop-color:#D4602C;stop-opacity:0.5299"/>
					<stop  offset="0.9816" style="stop-color:#D05B2E;stop-opacity:0.74"/>
				</linearGradient>
				<circle opacity="0.65" fill="url(#SVGID_2_)" enable-background="new    " cx="51.686" cy="49.999" r="6.292"/>
			</g>
			<g opacity="0.5" enable-background="new    ">
				<g>
					<defs>
						<circle id="SVGID_3_" cx="51.684" cy="50" r="6.291"/>
					</defs>
					<clipPath id="SVGID_4_">
						<use xlink:href="#SVGID_3_"  overflow="visible"/>
					</clipPath>
					<g clip-path="url(#SVGID_4_)">
						<circle fill="#231F20" cx="51.705" cy="50.021" r="6.418"/>
						<circle fill="#242021" cx="51.706" cy="50.024" r="6.418"/>
						<circle fill="#252122" cx="51.71" cy="50.028" r="6.417"/>
						<circle fill="#252223" cx="51.714" cy="50.032" r="6.417"/>
						<circle fill="#262223" cx="51.717" cy="50.036" r="6.416"/>
						<circle fill="#272324" cx="51.721" cy="50.04" r="6.415"/>
						<circle fill="#282425" cx="51.725" cy="50.044" r="6.415"/>
						<path fill="#292526" d="M51.727,43.634c3.543,0,6.418,2.872,6.418,6.415s-2.875,6.414-6.418,6.414
							c-3.541,0-6.411-2.872-6.411-6.414S48.186,43.634,51.727,43.634z"/>
						<circle fill="#292627" cx="51.73" cy="50.052" r="6.413"/>
						<circle fill="#2A2728" cx="51.734" cy="50.056" r="6.413"/>
						<circle fill="#2B2728" cx="51.738" cy="50.061" r="6.412"/>
						<circle fill="#2C2829" cx="51.741" cy="50.064" r="6.412"/>
						<circle fill="#2D292A" cx="51.745" cy="50.068" r="6.411"/>
						<circle fill="#2D2A2B" cx="51.749" cy="50.073" r="6.41"/>
						<circle fill="#2E2B2C" cx="51.752" cy="50.077" r="6.41"/>
						<circle fill="#2F2C2D" cx="51.755" cy="50.08" r="6.409"/>
						<circle fill="#302C2D" cx="51.759" cy="50.084" r="6.408"/>
						<circle fill="#312D2E" cx="51.762" cy="50.088" r="6.408"/>
						<circle fill="#322E2F" cx="51.766" cy="50.093" r="6.407"/>
						<circle fill="#322F30" cx="51.77" cy="50.096" r="6.407"/>
						<circle fill="#333031" cx="51.773" cy="50.1" r="6.406"/>
						<circle fill="#343132" cx="51.777" cy="50.104" r="6.405"/>
						<circle fill="#353132" cx="51.78" cy="50.108" r="6.404"/>
						<circle fill="#363233" cx="51.783" cy="50.112" r="6.404"/>
						<circle fill="#363334" cx="51.787" cy="50.116" r="6.403"/>
						<circle fill="#373435" cx="51.79" cy="50.12" r="6.403"/>
						<circle fill="#383536" cx="51.794" cy="50.125" r="6.402"/>
						<circle fill="#393637" cx="51.797" cy="50.128" r="6.402"/>
						<circle fill="#3A3638" cx="51.8" cy="50.132" r="6.401"/>
						<circle fill="#3A3738" cx="51.805" cy="50.136" r="6.4"/>
						<circle fill="#3B3839" cx="51.809" cy="50.141" r="6.399"/>
						<circle fill="#3C393A" cx="51.811" cy="50.144" r="6.399"/>
						<circle fill="#3D3A3B" cx="51.813" cy="50.148" r="6.398"/>
						<circle fill="#3E3B3C" cx="51.818" cy="50.152" r="6.398"/>
						<circle fill="#3E3B3D" cx="51.82" cy="50.156" r="6.397"/>
						<circle fill="#3F3C3D" cx="51.825" cy="50.16" r="6.397"/>
						<circle fill="#403D3E" cx="51.828" cy="50.164" r="6.396"/>
						<circle fill="#413E3F" cx="51.832" cy="50.169" r="6.395"/>
						<circle fill="#423F40" cx="51.835" cy="50.173" r="6.395"/>
						<circle fill="#424041" cx="51.839" cy="50.177" r="6.394"/>
						<circle fill="#434042" cx="51.842" cy="50.18" r="6.393"/>
						<circle fill="#444142" cx="51.846" cy="50.185" r="6.393"/>
						<circle fill="#454243" cx="51.85" cy="50.189" r="6.392"/>
						<circle fill="#464344" cx="51.854" cy="50.193" r="6.391"/>
						<circle fill="#464445" cx="51.855" cy="50.197" r="6.391"/>
						<circle fill="#474546" cx="51.859" cy="50.201" r="6.39"/>
						<circle fill="#484547" cx="51.863" cy="50.205" r="6.39"/>
						<circle fill="#494648" cx="51.867" cy="50.209" r="6.389"/>
						<circle fill="#4A4748" cx="51.87" cy="50.213" r="6.388"/>
						<circle fill="#4A4849" cx="51.873" cy="50.217" r="6.388"/>
						<circle fill="#4B494A" cx="51.877" cy="50.22" r="6.387"/>
						<circle fill="#4C4A4B" cx="51.881" cy="50.225" r="6.386"/>
						<circle fill="#4D4A4C" cx="51.884" cy="50.229" r="6.386"/>
						<circle fill="#4E4B4D" cx="51.889" cy="50.233" r="6.385"/>
						<circle fill="#4F4C4D" cx="51.893" cy="50.237" r="6.385"/>
						<circle fill="#4F4D4E" cx="51.895" cy="50.241" r="6.384"/>
						<circle fill="#504E4F" cx="51.896" cy="50.245" r="6.383"/>
						<circle fill="#514F50" cx="51.9" cy="50.249" r="6.383"/>
						<circle fill="#524F51" cx="51.905" cy="50.253" r="6.382"/>
						<circle fill="#535052" cx="51.908" cy="50.257" r="6.382"/>
						<circle fill="#535152" cx="51.911" cy="50.261" r="6.381"/>
						<circle fill="#545253" cx="51.915" cy="50.265" r="6.38"/>
						<circle fill="#555354" cx="51.919" cy="50.269" r="6.379"/>
						<circle fill="#565455" cx="51.922" cy="50.273" r="6.379"/>
						<circle fill="#575456" cx="51.926" cy="50.277" r="6.378"/>
						<circle fill="#575557" cx="51.93" cy="50.281" r="6.377"/>
						<circle fill="#585657" cx="51.934" cy="50.285" r="6.377"/>
						<circle fill="#595758" cx="51.938" cy="50.289" r="6.376"/>
						<circle fill="#5A5859" cx="51.939" cy="50.293" r="6.376"/>
						<circle fill="#5B595A" cx="51.943" cy="50.297" r="6.375"/>
						<circle fill="#5B5A5B" cx="51.947" cy="50.301" r="6.375"/>
						<circle fill="#5C5A5C" cx="51.95" cy="50.305" r="6.374"/>
						<circle fill="#5D5B5D" cx="51.953" cy="50.309" r="6.373"/>
						<circle fill="#5E5C5D" cx="51.957" cy="50.313" r="6.373"/>
						<circle fill="#5F5D5E" cx="51.961" cy="50.317" r="6.372"/>
						<circle fill="#5F5E5F" cx="51.964" cy="50.321" r="6.371"/>
						<circle fill="#605F60" cx="51.967" cy="50.325" r="6.371"/>
						<circle fill="#615F61" cx="51.971" cy="50.329" r="6.37"/>
						<circle fill="#626062" cx="51.975" cy="50.333" r="6.369"/>
						<circle fill="#636162" cx="51.979" cy="50.337" r="6.369"/>
						<circle fill="#636263" cx="51.98" cy="50.341" r="6.368"/>
						<circle fill="#646364" cx="51.984" cy="50.345" r="6.368"/>
						<circle fill="#656465" cx="51.988" cy="50.349" r="6.367"/>
						<circle fill="#666466" cx="51.992" cy="50.353" r="6.366"/>
						<circle fill="#676567" cx="51.995" cy="50.357" r="6.366"/>
						<circle fill="#686667" cx="51.999" cy="50.361" r="6.365"/>
						<circle fill="#686768" cx="52.002" cy="50.365" r="6.365"/>
						<circle fill="#696869" cx="52.006" cy="50.369" r="6.364"/>
						<circle fill="#6A696A" cx="52.01" cy="50.373" r="6.363"/>
						<circle fill="#6B696B" cx="52.014" cy="50.377" r="6.363"/>
						<circle fill="#6C6A6C" cx="52.018" cy="50.382" r="6.362"/>
						<circle fill="#6C6B6D" cx="52.02" cy="50.385" r="6.361"/>
						<circle fill="#6D6C6D" cx="52.023" cy="50.389" r="6.361"/>
						<circle fill="#6E6D6E" cx="52.027" cy="50.393" r="6.36"/>
						<circle fill="#6F6E6F" cx="52.031" cy="50.398" r="6.36"/>
						<circle fill="#706E70" cx="52.033" cy="50.401" r="6.359"/>
						<circle fill="#706F71" cx="52.037" cy="50.405" r="6.358"/>
						<circle fill="#717072" cx="52.041" cy="50.409" r="6.358"/>
						<circle fill="#727172" cx="52.045" cy="50.414" r="6.357"/>
						<circle fill="#737273" cx="52.047" cy="50.417" r="6.356"/>
						<circle fill="#747374" cx="52.051" cy="50.421" r="6.356"/>
						<circle fill="#747375" cx="52.055" cy="50.425" r="6.355"/>
						<circle fill="#757476" cx="52.059" cy="50.43" r="6.354"/>
						<circle fill="#767577" cx="52.063" cy="50.433" r="6.354"/>
						<circle fill="#777677" cx="52.064" cy="50.438" r="6.354"/>
						<circle fill="#787778" cx="52.068" cy="50.441" r="6.353"/>
						<circle fill="#787879" cx="52.072" cy="50.446" r="6.352"/>
						<circle fill="#79787A" cx="52.075" cy="50.449" r="6.351"/>
						<circle fill="#7A797B" cx="52.079" cy="50.453" r="6.351"/>
						<circle fill="#7B7A7C" cx="52.082" cy="50.458" r="6.35"/>
						<circle fill="#7C7B7C" cx="52.086" cy="50.462" r="6.349"/>
						<circle fill="#7C7C7D" cx="52.09" cy="50.466" r="6.349"/>
						<circle fill="#7D7D7E" cx="52.093" cy="50.469" r="6.348"/>
						<circle fill="#7E7D7F" cx="52.096" cy="50.474" r="6.348"/>
						<circle fill="#7F7E80" cx="52.1" cy="50.478" r="6.347"/>
						<circle fill="#807F81" cx="52.104" cy="50.482" r="6.346"/>
						<circle fill="#808082" cx="52.105" cy="50.486" r="6.345"/>
						<circle fill="#818182" cx="52.109" cy="50.49" r="6.345"/>
						<circle fill="#828283" cx="52.113" cy="50.493" r="6.344"/>
						<circle fill="#838284" cx="52.117" cy="50.498" r="6.344"/>
						<circle fill="#848385" cx="52.12" cy="50.501" r="6.343"/>
						<circle fill="#858486" cx="52.124" cy="50.506" r="6.343"/>
						<circle fill="#858587" cx="52.127" cy="50.51" r="6.342"/>
						<circle fill="#868687" cx="52.131" cy="50.514" r="6.342"/>
						<circle fill="#878788" cx="52.135" cy="50.518" r="6.341"/>
						<circle fill="#888789" cx="52.139" cy="50.522" r="6.34"/>
						<circle fill="#89888A" cx="52.143" cy="50.526" r="6.34"/>
						<circle fill="#89898B" cx="52.145" cy="50.529" r="6.339"/>
						<circle fill="#8A8A8C" cx="52.148" cy="50.534" r="6.338"/>
						<circle fill="#8B8B8C" cx="52.15" cy="50.538" r="6.338"/>
						<circle fill="#8C8C8D" cx="52.155" cy="50.542" r="6.337"/>
						<circle fill="#8D8C8E" cx="52.158" cy="50.545" r="6.336"/>
						<circle fill="#8D8D8F" cx="52.162" cy="50.55" r="6.336"/>
						<circle fill="#8E8E90" cx="52.166" cy="50.554" r="6.335"/>
						<circle fill="#8F8F91" cx="52.17" cy="50.558" r="6.335"/>
						<circle fill="#909092" cx="52.173" cy="50.562" r="6.334"/>
						<circle fill="#919192" cx="52.177" cy="50.566" r="6.333"/>
						<circle fill="#919293" cx="52.18" cy="50.57" r="6.333"/>
						<circle fill="#929294" cx="52.184" cy="50.574" r="6.332"/>
						<circle fill="#939395" cx="52.188" cy="50.578" r="6.332"/>
						<circle fill="#949496" cx="52.189" cy="50.582" r="6.331"/>
						<circle fill="#959597" cx="52.193" cy="50.586" r="6.33"/>
						<circle fill="#959697" cx="52.197" cy="50.59" r="6.33"/>
						<circle fill="#969798" cx="52.201" cy="50.594" r="6.329"/>
						<circle fill="#979799" cx="52.204" cy="50.598" r="6.328"/>
						<circle fill="#98989A" cx="52.208" cy="50.602" r="6.328"/>
						<circle fill="#99999B" cx="52.211" cy="50.606" r="6.327"/>
						<circle fill="#999A9C" cx="52.215" cy="50.61" r="6.326"/>
						<circle fill="#9A9B9C" cx="52.218" cy="50.614" r="6.326"/>
						<circle fill="#9B9C9D" cx="52.221" cy="50.618" r="6.325"/>
						<circle fill="#9C9C9E" cx="52.225" cy="50.622" r="6.324"/>
						<circle fill="#9D9D9F" cx="52.229" cy="50.626" r="6.324"/>
						<circle fill="#9E9EA0" cx="52.232" cy="50.63" r="6.html"/>
						<circle fill="#9E9FA1" cx="52.234" cy="50.634" r="6.html"/>
						<circle fill="#9FA0A1" cx="52.239" cy="50.638" r="6.322"/>
						<circle fill="#A0A1A2" cx="52.242" cy="50.642" r="6.321"/>
						<circle fill="#A1A1A3" cx="52.246" cy="50.646" r="6.321"/>
						<circle fill="#A2A2A4" cx="52.249" cy="50.65" r="6.32"/>
						<circle fill="#A2A3A5" cx="52.253" cy="50.654" r="6.319"/>
						<circle fill="#A3A4A6" cx="52.256" cy="50.658" r="6.319"/>
						<circle fill="#A4A5A7" cx="52.26" cy="50.662" r="6.318"/>
						<circle fill="#A5A6A7" cx="52.264" cy="50.666" r="6.318"/>
						<circle fill="#A6A6A8" cx="52.268" cy="50.67" r="6.317"/>
						<circle fill="#A6A7A9" cx="52.271" cy="50.674" r="6.316"/>
						<circle fill="#A7A8AA" cx="52.273" cy="50.678" r="6.315"/>
						<circle fill="#A8A9AB" cx="52.277" cy="50.682" r="6.315"/>
						<circle fill="#A9AAAC" cx="52.28" cy="50.687" r="6.314"/>
						<circle fill="#AAABAC" cx="52.284" cy="50.69" r="6.314"/>
						<circle fill="#AAABAD" cx="52.287" cy="50.694" r="6.313"/>
						<circle fill="#ABACAE" cx="52.291" cy="50.698" r="6.313"/>
						<circle fill="#ACADAF" cx="52.295" cy="50.702" r="6.312"/>
						<circle fill="#ADAEB0" cx="52.298" cy="50.707" r="6.311"/>
						<circle fill="#AEAFB1" cx="52.301" cy="50.71" r="6.311"/>
						<circle fill="#AEB0B1" cx="52.307" cy="50.714" r="6.31"/>
						<circle fill="#AFB0B2" cx="52.309" cy="50.718" r="6.309"/>
						<circle fill="#B0B1B3" cx="52.313" cy="50.722" r="6.309"/>
						<circle fill="#B1B2B4" cx="52.314" cy="50.726" r="6.308"/>
						<circle fill="#B2B3B5" cx="52.318" cy="50.73" r="6.308"/>
						<circle fill="#B2B4B6" cx="52.322" cy="50.734" r="6.307"/>
						<circle fill="#B3B5B7" cx="52.326" cy="50.738" r="6.306"/>
						<circle fill="#B4B5B7" cx="52.329" cy="50.742" r="6.306"/>
						<circle fill="#B5B6B8" cx="52.332" cy="50.747" r="6.305"/>
						<circle fill="#B6B7B9" cx="52.337" cy="50.75" r="6.304"/>
						<circle fill="#B6B8BA" cx="52.34" cy="50.754" r="6.304"/>
						<circle fill="#B7B9BB" cx="52.343" cy="50.758" r="6.303"/>
						<circle fill="#B8BABC" cx="52.348" cy="50.762" r="6.302"/>
						<circle fill="#B9BABC" cx="52.352" cy="50.766" r="6.302"/>
						<circle fill="#BABBBD" cx="52.354" cy="50.771" r="6.301"/>
						<circle fill="#BBBCBE" cx="52.357" cy="50.774" r="6.301"/>
						<circle fill="#BBBDBF" cx="52.359" cy="50.778" r="6.3"/>
						<circle fill="#BCBEC0" cx="52.364" cy="50.782" r="6.3"/>
						<circle fill="#BDBFC1" cx="52.368" cy="50.787" r="6.299"/>
						<circle fill="#BEBFC1" cx="52.371" cy="50.791" r="6.298"/>
						<circle fill="#BFC0C2" cx="52.374" cy="50.794" r="6.297"/>
						<circle fill="#BFC1C3" cx="52.378" cy="50.799" r="6.297"/>
						<circle fill="#C0C2C4" cx="52.382" cy="50.803" r="6.296"/>
						<circle fill="#C1C3C5" cx="52.385" cy="50.806" r="6.296"/>
						<circle fill="#C2C4C6" cx="52.389" cy="50.811" r="6.295"/>
						<circle fill="#C3C4C6" cx="52.393" cy="50.814" r="6.294"/>
						<circle fill="#C3C5C7" cx="52.396" cy="50.819" r="6.294"/>
						<circle fill="#C4C6C8" cx="52.398" cy="50.823" r="6.293"/>
						<circle fill="#C5C7C9" cx="52.402" cy="50.826" r="6.292"/>
						<circle opacity="0.995" fill="#C5C7C9" enable-background="new    " cx="52.405" cy="50.83" r="6.292"/>
						<circle opacity="0.9901" fill="#C6C8CA" enable-background="new    " cx="52.408" cy="50.834" r="6.292"/>
						<circle opacity="0.9851" fill="#C6C8CA" enable-background="new    " cx="52.411" cy="50.838" r="6.292"/>
						<circle opacity="0.9801" fill="#C6C8CA" enable-background="new    " cx="52.415" cy="50.841" r="6.292"/>
						<circle opacity="0.9751" fill="#C6C8CA" enable-background="new    " cx="52.418" cy="50.845" r="6.292"/>
						<circle opacity="0.9702" fill="#C7C9CB" enable-background="new    " cx="52.421" cy="50.848" r="6.292"/>
						<circle opacity="0.9652" fill="#C7C9CB" enable-background="new    " cx="52.424" cy="50.852" r="6.292"/>
						<circle opacity="0.9602" fill="#C7C9CB" enable-background="new    " cx="52.426" cy="50.855" r="6.292"/>
						<circle opacity="0.9552" fill="#C8CACB" enable-background="new    " cx="52.43" cy="50.859" r="6.292"/>
						<circle opacity="0.9502" fill="#C8CACC" enable-background="new    " cx="52.432" cy="50.863" r="6.292"/>
						<circle opacity="0.9453" fill="#C8CACC" enable-background="new    " cx="52.436" cy="50.866" r="6.292"/>
						<circle opacity="0.9403" fill="#C8CACC" enable-background="new    " cx="52.438" cy="50.87" r="6.292"/>
						<circle opacity="0.9353" fill="#C9CBCC" enable-background="new    " cx="52.441" cy="50.874" r="6.292"/>
						<circle opacity="0.9303" fill="#C9CBCD" enable-background="new    " cx="52.443" cy="50.877" r="6.292"/>
						<circle opacity="0.9254" fill="#C9CBCD" enable-background="new    " cx="52.447" cy="50.881" r="6.292"/>
						<circle opacity="0.9204" fill="#CACBCD" enable-background="new    " cx="52.45" cy="50.885" r="6.292"/>
						<circle opacity="0.9154" fill="#CACCCE" enable-background="new    " cx="52.453" cy="50.888" r="6.292"/>
						<circle opacity="0.9104" fill="#CACCCE" enable-background="new    " cx="52.457" cy="50.892" r="6.292"/>
						<circle opacity="0.9055" fill="#CACCCE" enable-background="new    " cx="52.46" cy="50.895" r="6.292"/>
						<circle opacity="0.9005" fill="#CBCDCE" enable-background="new    " cx="52.462" cy="50.899" r="6.292"/>
						<circle opacity="0.8955" fill="#CBCDCF" enable-background="new    " cx="52.466" cy="50.903" r="6.292"/>
						<circle opacity="0.8905" fill="#CBCDCF" enable-background="new    " cx="52.469" cy="50.907" r="6.292"/>
						<circle opacity="0.8856" fill="#CCCDCF" enable-background="new    " cx="52.471" cy="50.91" r="6.292"/>
						<circle opacity="0.8806" fill="#CCCECF" enable-background="new    " cx="52.475" cy="50.913" r="6.292"/>
						<circle opacity="0.8756" fill="#CCCED0" enable-background="new    " cx="52.479" cy="50.917" r="6.292"/>
						<circle opacity="0.8706" fill="#CDCED0" enable-background="new    " cx="52.48" cy="50.921" r="6.292"/>
						<circle opacity="0.8657" fill="#CDCFD0" enable-background="new    " cx="52.482" cy="50.924" r="6.292"/>
						<circle opacity="0.8607" fill="#CDCFD1" enable-background="new    " cx="52.486" cy="50.928" r="6.292"/>
						<circle opacity="0.8557" fill="#CDCFD1" enable-background="new    " cx="52.489" cy="50.932" r="6.292"/>
						<circle opacity="0.8507" fill="#CECFD1" enable-background="new    " cx="52.492" cy="50.936" r="6.292"/>
						<circle opacity="0.8458" fill="#CED0D1" enable-background="new    " cx="52.496" cy="50.939" r="6.292"/>
						<circle opacity="0.8408" fill="#CED0D2" enable-background="new    " cx="52.498" cy="50.943" r="6.293"/>
						<circle opacity="0.8358" fill="#CFD0D2" enable-background="new    " cx="52.501" cy="50.946" r="6.292"/>
						<circle opacity="0.8308" fill="#CFD0D2" enable-background="new    " cx="52.505" cy="50.95" r="6.292"/>
						<circle opacity="0.8259" fill="#CFD1D2" enable-background="new    " cx="52.508" cy="50.954" r="6.292"/>
						<circle opacity="0.8209" fill="#CFD1D3" enable-background="new    " cx="52.51" cy="50.957" r="6.292"/>
						<circle opacity="0.8159" fill="#D0D1D3" enable-background="new    " cx="52.514" cy="50.961" r="6.292"/>
						<circle opacity="0.8109" fill="#D0D2D3" enable-background="new    " cx="52.518" cy="50.964" r="6.292"/>
						<circle opacity="0.806" fill="#D0D2D3" enable-background="new    " cx="52.52" cy="50.968" r="6.292"/>
						<circle opacity="0.801" fill="#D1D2D4" enable-background="new    " cx="52.521" cy="50.971" r="6.292"/>
						<circle opacity="0.796" fill="#D1D2D4" enable-background="new    " cx="52.525" cy="50.975" r="6.292"/>
						<circle opacity="0.791" fill="#D1D3D4" enable-background="new    " cx="52.527" cy="50.979" r="6.292"/>
						<circle opacity="0.7861" fill="#D1D3D5" enable-background="new    " cx="52.531" cy="50.982" r="6.292"/>
						<circle opacity="0.7811" fill="#D2D3D5" enable-background="new    " cx="52.534" cy="50.986" r="6.292"/>
						<circle opacity="0.7761" fill="#D2D4D5" enable-background="new    " cx="52.538" cy="50.99" r="6.292"/>
						<circle opacity="0.7711" fill="#D2D4D5" enable-background="new    " cx="52.541" cy="50.993" r="6.292"/>
						<circle opacity="0.7662" fill="#D3D4D6" enable-background="new    " cx="52.543" cy="50.997" r="6.292"/>
						<circle opacity="0.7612" fill="#D3D4D6" enable-background="new    " cx="52.546" cy="51" r="6.292"/>
						<circle opacity="0.7562" fill="#D3D5D6" enable-background="new    " cx="52.549" cy="51.004" r="6.292"/>
						<circle opacity="0.7512" fill="#D3D5D6" enable-background="new    " cx="52.553" cy="51.008" r="6.292"/>
						<circle opacity="0.7463" fill="#D4D5D7" enable-background="new    " cx="52.557" cy="51.011" r="6.292"/>
						<circle opacity="0.7413" fill="#D4D5D7" enable-background="new    " cx="52.559" cy="51.015" r="6.292"/>
						<circle opacity="0.7363" fill="#D4D6D7" enable-background="new    " cx="52.563" cy="51.019" r="6.292"/>
						<circle opacity="0.7313" fill="#D5D6D8" enable-background="new    " cx="52.564" cy="51.022" r="6.293"/>
						<circle opacity="0.7264" fill="#D5D6D8" enable-background="new    " cx="52.566" cy="51.026" r="6.292"/>
						<circle opacity="0.7214" fill="#D5D7D8" enable-background="new    " cx="52.57" cy="51.029" r="6.292"/>
						<circle opacity="0.7164" fill="#D5D7D8" enable-background="new    " cx="52.573" cy="51.033" r="6.292"/>
						<circle opacity="0.7114" fill="#D6D7D9" enable-background="new    " cx="52.577" cy="51.037" r="6.292"/>
						<circle opacity="0.7065" fill="#D6D7D9" enable-background="new    " cx="52.579" cy="51.041" r="6.292"/>
						<circle opacity="0.7015" fill="#D6D8D9" enable-background="new    " cx="52.582" cy="51.043" r="6.292"/>
						<circle opacity="0.6965" fill="#D7D8D9" enable-background="new    " cx="52.586" cy="51.047" r="6.292"/>
						<circle opacity="0.6915" fill="#D7D8DA" enable-background="new    " cx="52.589" cy="51.051" r="6.292"/>
						<circle opacity="0.6866" fill="#D7D9DA" enable-background="new    " cx="52.592" cy="51.055" r="6.293"/>
						<circle opacity="0.6816" fill="#D7D9DA" enable-background="new    " cx="52.594" cy="51.058" r="6.292"/>
						<circle opacity="0.6766" fill="#D8D9DA" enable-background="new    " cx="52.598" cy="51.062" r="6.292"/>
						<circle opacity="0.6716" fill="#D8D9DB" enable-background="new    " cx="52.602" cy="51.066" r="6.292"/>
						<circle opacity="0.6667" fill="#D8DADB" enable-background="new    " cx="52.604" cy="51.069" r="6.293"/>
						<circle opacity="0.6617" fill="#D9DADB" enable-background="new    " cx="52.605" cy="51.073" r="6.292"/>
						<circle opacity="0.6567" fill="#D9DADC" enable-background="new    " cx="52.609" cy="51.076" r="6.292"/>
						<circle opacity="0.6517" fill="#D9DBDC" enable-background="new    " cx="52.613" cy="51.081" r="6.292"/>
						<circle opacity="0.6468" fill="#D9DBDC" enable-background="new    " cx="52.615" cy="51.083" r="6.292"/>
						<circle opacity="0.6418" fill="#DADBDC" enable-background="new    " cx="52.618" cy="51.087" r="6.293"/>
						<circle opacity="0.6368" fill="#DADBDD" enable-background="new    " cx="52.621" cy="51.091" r="6.292"/>
						<circle opacity="0.6318" fill="#DADCDD" enable-background="new    " cx="52.625" cy="51.095" r="6.292"/>
						<circle opacity="0.6269" fill="#DBDCDD" enable-background="new    " cx="52.628" cy="51.098" r="6.292"/>
						<circle opacity="0.6219" fill="#DBDCDD" enable-background="new    " cx="52.63" cy="51.102" r="6.292"/>
						<circle opacity="0.6169" fill="#DBDCDE" enable-background="new    " cx="52.634" cy="51.105" r="6.293"/>
						<circle opacity="0.6119" fill="#DCDDDE" enable-background="new    " cx="52.637" cy="51.109" r="6.292"/>
						<circle opacity="0.607" fill="#DCDDDE" enable-background="new    " cx="52.641" cy="51.113" r="6.292"/>
						<circle opacity="0.602" fill="#DCDDDE" enable-background="new    " cx="52.643" cy="51.116" r="6.292"/>
						<circle opacity="0.597" fill="#DCDEDF" enable-background="new    " cx="52.646" cy="51.12" r="6.293"/>
						<circle opacity="0.592" fill="#DDDEDF" enable-background="new    " cx="52.648" cy="51.124" r="6.292"/>
						<circle opacity="0.5871" fill="#DDDEDF" enable-background="new    " cx="52.65" cy="51.127" r="6.292"/>
						<circle opacity="0.5821" fill="#DDDEE0" enable-background="new    " cx="52.654" cy="51.13" r="6.292"/>
						<circle opacity="0.5771" fill="#DEDFE0" enable-background="new    " cx="52.658" cy="51.134" r="6.292"/>
						<circle opacity="0.5721" fill="#DEDFE0" enable-background="new    " cx="52.661" cy="51.138" r="6.292"/>
						<circle opacity="0.5672" fill="#DEDFE0" enable-background="new    " cx="52.664" cy="51.141" r="6.292"/>
						<circle opacity="0.5622" fill="#DEE0E1" enable-background="new    " cx="52.666" cy="51.145" r="6.292"/>
						<circle opacity="0.5572" fill="#DFE0E1" enable-background="new    " cx="52.67" cy="51.149" r="6.292"/>
						<circle opacity="0.5522" fill="#DFE0E1" enable-background="new    " cx="52.673" cy="51.153" r="6.292"/>
						<circle opacity="0.5473" fill="#DFE0E1" enable-background="new    " cx="52.676" cy="51.156" r="6.292"/>
						<circle opacity="0.5423" fill="#E0E1E2" enable-background="new    " cx="52.678" cy="51.16" r="6.292"/>
						<circle opacity="0.5373" fill="#E0E1E2" enable-background="new    " cx="52.682" cy="51.163" r="6.293"/>
						<circle opacity="0.5323" fill="#E0E1E2" enable-background="new    " cx="52.686" cy="51.167" r="6.293"/>
						<circle opacity="0.5274" fill="#E0E1E3" enable-background="new    " cx="52.688" cy="51.17" r="6.292"/>
						<circle opacity="0.5224" fill="#E1E2E3" enable-background="new    " cx="52.689" cy="51.174" r="6.292"/>
						<circle opacity="0.5174" fill="#E1E2E3" enable-background="new    " cx="52.693" cy="51.178" r="6.292"/>
						<circle opacity="0.5124" fill="#E1E2E3" enable-background="new    " cx="52.697" cy="51.182" r="6.292"/>
						<circle opacity="0.5075" fill="#E2E3E4" enable-background="new    " cx="52.699" cy="51.185" r="6.292"/>
						<circle opacity="0.5025" fill="#E2E3E4" enable-background="new    " cx="52.703" cy="51.188" r="6.293"/>
						<circle opacity="0.4975" fill="#E2E3E4" enable-background="new    " cx="52.705" cy="51.192" r="6.292"/>
						<circle opacity="0.4925" fill="#E2E3E4" enable-background="new    " cx="52.709" cy="51.196" r="6.292"/>
						<circle opacity="0.4876" fill="#E3E4E5" enable-background="new    " cx="52.711" cy="51.2" r="6.292"/>
						<circle opacity="0.4826" fill="#E3E4E5" enable-background="new    " cx="52.715" cy="51.203" r="6.292"/>
						<circle opacity="0.4776" fill="#E3E4E5" enable-background="new    " cx="52.718" cy="51.207" r="6.292"/>
						<circle opacity="0.4726" fill="#E4E5E5" enable-background="new    " cx="52.721" cy="51.21" r="6.292"/>
						<circle opacity="0.4677" fill="#E4E5E6" enable-background="new    " cx="52.725" cy="51.214" r="6.292"/>
						<circle opacity="0.4627" fill="#E4E5E6" enable-background="new    " cx="52.727" cy="51.217" r="6.292"/>
						<circle opacity="0.4577" fill="#E4E5E6" enable-background="new    " cx="52.73" cy="51.221" r="6.292"/>
						<circle opacity="0.4527" fill="#E5E6E7" enable-background="new    " cx="52.732" cy="51.225" r="6.292"/>
						<circle opacity="0.4478" fill="#E5E6E7" enable-background="new    " cx="52.736" cy="51.228" r="6.293"/>
						<circle opacity="0.4428" fill="#E5E6E7" enable-background="new    " cx="52.738" cy="51.232" r="6.292"/>
						<circle opacity="0.4378" fill="#E6E6E7" enable-background="new    " cx="52.742" cy="51.236" r="6.292"/>
						<circle opacity="0.4328" fill="#E6E7E8" enable-background="new    " cx="52.744" cy="51.24" r="6.292"/>
						<circle opacity="0.4279" fill="#E6E7E8" enable-background="new    " cx="52.748" cy="51.243" r="6.292"/>
						<circle opacity="0.4229" fill="#E6E7E8" enable-background="new    " cx="52.751" cy="51.247" r="6.292"/>
						<circle opacity="0.4179" fill="#E7E8E8" enable-background="new    " cx="52.754" cy="51.25" r="6.292"/>
						<circle opacity="0.4129" fill="#E7E8E9" enable-background="new    " cx="52.757" cy="51.253" r="6.292"/>
						<circle opacity="0.408" fill="#E7E8E9" enable-background="new    " cx="52.76" cy="51.257" r="6.292"/>
						<circle opacity="0.403" fill="#E8E8E9" enable-background="new    " cx="52.764" cy="51.261" r="6.292"/>
						<circle opacity="0.398" fill="#E8E9EA" enable-background="new    " cx="52.766" cy="51.264" r="6.293"/>
						<circle opacity="0.393" fill="#E8E9EA" enable-background="new    " cx="52.77" cy="51.268" r="6.292"/>
						<circle opacity="0.3881" fill="#E8E9EA" enable-background="new    " cx="52.771" cy="51.272" r="6.292"/>
						<circle opacity="0.3831" fill="#E9EAEA" enable-background="new    " cx="52.775" cy="51.276" r="6.292"/>
						<circle opacity="0.3781" fill="#E9EAEB" enable-background="new    " cx="52.777" cy="51.279" r="6.293"/>
						<circle opacity="0.3731" fill="#E9EAEB" enable-background="new    " cx="52.781" cy="51.283" r="6.292"/>
						<circle opacity="0.3682" fill="#EAEAEB" enable-background="new    " cx="52.783" cy="51.287" r="6.292"/>
						<circle opacity="0.3632" fill="#EAEBEB" enable-background="new    " cx="52.787" cy="51.29" r="6.292"/>
						<circle opacity="0.3582" fill="#EAEBEC" enable-background="new    " cx="52.79" cy="51.293" r="6.292"/>
						<circle opacity="0.3532" fill="#EBEBEC" enable-background="new    " cx="52.793" cy="51.297" r="6.292"/>
						<circle opacity="0.3483" fill="#EBEBEC" enable-background="new    " cx="52.796" cy="51.301" r="6.293"/>
						<circle opacity="0.3433" fill="#EBECEC" enable-background="new    " cx="52.799" cy="51.304" r="6.292"/>
						<circle opacity="0.3383" fill="#EBECED" enable-background="new    " cx="52.802" cy="51.308" r="6.292"/>
						<circle opacity="0.3333" fill="#ECECED" enable-background="new    " cx="52.805" cy="51.312" r="6.292"/>
						<circle opacity="0.3284" fill="#ECEDED" enable-background="new    " cx="52.809" cy="51.315" r="6.292"/>
						<circle opacity="0.3234" fill="#ECEDEE" enable-background="new    " cx="52.811" cy="51.319" r="6.292"/>
						<circle opacity="0.3184" fill="#EDEDEE" enable-background="new    " cx="52.813" cy="51.323" r="6.292"/>
						<circle opacity="0.3134" fill="#EDEDEE" enable-background="new    " cx="52.816" cy="51.326" r="6.293"/>
						<circle opacity="0.3085" fill="#EDEEEE" enable-background="new    " cx="52.82" cy="51.33" r="6.292"/>
						<circle opacity="0.3035" fill="#EDEEEF" enable-background="new    " cx="52.822" cy="51.333" r="6.292"/>
						<circle opacity="0.2985" fill="#EEEEEF" enable-background="new    " cx="52.826" cy="51.337" r="6.293"/>
						<circle opacity="0.2935" fill="#EEEFEF" enable-background="new    " cx="52.828" cy="51.341" r="6.292"/>
						<circle opacity="0.2886" fill="#EEEFEF" enable-background="new    " cx="52.832" cy="51.344" r="6.292"/>
						<circle opacity="0.2836" fill="#EFEFF0" enable-background="new    " cx="52.835" cy="51.348" r="6.292"/>
						<circle opacity="0.2786" fill="#EFEFF0" enable-background="new    " cx="52.838" cy="51.352" r="6.292"/>
						<circle opacity="0.2736" fill="#EFF0F0" enable-background="new    " cx="52.841" cy="51.355" r="6.292"/>
						<circle opacity="0.2687" fill="#EFF0F0" enable-background="new    " cx="52.844" cy="51.359" r="6.292"/>
						<circle opacity="0.2637" fill="#F0F0F1" enable-background="new    " cx="52.848" cy="51.362" r="6.292"/>
						<circle opacity="0.2587" fill="#F0F1F1" enable-background="new    " cx="52.85" cy="51.366" r="6.293"/>
						<circle opacity="0.2537" fill="#F0F1F1" enable-background="new    " cx="52.854" cy="51.37" r="6.292"/>
						<circle opacity="0.2488" fill="#F1F1F2" enable-background="new    " cx="52.855" cy="51.373" r="6.293"/>
						<circle opacity="0.2438" fill="#F1F1F2" enable-background="new    " cx="52.857" cy="51.377" r="6.292"/>
						<circle opacity="0.2388" fill="#F1F2F2" enable-background="new    " cx="52.861" cy="51.38" r="6.292"/>
						<circle opacity="0.2338" fill="#F1F2F2" enable-background="new    " cx="52.865" cy="51.384" r="6.293"/>
						<circle opacity="0.2289" fill="#F2F2F3" enable-background="new    " cx="52.867" cy="51.388" r="6.292"/>
						<circle opacity="0.2239" fill="#F2F2F3" enable-background="new    " cx="52.871" cy="51.391" r="6.292"/>
						<circle opacity="0.2189" fill="#F2F3F3" enable-background="new    " cx="52.873" cy="51.395" r="6.292"/>
						<circle opacity="0.2139" fill="#F3F3F3" enable-background="new    " cx="52.877" cy="51.398" r="6.292"/>
						<circle opacity="0.209" fill="#F3F3F4" enable-background="new    " cx="52.88" cy="51.402" r="6.293"/>
						<circle opacity="0.204" fill="#F3F4F4" enable-background="new    " cx="52.883" cy="51.406" r="6.292"/>
						<circle opacity="0.199" fill="#F3F4F4" enable-background="new    " cx="52.886" cy="51.409" r="6.293"/>
						<circle opacity="0.194" fill="#F4F4F5" enable-background="new    " cx="52.889" cy="51.413" r="6.292"/>
						<circle opacity="0.1891" fill="#F4F4F5" enable-background="new    " cx="52.893" cy="51.417" r="6.292"/>
						<circle opacity="0.1841" fill="#F4F5F5" enable-background="new    " cx="52.895" cy="51.42" r="6.293"/>
						<circle opacity="0.1791" fill="#F5F5F5" enable-background="new    " cx="52.896" cy="51.424" r="6.293"/>
						<circle opacity="0.1741" fill="#F5F5F6" enable-background="new    " cx="52.9" cy="51.427" r="6.292"/>
						<circle opacity="0.1692" fill="#F5F6F6" enable-background="new    " cx="52.904" cy="51.431" r="6.292"/>
						<circle opacity="0.1642" fill="#F5F6F6" enable-background="new    " cx="52.906" cy="51.435" r="6.292"/>
						<circle opacity="0.1592" fill="#F6F6F6" enable-background="new    " cx="52.909" cy="51.438" r="6.293"/>
						<circle opacity="0.1542" fill="#F6F6F7" enable-background="new    " cx="52.913" cy="51.442" r="6.292"/>
						<circle opacity="0.1493" fill="#F6F7F7" enable-background="new    " cx="52.916" cy="51.446" r="6.292"/>
						<circle opacity="0.1443" fill="#F7F7F7" enable-background="new    " cx="52.919" cy="51.449" r="6.292"/>
						<circle opacity="0.1393" fill="#F7F7F7" enable-background="new    " cx="52.922" cy="51.453" r="6.293"/>
						<circle opacity="0.1343" fill="#F7F7F8" enable-background="new    " cx="52.925" cy="51.457" r="6.292"/>
						<circle opacity="0.1294" fill="#F7F8F8" enable-background="new    " cx="52.928" cy="51.46" r="6.292"/>
						<circle opacity="0.1244" fill="#F8F8F8" enable-background="new    " cx="52.932" cy="51.463" r="6.292"/>
						<circle opacity="0.1194" fill="#F8F8F9" enable-background="new    " cx="52.934" cy="51.468" r="6.292"/>
						<circle opacity="0.1144" fill="#F8F9F9" enable-background="new    " cx="52.938" cy="51.471" r="6.292"/>
						<circle opacity="0.1095" fill="#F9F9F9" enable-background="new    " cx="52.939" cy="51.475" r="6.292"/>
						<circle opacity="0.1045" fill="#F9F9F9" enable-background="new    " cx="52.943" cy="51.478" r="6.292"/>
						<circle opacity="0.0995" fill="#F9F9FA" enable-background="new    " cx="52.945" cy="51.482" r="6.292"/>
						<circle opacity="0.0945" fill="#FAFAFA" enable-background="new    " cx="52.948" cy="51.485" r="6.292"/>
						<circle opacity="0.0896" fill="#FAFAFA" enable-background="new    " cx="52.952" cy="51.489" r="6.292"/>
						<circle opacity="0.0846" fill="#FAFAFA" enable-background="new    " cx="52.955" cy="51.493" r="6.292"/>
						<circle opacity="0.0796" fill="#FAFBFB" enable-background="new    " cx="52.958" cy="51.496" r="6.292"/>
						<circle opacity="0.0746" fill="#FBFBFB" enable-background="new    " cx="52.96" cy="51.5" r="6.292"/>
						<circle opacity="0.0697" fill="#FBFBFB" enable-background="new    " cx="52.964" cy="51.503" r="6.292"/>
						<circle opacity="0.0647" fill="#FBFBFC" enable-background="new    " cx="52.967" cy="51.507" r="6.292"/>
						<circle opacity="0.0597" fill="#FCFCFC" enable-background="new    " cx="52.97" cy="51.511" r="6.293"/>
						<circle opacity="0.0547" fill="#FCFCFC" enable-background="new    " cx="52.973" cy="51.514" r="6.292"/>
						<circle opacity="0.0498" fill="#FCFCFC" enable-background="new    " cx="52.977" cy="51.518" r="6.292"/>
						<circle opacity="0.0448" fill="#FCFCFD" enable-background="new    " cx="52.979" cy="51.521" r="6.292"/>
						<circle opacity="0.0398" fill="#FDFDFD" enable-background="new    " cx="52.982" cy="51.525" r="6.292"/>
						<circle opacity="0.0348" fill="#FDFDFD" enable-background="new    " cx="52.984" cy="51.529" r="6.292"/>
						<circle opacity="0.0299" fill="#FDFDFD" enable-background="new    " cx="52.986" cy="51.532" r="6.292"/>
						<circle opacity="0.0249" fill="#FEFEFE" enable-background="new    " cx="52.99" cy="51.536" r="6.292"/>
						<circle opacity="0.0199" fill="#FEFEFE" enable-background="new    " cx="52.994" cy="51.54" r="6.293"/>
						<circle opacity="0.0149" fill="#FEFEFE" enable-background="new    " cx="52.997" cy="51.543" r="6.292"/>
						<circle opacity="0.01" fill="#FEFEFE" enable-background="new    " cx="52.999" cy="51.547" r="6.292"/>
						<circle opacity="0.005" fill="#FFFFFF" enable-background="new    " cx="53.003" cy="51.551" r="6.292"/>
						<circle fill="#FFFFFF" fill-opacity="0" cx="53.007" cy="51.555" r="6.292"/>
					</g>
				</g>
			</g>
		</g>
		<g>
			<path fill="#231F20" d="M86.816,44.489c0-0.208-0.144-0.32-0.394-0.32H86.09v1.039h0.248v-0.403l0.291,0.403h0.303l-0.342-0.429
				C86.736,44.74,86.816,44.634,86.816,44.489z M86.381,44.631h-0.043V44.36h0.045c0.123,0,0.188,0.044,0.188,0.133
				C86.57,44.585,86.504,44.631,86.381,44.631z"/>
			<path fill="#231F20" d="M86.475,43.78c-0.506,0-0.906,0.403-0.906,0.906s0.404,0.907,0.906,0.907c0.49,0,0.896-0.408,0.896-0.907
				C87.369,44.19,86.965,43.78,86.475,43.78z M86.471,45.431c-0.396,0-0.723-0.331-0.723-0.743c0-0.414,0.32-0.744,0.723-0.744
				c0.396,0,0.717,0.338,0.717,0.744C87.188,45.097,86.865,45.431,86.471,45.431z"/>
		</g>
	</g>
	<path fill="#F48120" d="M100,95V63.539c-11.1,6.807-44.496,25.145-97.246,35.9C3.433,99.786,4.189,100,5,100h90
		C97.75,100,100,97.75,100,95z"/>
</g>
</svg>
