<?xml version="1.0" encoding="utf-8"?>
<!-- Generator: Adobe Illustrator 22.0.1, SVG Export Plug-In . SVG Version: 6.00 Build 0)  -->
<svg version="1.1" id="Calque_1" xmlns="http://www.w3.org/2000/svg" xmlns:xlink="http://www.w3.org/1999/xlink" x="0px" y="0px"
	 viewBox="0 0 940 267" style="enable-background:new 0 0 940 267;" xml:space="preserve">
<style type="text/css">
	.st0{fill:#162056;}
	.st1{fill:#D52B1E;}
</style>
<g>
	<polygon class="st0" points="263.5,67.8 286.2,67.8 286.2,128.2 299.7,128.2 299.7,67.8 321,67.8 322.6,56.1 263.5,56.1 	"/>
	<rect x="326.4" y="56.1" class="st0" width="12.7" height="11.1"/>
	<rect x="326.4" y="74.2" class="st0" width="12.7" height="54"/>
	<path class="st0" d="M373.4,84.2c4.3,0,7.8,1.7,9.5,2.8l0.7,0.5l4.3-10.2l-0.6-0.3c-4.8-2.4-9.6-3.6-15.2-3.6
		c-16.7,0-28,11.2-28,27.9c0,16.7,11.2,28,27.8,28c4.3,0,8.6-0.8,11.9-2.4l0.4-0.2l1-11.8l-1.3,0.8c-2.8,1.7-6.2,2.6-9.8,2.7l-0.4,0
		c-10.1,0-16.3-6.5-16.3-17.1C357.3,91,363.8,84.2,373.4,84.2z"/>
	<path class="st0" d="M432,114.8l-2.8-8.8c-2.3-6.6-4.6-9.5-11.6-9.5h0L436,74.2h-14.4L404.1,96h-0.8V56.1h-12.7v72.1h12.7v-22.8
		h8.3c3.8,0,4.8,1.4,6.3,5.7l2.7,8.3c1.3,4,3,7.7,3.3,8.4l0.2,0.4h14.4l-0.8-1.2C435.8,124.3,433.5,118.9,432,114.8z"/>
	<path class="st0" d="M463.7,73.3c-16.3,0-28.2,11.5-28.2,27.5c0,17,11.8,28.4,29.3,28.4c5.2,0,9.9-0.9,13.4-2.5l0.4-0.2l0.8-11.2
		l-1.2,0.7c-3.3,1.9-6.9,2.8-11.3,2.8c-7.8,0-16.5-3.8-17.8-14.4h42l0-0.7c0.1-9.7-2.7-17.6-8-23C478.4,75.8,471.7,73.3,463.7,73.3z
		 M477.5,94.6h-28.3c1.9-7.1,7.3-11.3,14.6-11.3C471.3,83.3,476.2,87.4,477.5,94.6z"/>
	<path class="st0" d="M517.6,127.1c-0.2-0.3-0.5-0.7-0.8-1.1c-3.2-4.6-9.3-13.2-9.3-25.1V85h9l1.9-10.3h-10.8V55.9l-12.7,5v39.8
		c0,13.2,5.4,21.5,8.3,25.9c0.3,0.5,0.6,0.9,0.8,1.3l0.2,0.4h14.2L517.6,127.1z"/>
</g>
<g>
	<path class="st0" d="M64.2,150.1l2.1-11.5H16.1v55.5c0,10.6,5.9,16.7,16.3,16.7h31.2l2.1-11.5H35.5c-3,0-5.9-0.9-5.9-7.2v-11.9
		h29.3l2-11.1H29.6v-19H64.2z"/>
	<path class="st0" d="M96.8,200.7l-0.4,0c-10.1,0-16.3-6.5-16.3-17.1c0-10.1,6.5-17,16.1-17c4.3,0,7.8,1.7,9.5,2.8l0.7,0.5l4.3-10.2
		l-0.6-0.3c-4.8-2.4-9.6-3.6-15.2-3.6c-16.7,0-28,11.2-28,27.9c0,16.7,11.2,28,27.8,28c4.3,0,8.6-0.8,11.9-2.4l0.4-0.2l1-11.8
		l-1.3,0.8C103.8,199.7,100.4,200.7,96.8,200.7z"/>
	<path class="st0" d="M140,155.8l-0.2,0c-14.5,0-29.2,9.6-29.2,28c0,16.7,11.8,27.9,29.5,27.9c17.6,0,29.5-11.2,29.5-27.9
		C169.3,167.2,157.5,155.9,140,155.8z M151.8,195.9c-2.9,2.9-7.1,4.6-11.8,4.6c-9.7,0-16.3-6.7-16.3-16.7c0-9.7,6.8-16.8,16-16.8
		l0.2,0c9.6,0,16.2,6.7,16.3,16.8C156.3,188.7,154.7,192.9,151.8,195.9z"/>
	<path class="st0" d="M211.9,149.5c5.9,0,10.5,1.8,13.2,3.3l0.7,0.4l5.6-10.7l-0.7-0.4c-5.6-3-12.7-4.7-20-4.7
		c-22.6,0-37.9,14.9-38,37.1c-0.1,10.8,3.3,20.1,10,26.8c6.8,6.8,16.7,10.6,28,10.6c7.7,0,13.3-2,16-3.2l0.4-0.2l1.3-13l-1.2,0.6
		c-3.5,1.8-7.9,3.7-14.4,3.7c-15.3,0-25.3-10-25.3-25.4C187.6,159.4,197.2,149.5,211.9,149.5z"/>
	<path class="st0" d="M261.7,155.8c-4.3,0-10.2,1-14.6,5.4v-22.6h-12.6v72.1h12.6v-31.9c0-7.7,4.7-12.2,12.5-12.2
		c7.4,0,11.1,4.2,11.1,12.8v31.4h12.6V178C283.2,163.7,275.6,155.8,261.7,155.8z"/>
	<path class="st0" d="M316.4,155.8c-16.3,0-28.2,11.5-28.2,27.5c0,17,11.8,28.4,29.3,28.4c5.2,0,9.9-0.9,13.4-2.5l0.4-0.2l0.8-11.3
		l-1.2,0.7c-3.3,1.9-6.9,2.8-11.3,2.8c-7.8,0-16.5-3.8-17.8-14.4h42l0-0.7c0.1-9.7-2.7-17.6-8-23
		C331.1,158.4,324.4,155.8,316.4,155.8z M330.2,177.1h-28.3c1.9-7.1,7.3-11.3,14.6-11.3C324,165.8,328.9,169.9,330.2,177.1z"/>
	<path class="st0" d="M374.8,155.8c-16.9,0-29.3,11.8-29.3,28.1c0,16.1,11.4,27.8,27.2,27.8c7.7,0,14.4-2.7,18.8-7.5v24.7H404v-45.1
		C404,167.1,392.3,155.8,374.8,155.8z M374.9,200.4c-9.7,0-16.3-6.7-16.3-16.7c0-9.7,6.8-16.8,16.3-16.8c9.8,0,16.4,6.7,16.4,16.8
		C391.2,193.8,384.7,200.4,374.9,200.4z"/>
	<path class="st0" d="M447.9,187.7c0,8.3-4.1,12.8-11.8,12.8s-11.8-4.4-11.8-12.8v-31h-12.6v32.8c0,13.9,9.1,22.2,24.4,22.2
		c15.2,0,24.4-8.3,24.4-22.2v-32.8h-12.6V187.7z"/>
	<path class="st0" d="M521.1,186.1c0.1-9.7-2.7-17.6-8-23c-4.7-4.8-11.5-7.3-19.4-7.3c-16.3,0-28.2,11.5-28.2,27.5
		c0,17,11.8,28.4,29.3,28.4c5.2,0,9.9-0.9,13.4-2.5l0.4-0.2l0.8-11.3l-1.2,0.7c-3.3,1.9-6.9,2.8-11.3,2.8c-7.8,0-16.5-3.8-17.8-14.4
		h42L521.1,186.1z M507.5,177.1h-28.3c1.9-7.1,7.3-11.3,14.6-11.3C501.3,165.8,506.2,169.9,507.5,177.1z"/>
</g>
<g>
	<g>
		<path class="st1" d="M688.5,118c-6.7,0-11,4.4-12.4,10.2h24C699.3,121.8,694.8,118,688.5,118z"/>
		<path class="st1" d="M624.4,120.6c-8.6,0-14,5.9-14,14.2c0,8.2,5.5,14.3,14,14.3c8.5,0,14.2-5.8,14.2-14.3
			C638.6,126.3,632.8,120.6,624.4,120.6z"/>
		<path class="st1" d="M797.6,107c-12.9,0-22.9,5.1-24.6,18.5c-0.1,0,0.1,0,0,0c-4-60.5-51.8-108.4-113.4-108.4
			c-48.7,0-90.3,29.9-107.6,72.3h41.2l-2.1,13.9h-32.4V118H588l-2.2,13.4h-27.1v8.6c0,5.2,2.2,7.7,6.5,7.7h27.7l-2.2,13.9H560
			c-1.5,0-2.9-0.1-4.3-0.4v0c0,0-5.3-0.6-8.6-4.8c-0.1-0.1-1.4-1.7-2.1-4.3c-0.2-0.7-0.2-0.7-0.3-1.3c0.2,1.7,0.6,4,0.8,4.9
			c0.9,4.8,2.1,8.9,2.2,9.2c13.8,48.8,58.6,84.6,111.8,84.6c54.5,0,100.5-37.5,113.1-88H757v-28.4c0-7.7-3-12.6-10.5-12.6
			s-10.5,4.9-10.5,12.6v28.4h-15.6v-32.3c0-15.4,11.2-22.3,26.1-22.3c14.9,0,26.1,6.8,26.1,22.3l0,32.3h15.7v-28.4
			c0-7.7,2-12.6,9.5-12.6c2.3,0,5.2,0.7,6.2,1.2l3-13.7C805.3,107.9,800.9,107,797.6,107z M654.3,131.6c0,19.5-11.5,30.9-30.6,30.9
			c-17.7,0-29.6-11.8-29.6-27.8c0-16.6,11.3-27.8,28.3-27.8c7.8,0,13.5,3.1,16.3,6.1V89.4h15.6V131.6z M693.7,150.8
			c4.6,0,8.9-1.3,12.8-3.2l-1.3,12.4c-4.5,1.8-9.9,2.6-15.3,2.6c-18,0-30.6-10.5-30.6-28.4c0-15.5,11.3-27.2,28.7-27.2
			c19.6,0,29.4,12.5,29,31.7h-40.4C678.1,147.4,686.5,150.8,693.7,150.8z"/>
		<path class="st1" d="M833,107c-17.4,0-28.7,11.6-28.7,27.2c0,17.9,12.7,28.4,30.6,28.4c5.4,0,10.8-0.7,15.3-2.6l1.3-12.4
			c-4,1.8-8.2,3.2-12.8,3.2c-7.3,0-15.6-3.4-17.2-12.2H862C862.4,119.4,852.6,107,833,107z M821.2,128.2c1.3-5.8,5.6-10.2,12.4-10.2
			c6.3,0,10.8,3.8,11.6,10.2H821.2z"/>
		<path class="st1" d="M908.4,89.4v23.7c-2.9-3.1-8.6-6.1-16.3-6.1c-17,0-28.3,11.1-28.3,27.8c0,15.9,11.9,27.8,29.6,27.8
			c19.1,0,30.6-11.4,30.6-30.9V89.4H908.4z M894.1,149.1c-8.5,0-14-6.1-14-14.3c0-8.3,5.4-14.2,14-14.2c8.5,0,14.2,5.7,14.2,14.2
			S902.6,149.1,894.1,149.1z"/>
	</g>
</g>
</svg>
