<svg id="Warstwa_1" xmlns="http://www.w3.org/2000/svg" xmlns:xlink="http://www.w3.org/1999/xlink" viewBox="0 0 393 246"><style>.st0{clip-path:url(#SVGID_2_);fill:#E60A14;}</style><defs><path id="SVGID_1_" d="M5 6h381.8v234H5z"/></defs><clipPath id="SVGID_2_"><use xlink:href="#SVGID_1_" overflow="visible"/></clipPath><path class="st0" d="M149.7 107.6c-6.8 0-11.1 4.4-12.4 10.3h24.2c-.9-6.5-5.4-10.3-11.8-10.3M85.1 110.2c-8.6 0-14.1 6-14.1 14.3 0 8.2 5.6 14.4 14.1 14.4s14.3-5.9 14.3-14.4c0-8.6-5.7-14.3-14.3-14.3"/><path class="st0" d="M259.5 96.5c-13 0-23.1 5.2-24.7 18.6-.1 0 .1 0 0 0C230.7 54.2 182.6 6 120.6 6c-49 0-90.9 30.1-108.3 72.8h41.5l-2.2 14H19v14.8h29.5l-2.3 13.5H19v8.6c0 5.2 2.3 7.7 6.6 7.7h27.9l-2.3 14H20.4c-1.5 0-2.9-.1-4.3-.4 0 0-5.3-.6-8.6-4.9-.1-.1-1.4-1.7-2.1-4.3-.2-.7-.2-.7-.3-1.3.2 1.7.6 4.1.8 4.9.9 4.9 2.1 9 2.2 9.3C21.9 204 67 240 120.6 240c54.8 0 101.1-37.7 113.8-88.6h-15.7v-28.6c0-7.7-3-12.6-10.6-12.6s-10.6 4.9-10.6 12.6v28.6h-15.7v-32.5c0-15.5 11.3-22.4 26.3-22.4s26.3 6.9 26.3 22.4v32.5h15.8v-28.6c0-7.7 2.1-12.6 9.6-12.6 2.4 0 5.2.7 6.3 1.2l3-13.8c-1.8-.2-6.2-1.1-9.6-1.1m-144.2 24.8c0 19.6-11.6 31.2-30.8 31.2-17.8 0-29.8-11.9-29.8-28 0-16.8 11.4-28 28.5-28 7.8 0 13.6 3.1 16.5 6.2V78.8h15.7v42.5zm39.6 19.3c4.6 0 8.9-1.3 12.9-3.2l-1.3 12.4c-4.5 1.9-10 2.6-15.4 2.6-18.1 0-30.8-10.6-30.8-28.6 0-15.6 11.4-27.3 28.9-27.3 19.7 0 29.6 12.5 29.2 31.9h-40.7c1.5 8.8 9.9 12.2 17.2 12.2M295.2 96.5c-17.5 0-28.9 11.7-28.9 27.3 0 18 12.8 28.6 30.8 28.6 5.4 0 10.9-.7 15.4-2.6l1.3-12.4c-4 1.8-8.3 3.2-12.9 3.2-7.3 0-15.7-3.4-17.3-12.2h40.7c.5-19.4-9.4-31.9-29.1-31.9m-12 21.4c1.3-5.9 5.7-10.3 12.4-10.3 6.4 0 10.9 3.8 11.7 10.3h-24.1zM371 78.8v23.9c-2.9-3.1-8.6-6.2-16.5-6.2-17.1 0-28.5 11.2-28.5 28 0 16 12 28 29.8 28 19.2 0 30.8-11.5 30.8-31.2V78.8H371zm-14.3 60.1c-8.5 0-14.1-6.2-14.1-14.4 0-8.3 5.4-14.3 14.1-14.3 8.5 0 14.3 5.8 14.3 14.3-.1 8.5-5.8 14.4-14.3 14.4"/></svg>