<?xml version="1.0" encoding="utf-8"?>
<!-- Generator: Adobe Illustrator 16.0.3, SVG Export Plug-In . SVG Version: 6.00 Build 0)  -->
<!DOCTYPE svg PUBLIC "-//W3C//DTD SVG 1.1//EN" "http://www.w3.org/Graphics/SVG/1.1/DTD/svg11.dtd">
<svg version="1.1" id="Layer_1" xmlns="http://www.w3.org/2000/svg" xmlns:xlink="http://www.w3.org/1999/xlink" x="0px" y="0px"
	 width="100px" height="100px" viewBox="0 0 100 100" enable-background="new 0 0 100 100" xml:space="preserve">
<g id="Interac_x5F_Process_Color">
</g>
<g id="New_Symbol_3">
</g>
<g>
	<path fill="#507295" d="M100,95c0,2.75-2.25,5-5,5H5c-2.75,0-5-2.25-5-5V5c0-2.75,2.25-5,5-5h90c2.75,0,5,2.25,5,5V95z"/>
</g>
<g>
	<g>
		<g>
			<path fill="#FFFFFF" d="M34.137,69.174h4.953v1.631h-2.94v1.715h2.76v1.631h-2.76v1.955h3.07v1.631h-5.084v-8.563H34.137z"/>
			<path fill="#FFFFFF" d="M40.568,69.174h2.949l1.057,5.625h0.023l1.02-5.625h2.914v8.563H46.66v-6.668h-0.023l-1.307,6.668h-1.56
				l-1.379-6.668h-0.023v6.668h-1.799L40.568,69.174L40.568,69.174z"/>
			<path fill="#FFFFFF" d="M51.799,69.174h2.52l2.136,8.563h-2.088l-0.312-1.631h-2.051l-0.301,1.631h-2.086L51.799,69.174z
				 M53.021,70.732h-0.023l-0.707,3.813h1.463L53.021,70.732z"/>
			<path fill="#FFFFFF" d="M57.512,69.174h2.016v8.563h-2.016V69.174z"/>
			<path fill="#FFFFFF" d="M61.184,69.174H63.2v6.932h2.914v1.631h-4.931V69.174z"/>
			<path fill="#FFFFFF" d="M24.506,83.205h-1.799v-1.632h5.611v1.632H26.52v6.932h-2.014V83.205z"/>
			<path fill="#FFFFFF" d="M29.391,81.573h3.381c1.715,0,2.303,1.056,2.303,2.231c0,1.246-0.504,1.857-1.439,2.086v0.023
				c1.283,0.18,1.355,0.982,1.381,2.135c0.035,1.69,0.096,1.858,0.383,1.979v0.107h-2.17c-0.156-0.287-0.217-0.768-0.217-1.738
				c0-1.487-0.203-1.799-0.84-1.799h-0.768v3.537h-2.014V81.573z M31.404,85.184h0.623c0.816,0,1.033-0.61,1.033-1.115
				c0-0.647-0.24-1.079-1.045-1.079h-0.611V85.184z"/>
			<path fill="#FFFFFF" d="M38.232,81.573h2.52l2.135,8.563h-2.088l-0.311-1.631h-2.051l-0.301,1.631H36.05L38.232,81.573z
				 M39.455,83.133h-0.023l-0.707,3.813h1.463L39.455,83.133z"/>
			<path fill="#FFFFFF" d="M43.91,81.573h2.314l1.654,5.565h0.023v-5.565h1.871v8.563h-2.277l-1.764-5.899h-0.023v5.899H43.91
				V81.573z"/>
			<path fill="#FFFFFF" d="M53.064,87.521v0.301c0,0.646,0.18,1.139,0.875,1.139c0.709,0,0.912-0.527,0.912-1.02
				c0-1.848-3.683-0.814-3.683-4.019c0-1.366,0.729-2.519,2.808-2.519c2.014,0,2.733,1.02,2.733,2.339v0.204h-1.942
				c0-0.407-0.048-0.708-0.168-0.899c-0.119-0.204-0.313-0.3-0.611-0.3c-0.504,0-0.803,0.3-0.803,0.923
				c0,1.787,3.682,0.888,3.682,3.91c0,1.942-1.08,2.724-2.928,2.724c-1.463,0-2.818-0.443-2.818-2.23v-0.553H53.064z"/>
			<path fill="#FFFFFF" d="M58.213,81.573h4.953v1.632h-2.938v1.715h2.758v1.631h-2.758v3.586h-2.017L58.213,81.573L58.213,81.573z"
				/>
			<path fill="#FFFFFF" d="M64.357,81.573h4.953v1.632h-2.938v1.715h2.758v1.631h-2.758v1.955h3.069v1.631h-5.086v-8.563H64.357z"/>
			<path fill="#FFFFFF" d="M70.73,81.573h3.381c1.715,0,2.303,1.056,2.303,2.231c0,1.246-0.504,1.857-1.439,2.086v0.023
				c1.283,0.18,1.355,0.982,1.381,2.135c0.035,1.69,0.097,1.858,0.384,1.979v0.107h-2.171c-0.155-0.287-0.217-0.768-0.217-1.738
				c0-1.487-0.203-1.799-0.84-1.799h-0.768v3.537H70.73V81.573z M72.744,85.184h0.623c0.816,0,1.033-0.61,1.033-1.115
				c0-0.647-0.24-1.079-1.045-1.079h-0.611V85.184z"/>
		</g>
	</g>
</g>
<g>
	<path fill="#FFFFFF" d="M49.574,42.921c0.34-0.256,0.767-0.256,1.021,0l3.148,2.212l15.659-13.276L50,17.984L30.766,31.856
		l15.659,13.276L49.574,42.921z M46.572,28.244c0-1.802,1.345-3.029,3.028-3.279v-1.36h1.419v1.36
		c1.182,0.324,2.246,0.959,2.793,2.067l-1.773,1.049c-0.444-0.664-1.005-1.107-1.832-1.107c-0.635,0-1.463,0.325-1.463,1.063
		c0,1.788,5.305,1.788,5.305,5.261c0.014,1.965-1.346,3.058-3.029,3.428v1.358h-1.418v-1.358c-1.581-0.149-2.866-1.021-3.649-2.409
		l1.803-1.078c0.518,0.901,1.301,1.478,2.379,1.478c0.755,0,1.744-0.295,1.744-1.228C51.877,31.79,46.572,31.716,46.572,28.244z"/>
	<polygon fill="#FFFFFF" points="30,33.559 30,56.878 44.894,46.24 	"/>
	<polygon fill="#FFFFFF" points="31.531,57.984 68.469,57.984 50,44.708 	"/>
	<polygon fill="#FFFFFF" points="55.105,46.24 70,56.878 70,33.559 	"/>
</g>
</svg>
