<svg id="Layer_1" data-name="Layer 1" xmlns="http://www.w3.org/2000/svg" viewBox="0 0 640.06 880.07"><title>finance-invoice-euro</title><path d="M24.88,392q0-189,0-377.93c0-29.74,18.27-53.43,46.53-60.17a64.19,64.19,0,0,1,14.83-1.61q178-.14,355.94-.13a25,25,0,0,1,18.74,7.74Q559,58,657.13,156.07a25,25,0,0,1,7.81,18.7q-.11,297.69-.07,595.39c0,36-26,62-62.19,62q-257.7.06-515.41,0c-36.78,0-62.38-25.83-62.38-62.76Q24.88,580.71,24.88,392Zm40,0q0,188.25,0,376.49c0,16.07,7.52,23.69,23.44,23.69h513c15.86,0,23.57-7.75,23.57-23.64q0-291.48.08-583a11.16,11.16,0,0,0-3.59-8.7q-90.61-90.39-181-181a11.71,11.71,0,0,0-9.13-3.76q-171,.15-342,.08C72.36-7.8,64.88-.33,64.88,16.53Z" transform="translate(-24.88 47.86)"/><path d="M270.43,472.2h5.87c29.16,0,58.33-.08,87.49,0,14.8.06,24.47,13,20,26.4-2.86,8.49-10.4,13.53-20.59,13.54q-45.75.06-91.49,0h-6.13v40h5.57q46,0,92,0c6.51,0,12.25,1.75,16.57,6.72,5.37,6.19,6.8,13.33,3.56,21-3.39,8-9.76,12.18-18.38,12.29-15.83.19-31.67.07-47.5.07H270.3c6.13,26.64,14.51,51.4,37.2,68.13,23.75,17.51,58.57,15.71,81-3.78,5.37-4.67,11.05-8.15,18.46-6.95,8.08,1.32,13.78,5.83,16.22,13.74s.61,14.87-5.34,20.58c-12.63,12.12-27.33,20.86-44.43,24.69-40.2,9-76.23,1.68-105.33-29.16-18-19-27.61-42.54-34.11-67.48-1.67-6.41-3-12.93-4.52-19.83-8.49,0-17,.24-25.44-.06a19.82,19.82,0,0,1-7.18-38,30,30,0,0,1,9.71-1.81c6-.28,11.95-.08,18.29-.08V512.14c-7,0-13.94.24-20.89-.06A19.84,19.84,0,0,1,185.2,495.6a19.62,19.62,0,0,1,11.72-21.53,28.89,28.89,0,0,1,9.7-1.79c7.63-.25,15.28-.08,23-.08,3.68-19.77,8.82-38.67,17.61-56.39,13.46-27.11,32.57-48.7,62.28-57.81,39.51-12.11,76.07-6.5,107.63,21.88,9.28,8.34,10.26,20.26,2.68,28.88s-20.4,9.58-29.27.63c-23.3-23.47-75.06-26.92-101.23,13.7C279.74,438,274.06,454.35,270.43,472.2Z" transform="translate(-24.88 47.86)"/><path d="M284.89,232.2q59,0,118,0c9.4,0,16.56,3.59,20.37,12.39,5.35,12.36-3.13,26.2-16.65,27.5a44.8,44.8,0,0,1-4.49.12H167.65c-10.89,0-18.34-4.55-21.48-13a20,20,0,0,1,18.25-26.88c7-.28,14-.08,21-.08Z" transform="translate(-24.88 47.86)"/><path d="M464.88,152.2H471q46,0,91.93,0c13,0,22,8.44,21.9,20.18-.12,11.55-9.08,19.78-21.79,19.79q-58.21.07-116.41,0c-13.55,0-21.73-8.25-21.75-21.84q-.07-58,0-115.91c0-13.09,8.18-22.14,19.89-22.19s20.06,9,20.08,22q.06,46,0,91.92Z" transform="translate(-24.88 47.86)"/><path d="M224.46,112.2c-19.66,0-39.32.13-59,0C151.06,112,141.58,99,146,85.77c2.8-8.34,10.3-13.52,20.07-13.55,25.16-.06,50.32,0,75.48,0,13.82,0,27.65,0,41.48,0,12.73.06,21.69,8.25,21.81,19.79.11,11.75-8.94,20.15-21.92,20.19C263.44,112.24,244,112.2,224.46,112.2Z" transform="translate(-24.88 47.86)"/><path d="M224.87,152.2c19.83,0,39.66-.14,59.48.06,14.4.13,23.86,13.26,19.39,26.42-2.83,8.33-10.33,13.48-20.12,13.5-27.15.06-54.31,0-81.47,0-11.83,0-23.66.05-35.48,0-12.7-.07-21.67-8.31-21.75-19.85-.08-11.74,9-20.09,22-20.13C186.22,152.16,205.55,152.2,224.87,152.2Z" transform="translate(-24.88 47.86)"/><path d="M504.81,272.19c-6.5,0-13,.11-19.49,0-11.77-.25-20.51-9-20.4-20.16.11-11,8.76-19.59,20.31-19.75,13.15-.17,26.31-.19,39.47,0,11.5.17,20.12,8.88,20.15,19.89s-8.59,19.7-20.06,20C518.13,272.32,511.47,272.18,504.81,272.19Z" transform="translate(-24.88 47.86)"/></svg>