<?xml version="1.0" encoding="utf-8"?>
<!-- Generator: Adobe Illustrator 16.0.3, SVG Export Plug-In . SVG Version: 6.00 Build 0)  -->
<!DOCTYPE svg PUBLIC "-//W3C//DTD SVG 1.1//EN" "http://www.w3.org/Graphics/SVG/1.1/DTD/svg11.dtd">
<svg version="1.1" id="Layer_1" xmlns="http://www.w3.org/2000/svg" xmlns:xlink="http://www.w3.org/1999/xlink" x="0px" y="0px"
	 width="100px" height="100px" viewBox="0 0 100 100" enable-background="new 0 0 100 100" xml:space="preserve">
<g id="Interac_x5F_Process_Color">
</g>
<g id="New_Symbol_3">
</g>
<g>
	<path fill="#444444" d="M100,95c0,2.75-2.25,5-5,5H5c-2.75,0-5-2.25-5-5V5c0-2.75,2.25-5,5-5h90c2.75,0,5,2.25,5,5V95z"/>
</g>
<g>
	<g>
		<path fill="#FFFFFF" d="M33.648,79.605c0-1.248-0.145-1.799-0.816-1.799c-0.803,0-0.875,0.769-0.875,3.012
			c0,2.541,0.084,3.201,0.924,3.201c0.742,0,0.826-0.852,0.838-2.183h1.943v0.3c0,1.848-0.516,3.227-3.01,3.227
			c-2.578,0-2.783-1.932-2.783-4.51c0-2.195,0.121-4.39,2.975-4.39c1.775,0,2.746,0.769,2.746,2.782v0.359H33.648z"/>
		<path fill="#FFFFFF" d="M36.877,76.631h2.016v3.203H40.5v-3.203h2.014v8.563H40.5v-3.657h-1.607v3.657h-2.016V76.631z"/>
		<path fill="#FFFFFF" d="M44.139,76.631h4.953v1.631h-2.939v1.715h2.76v1.631h-2.76v1.955h3.07v1.631h-5.084V76.631z M44.773,74.4
			h1.871l0.6,1.703h-1.271L44.773,74.4z"/>
		<path fill="#FFFFFF" d="M54.359,85.243c-0.121,0.036-0.277,0.06-0.457,0.084s-0.371,0.036-0.574,0.036
			c-2.65,0-3.012-1.728-3.012-4.45c0-2.724,0.361-4.449,3.012-4.449c2.854,0,3.01,2.075,3.01,4.449c0,1.354-0.049,2.614-0.637,3.454
			l0.973,0.996l-1.176,1.08L54.359,85.243z M53.314,84.02c0.815,0,0.936-0.756,0.936-3.105s-0.119-3.105-0.936-3.105
			c-0.791,0-0.91,0.756-0.91,3.105S52.523,84.02,53.314,84.02z"/>
		<path fill="#FFFFFF" d="M63.299,82.364c0,1.679-0.48,2.999-2.818,2.999c-2.34,0-2.817-1.319-2.817-2.999v-5.733h2.014v6.321
			c0,0.671,0.267,1.067,0.806,1.067s0.803-0.396,0.803-1.067v-6.321h2.016v5.733H63.299z"/>
		<path fill="#FFFFFF" d="M64.814,76.631h4.953v1.631h-2.939v1.715h2.76v1.631h-2.76v1.955h3.07v1.631h-5.084V76.631z"/>
	</g>
</g>
<g>
	<path fill="#FFFFFF" d="M78.006,20.678c-4.373,0-56.01,0-56.01,0s-4.328,0-4.328,4.327c0,4.238,0,25.961,0,25.961
		s0,4.325,4.328,4.325c4.326,0,56.01,0,56.01,0s4.326,0,4.326-4.325c0-1.52,0-3.014,0-4.326c0-2.5,0-4.327,0-4.327V27.89v-0.177
		v-2.709C82.332,25.004,82.332,20.678,78.006,20.678z M78.006,32.217V46.64v4.327h-56.01V25.004h56.01v2.709V32.217z"/>
	<rect x="26.924" y="36.138" fill="#FFFFFF" width="36.717" height="2.884"/>
	<rect x="26.924" y="43.995" fill="#FFFFFF" width="11.871" height="2.884"/>
	<rect x="42.398" y="43.995" fill="#FFFFFF" width="11.872" height="2.884"/>
	<rect x="58.123" y="43.995" fill="#FFFFFF" width="11.871" height="2.884"/>
	<rect x="26.924" y="27.618" fill="#FFFFFF" width="10.818" height="2.885"/>
</g>
</svg>
