<?xml version="1.0" encoding="utf-8"?>
<!-- Generator: Adobe Illustrator 16.0.3, SVG Export Plug-In . SVG Version: 6.00 Build 0)  -->
<!DOCTYPE svg PUBLIC "-//W3C//DTD SVG 1.1//EN" "http://www.w3.org/Graphics/SVG/1.1/DTD/svg11.dtd">
<svg version="1.1" id="Layer_1" xmlns="http://www.w3.org/2000/svg" xmlns:xlink="http://www.w3.org/1999/xlink" x="0px" y="0px"
	 width="100px" height="100px" viewBox="0 0 100 100" enable-background="new 0 0 100 100" xml:space="preserve">
<g id="Interac_x5F_Process_Color">
</g>
<g id="New_Symbol_3">
</g>
<g>
	<path fill="#69A55A" d="M100,95c0,2.75-2.25,5-5,5H5c-2.75,0-5-2.25-5-5V5c0-2.75,2.25-5,5-5h90c2.75,0,5,2.25,5,5V95z"/>
</g>
<g>
	<g>
		<path fill="#FFFFFF" d="M25.621,79.348c0-1.248-0.145-1.799-0.816-1.799c-0.803,0-0.875,0.768-0.875,3.012
			c0,2.541,0.084,3.201,0.924,3.201c0.742,0,0.826-0.852,0.838-2.183h1.943v0.3c0,1.848-0.516,3.227-3.01,3.227
			c-2.578,0-2.783-1.932-2.783-4.51c0-2.195,0.121-4.39,2.975-4.39c1.775,0,2.746,0.769,2.746,2.782v0.359H25.621z"/>
		<path fill="#FFFFFF" d="M31.668,85.104c-2.65,0-3.01-1.727-3.01-4.449s0.359-4.449,3.01-4.449c2.855,0,3.01,2.074,3.01,4.449
			S34.523,85.104,31.668,85.104z M31.656,83.761c0.816,0,0.936-0.756,0.936-3.106c0-2.35-0.119-3.105-0.936-3.105
			c-0.791,0-0.912,0.756-0.912,3.105C30.744,83.005,30.865,83.761,31.656,83.761z"/>
		<path fill="#FFFFFF" d="M36.17,76.373h2.951l1.055,5.625h0.025l1.018-5.625h2.916v8.563h-1.871v-6.668h-0.025l-1.307,6.668h-1.559
			l-1.379-6.668h-0.025v6.668H36.17V76.373z"/>
		<path fill="#FFFFFF" d="M45.818,76.373h3.119c2.124,0,2.529,1.535,2.529,2.604c0,1.534-0.729,2.614-2.746,2.614h-0.887v3.347
			h-2.016L45.818,76.373L45.818,76.373z M47.834,80.104h0.551c0.805,0,0.996-0.504,0.996-1.08c0-0.66-0.217-1.164-1.031-1.164
			h-0.516V80.104z"/>
		<path fill="#FFFFFF" d="M54.109,78.004h-1.799v-1.631h5.612v1.631h-1.799v6.932h-2.017v-6.932H54.109z"/>
		<path fill="#FFFFFF" d="M59.918,76.373h2.518l2.135,8.563h-2.086l-0.313-1.631h-2.051l-0.301,1.631h-2.086L59.918,76.373z
			 M61.141,77.932h-0.022l-0.709,3.814h1.465L61.141,77.932z"/>
		<path fill="#FFFFFF" d="M65.594,76.373h2.314l1.656,5.564h0.022v-5.564h1.871v8.563H69.18l-1.764-5.9h-0.023v5.9h-1.799V76.373z"
			/>
		<path fill="#FFFFFF" d="M74.33,78.004h-1.799v-1.631h5.611v1.631h-1.8v6.932H74.33V78.004z"/>
	</g>
</g>
<g>
	<ellipse fill="#FFFFFF" cx="50" cy="37.984" rx="16.137" ry="20"/>
	<g>
		<path fill="#69A55A" d="M53.212,33.632c-0.698-1.048-1.583-1.746-2.887-1.746c-1,0-2.304,0.512-2.304,1.676
			c0,2.816,8.357,2.816,8.357,8.287c0.022,3.096-2.12,4.819-4.772,5.401v2.141h-2.234V47.25c-2.491-0.233-4.516-1.607-5.75-3.795
			l2.84-1.699c0.815,1.419,2.049,2.328,3.749,2.328c1.187,0,2.747-0.465,2.747-1.932c0-2.677-8.357-2.793-8.357-8.263
			c0-2.84,2.118-4.773,4.771-5.167V26.58h2.234v2.142c1.862,0.512,3.539,1.512,4.399,3.258L53.212,33.632z"/>
	</g>
</g>
</svg>
