<?xml version="1.0" encoding="utf-8"?>
<!-- Generator: Adobe Illustrator 16.0.3, SVG Export Plug-In . SVG Version: 6.00 Build 0)  -->
<!DOCTYPE svg PUBLIC "-//W3C//DTD SVG 1.1//EN" "http://www.w3.org/Graphics/SVG/1.1/DTD/svg11.dtd">
<svg version="1.1" id="Layer_1" xmlns="http://www.w3.org/2000/svg" xmlns:xlink="http://www.w3.org/1999/xlink" x="0px" y="0px"
	 width="100px" height="100px" viewBox="0 0 100 100" enable-background="new 0 0 100 100" xml:space="preserve">
<g id="Interac_x5F_Process_Color">
</g>
<g id="New_Symbol_3">
</g>
<g>
	<path fill="#507295" d="M100,95c0,2.75-2.25,5-5,5H5c-2.75,0-5-2.25-5-5V5c0-2.75,2.25-5,5-5h90c2.75,0,5,2.25,5,5V95z"/>
</g>
<g>
	<g>
		<path fill="#FFFFFF" d="M23.912,69.174h3.119c2.123,0,2.529,1.535,2.529,2.602c0,1.535-0.73,2.615-2.746,2.615h-0.887v3.346
			h-2.016L23.912,69.174L23.912,69.174z M25.928,72.902h0.551c0.805,0,0.996-0.502,0.996-1.078c0-0.66-0.217-1.164-1.031-1.164
			h-0.516V72.902z"/>
		<path fill="#FFFFFF" d="M31.879,69.174h2.52l2.135,8.563h-2.088l-0.311-1.631h-2.051l-0.301,1.631h-2.086L31.879,69.174z
			 M33.102,70.732h-0.023l-0.707,3.813h1.463L33.102,70.732z"/>
		<path fill="#FFFFFF" d="M37.592,69.174h2.016v8.563h-2.016V69.174z"/>
		<path fill="#FFFFFF" d="M41.264,69.174h4.953v1.631h-2.938v1.715h2.758v1.631h-2.758v1.955h3.07v1.631h-5.086L41.264,69.174
			L41.264,69.174z"/>
		<path fill="#FFFFFF" d="M47.695,69.174h2.952l1.055,5.625h0.025l1.018-5.625h2.916v8.563h-1.871v-6.668h-0.025l-1.307,6.668
			h-1.559l-1.379-6.668h-0.025v6.668h-1.799V69.174z"/>
		<path fill="#FFFFFF" d="M57.344,69.174h4.953v1.631h-2.938v1.715h2.758v1.631h-2.758v1.955h3.07v1.631h-5.087L57.344,69.174
			L57.344,69.174z"/>
		<path fill="#FFFFFF" d="M63.717,69.174h2.314l1.654,5.564h0.022v-5.564h1.871v8.563h-2.277l-1.764-5.899h-0.022v5.899h-1.8
			L63.717,69.174L63.717,69.174z"/>
		<path fill="#FFFFFF" d="M72.451,70.805h-1.799v-1.631h5.613v1.631h-1.8v6.932H72.45L72.451,70.805L72.451,70.805z"/>
		<path fill="#FFFFFF" d="M12.602,81.573h3.119c2.123,0,2.529,1.534,2.529,2.603c0,1.535-0.73,2.615-2.746,2.615h-0.887v3.346
			h-2.016L12.602,81.573L12.602,81.573z M14.617,85.303h0.551c0.805,0,0.996-0.503,0.996-1.078c0-0.66-0.217-1.164-1.031-1.164
			h-0.516V85.303z"/>
		<path fill="#FFFFFF" d="M20.568,81.573h2.52l2.135,8.563h-2.088l-0.311-1.631h-2.051l-0.301,1.631h-2.086L20.568,81.573z
			 M21.791,83.133h-0.023l-0.707,3.813h1.463L21.791,83.133z"/>
		<path fill="#FFFFFF" d="M26.246,81.573h3.381c1.715,0,2.303,1.056,2.303,2.231c0,1.246-0.504,1.857-1.439,2.086v0.023
			c1.283,0.18,1.355,0.982,1.381,2.135c0.035,1.69,0.096,1.858,0.383,1.979v0.107h-2.17c-0.156-0.287-0.217-0.768-0.217-1.738
			c0-1.487-0.203-1.799-0.84-1.799H28.26v3.537h-2.014V81.573z M28.26,85.184h0.623c0.816,0,1.033-0.61,1.033-1.115
			c0-0.647-0.24-1.079-1.045-1.079H28.26V85.184z"/>
		<path fill="#FFFFFF" d="M40.584,84.548c0-1.247-0.145-1.799-0.816-1.799c-0.803,0-0.875,0.769-0.875,3.011
			c0,2.542,0.084,3.201,0.924,3.201c0.742,0,0.826-0.852,0.838-2.184h1.943v0.301c0,1.848-0.516,3.227-3.01,3.227
			c-2.578,0-2.783-1.932-2.783-4.51c0-2.195,0.121-4.391,2.975-4.391c1.775,0,2.746,0.769,2.746,2.783v0.359L40.584,84.548
			L40.584,84.548z"/>
		<path fill="#FFFFFF" d="M46.633,90.305c-2.65,0-3.012-1.727-3.012-4.449c0-2.722,0.361-4.449,3.012-4.449
			c2.854,0,3.01,2.074,3.01,4.449S49.486,90.305,46.633,90.305z M46.619,88.961c0.816,0,0.936-0.756,0.936-3.105
			c0-2.352-0.119-3.105-0.936-3.105c-0.791,0-0.91,0.755-0.91,3.105C45.709,88.205,45.828,88.961,46.619,88.961z"/>
		<path fill="#FFFFFF" d="M56.602,87.307c0,1.68-0.479,2.998-2.817,2.998s-2.818-1.318-2.818-2.998v-5.732h2.017v6.32
			c0,0.672,0.264,1.066,0.803,1.066c0.541,0,0.805-0.396,0.805-1.066v-6.32h2.014v5.732H56.602z"/>
		<path fill="#FFFFFF" d="M58.117,81.573H61.5c1.715,0,2.303,1.056,2.303,2.231c0,1.246-0.504,1.857-1.438,2.086v0.023
			c1.282,0.18,1.354,0.982,1.379,2.135c0.034,1.69,0.096,1.858,0.385,1.979v0.107h-2.172c-0.156-0.287-0.215-0.768-0.215-1.738
			c0-1.487-0.205-1.799-0.841-1.799h-0.768v3.537h-2.016V81.573z M60.133,85.184h0.623c0.816,0,1.031-0.61,1.031-1.115
			c0-0.647-0.24-1.079-1.043-1.079h-0.611V85.184z"/>
		<path fill="#FFFFFF" d="M65.377,81.573h3.383c1.715,0,2.303,1.056,2.303,2.231c0,1.246-0.504,1.857-1.438,2.086v0.023
			c1.283,0.18,1.354,0.982,1.379,2.135c0.035,1.69,0.097,1.858,0.386,1.979v0.107h-2.173C69.059,89.85,69,89.369,69,88.396
			c0-1.486-0.205-1.799-0.84-1.799h-0.768v3.538h-2.017L65.377,81.573L65.377,81.573z M67.393,85.184h0.623
			c0.816,0,1.031-0.61,1.031-1.115c0-0.647-0.24-1.079-1.043-1.079h-0.611V85.184z"/>
		<path fill="#FFFFFF" d="M72.672,81.573h2.016v8.563h-2.016V81.573z"/>
		<path fill="#FFFFFF" d="M76.346,81.573h4.953v1.632h-2.939v1.715h2.761v1.631h-2.761v1.955h3.07v1.631h-5.084V81.573z"/>
		<path fill="#FFFFFF" d="M82.717,81.573h2.016v6.933h2.914v1.631h-4.93V81.573z"/>
	</g>
</g>
<g>
	<path fill="#FFFFFF" d="M49.574,42.921c0.34-0.256,0.767-0.256,1.021,0l3.148,2.212l15.659-13.276L50,17.984L30.766,31.856
		l15.659,13.276L49.574,42.921z M46.572,28.244c0-1.802,1.345-3.029,3.028-3.279v-1.36h1.419v1.36
		c1.182,0.324,2.246,0.959,2.793,2.067l-1.773,1.049c-0.444-0.664-1.005-1.107-1.832-1.107c-0.635,0-1.463,0.325-1.463,1.063
		c0,1.788,5.305,1.788,5.305,5.261c0.014,1.965-1.346,3.058-3.029,3.428v1.358h-1.418v-1.358c-1.581-0.149-2.866-1.021-3.649-2.409
		l1.803-1.078c0.518,0.901,1.301,1.478,2.379,1.478c0.755,0,1.744-0.295,1.744-1.228C51.877,31.79,46.572,31.716,46.572,28.244z"/>
	<polygon fill="#FFFFFF" points="30,33.559 30,56.878 44.894,46.24 	"/>
	<polygon fill="#FFFFFF" points="31.531,57.984 68.469,57.984 50,44.708 	"/>
	<polygon fill="#FFFFFF" points="55.105,46.24 70,56.878 70,33.559 	"/>
</g>
</svg>
