<?xml version="1.0" encoding="utf-8"?>
<!-- Generator: Adobe Illustrator 16.0.3, SVG Export Plug-In . SVG Version: 6.00 Build 0)  -->
<!DOCTYPE svg PUBLIC "-//W3C//DTD SVG 1.1//EN" "http://www.w3.org/Graphics/SVG/1.1/DTD/svg11.dtd">
<svg version="1.1" id="Layer_1" xmlns="http://www.w3.org/2000/svg" xmlns:xlink="http://www.w3.org/1999/xlink" x="0px" y="0px"
	 width="100px" height="100px" viewBox="0 0 100 100" enable-background="new 0 0 100 100" xml:space="preserve">
<g id="Interac_x5F_Process_Color">
</g>
<g id="New_Symbol_3">
</g>
<g>
	<path fill="#FA565A" d="M100,95c0,2.75-2.25,5-5,5H5c-2.75,0-5-2.25-5-5V5c0-2.75,2.25-5,5-5h90c2.75,0,5,2.25,5,5V95z"/>
</g>
<g>
	<g>
		<path fill="#FFFFFF" d="M14.059,79.348c0-1.248-0.145-1.799-0.816-1.799c-0.803,0-0.875,0.768-0.875,3.01
			c0,2.543,0.084,3.203,0.924,3.203c0.742,0,0.826-0.852,0.838-2.184h1.943v0.301c0,1.846-0.516,3.227-3.01,3.227
			c-2.578,0-2.783-1.932-2.783-4.51c0-2.195,0.121-4.391,2.975-4.391c1.775,0,2.746,0.768,2.746,2.783v0.359H14.059L14.059,79.348z"
			/>
		<path fill="#FFFFFF" d="M18.871,76.373h2.518l2.135,8.563h-2.086l-0.313-1.631h-2.051l-0.301,1.631h-2.086L18.871,76.373z
			 M20.094,77.932H20.07l-0.709,3.814h1.465L20.094,77.932z"/>
		<path fill="#FFFFFF" d="M24.549,76.373h3.381c1.715,0,2.303,1.057,2.303,2.23c0,1.248-0.504,1.858-1.439,2.088v0.022
			c1.283,0.181,1.355,0.983,1.381,2.136c0.035,1.69,0.096,1.858,0.383,1.979v0.107h-2.17c-0.156-0.287-0.217-0.768-0.217-1.738
			c0-1.486-0.203-1.799-0.84-1.799h-0.768v3.537h-2.014V76.373z M26.563,79.982h0.623c0.816,0,1.033-0.611,1.033-1.115
			c0-0.646-0.24-1.078-1.045-1.078h-0.611V79.982z"/>
		<path fill="#FFFFFF" d="M32.84,78.004h-1.799v-1.631h5.611v1.631h-1.799v6.934H32.84V78.004z"/>
		<path fill="#FFFFFF" d="M37.725,76.373h4.953v1.631h-2.938v1.715h2.76v1.633h-2.76v1.953h3.07v1.633h-5.084V76.373z"/>
		<path fill="#FFFFFF" d="M43.881,80.654h3.621v1.632h-3.621V80.654z"/>
		<path fill="#FFFFFF" d="M52.494,79.348c0-1.248-0.145-1.799-0.816-1.799c-0.803,0-0.875,0.768-0.875,3.01
			c0,2.543,0.084,3.203,0.924,3.203c0.742,0,0.826-0.852,0.838-2.184h1.943v0.301c0,1.846-0.516,3.227-3.01,3.227
			c-2.578,0-2.783-1.932-2.783-4.51c0-2.195,0.121-4.391,2.975-4.391c1.775,0,2.746,0.768,2.746,2.783v0.359H52.494L52.494,79.348z"
			/>
		<path fill="#FFFFFF" d="M57.307,76.373h2.519l2.135,8.563h-2.086l-0.313-1.631H57.51l-0.301,1.631h-2.086L57.307,76.373z
			 M58.529,77.932h-0.023l-0.709,3.814h1.465L58.529,77.932z"/>
		<path fill="#FFFFFF" d="M62.984,76.373h2.985c1.99,0,2.843,1.031,2.843,4.006c0,3.105-0.396,4.559-3.047,4.559h-2.781V76.373z
			 M64.998,83.449h0.541c0.934,0,1.258-0.371,1.258-2.938c0-2.087-0.168-2.649-1.234-2.649h-0.563L64.998,83.449L64.998,83.449z"/>
		<path fill="#FFFFFF" d="M70.244,76.373h4.953v1.631h-2.939v1.715h2.76v1.633h-2.76v1.953h3.07v1.633h-5.084V76.373z"/>
		<path fill="#FFFFFF" d="M78.199,76.373h2.518l2.135,8.563h-2.086l-0.313-1.631h-2.051l-0.301,1.631h-2.086L78.199,76.373z
			 M79.422,77.932h-0.023l-0.709,3.814h1.465L79.422,77.932z"/>
		<path fill="#FFFFFF" d="M89.26,82.105c0,1.68-0.479,2.998-2.818,2.998c-2.34,0-2.817-1.318-2.817-2.998v-5.732h2.015v6.32
			c0,0.672,0.266,1.067,0.805,1.067s0.803-0.396,0.803-1.067v-6.32h2.016v5.732H89.26z"/>
	</g>
</g>
<path fill="#FFFFFF" d="M67.141,28.054h-8.58c0.121-0.081,0.241-0.16,0.362-0.2c2.619-1.813,3.423-5.237,1.772-7.655
	c-0.969-1.368-2.579-2.214-4.352-2.214c-1.208,0-2.416,0.363-3.425,1.089c-1.168,0.803-2.133,2.617-2.859,4.349
	c-0.04,0-0.04,0-0.04,0c-0.041,0-0.041,0-0.081,0c-0.686-1.731-1.652-3.546-2.859-4.349c-1.046-0.726-2.217-1.089-3.425-1.089
	c-1.771,0-3.383,0.846-4.351,2.214c-1.65,2.418-0.886,5.883,1.772,7.655c0.121,0.081,0.241,0.16,0.362,0.2h-8.62v11.521h2.619
	v18.409h29.124V39.575h2.619V28.054H67.141z M54.211,20.965c0.645-0.444,1.368-0.686,2.134-0.686c1.007,0,1.935,0.444,2.457,1.208
	c0.927,1.37,0.443,3.386-1.168,4.473c-0.282,0.2-1.208,0.645-3.786,0.685c0-0.04,0-0.121,0-0.162c0-1.005-0.604-1.894-1.531-2.457
	C52.881,22.576,53.564,21.368,54.211,20.965z M41.198,21.487c0.523-0.764,1.409-1.208,2.457-1.208c0.727,0,1.49,0.241,2.134,0.686
	c0.645,0.441,1.291,1.651,1.894,3.061c-0.925,0.563-1.529,1.452-1.529,2.457c0,0.081,0,0.122,0,0.162
	c-2.579-0.04-3.505-0.484-3.787-0.685C40.755,24.873,40.231,22.857,41.198,21.487z M64.28,35.99H52.479v-5.035H64.24v5.035H64.28z
	 M35.68,30.955h11.762v5.035H35.68V30.955z M38.298,39.696h9.186v15.428h-9.186V39.696z M61.661,55.124h-9.185V39.696h9.185V55.124z
	"/>
</svg>
