<?xml version="1.0" encoding="utf-8"?>
<!-- Generator: Adobe Illustrator 16.0.3, SVG Export Plug-In . SVG Version: 6.00 Build 0)  -->
<!DOCTYPE svg PUBLIC "-//W3C//DTD SVG 1.1//EN" "http://www.w3.org/Graphics/SVG/1.1/DTD/svg11.dtd">
<svg version="1.1" id="Layer_1" xmlns="http://www.w3.org/2000/svg" xmlns:xlink="http://www.w3.org/1999/xlink" x="0px" y="0px"
	 width="100px" height="100px" viewBox="0 0 100 100" enable-background="new 0 0 100 100" xml:space="preserve">
<g id="Interac_x5F_Process_Color">
</g>
<g id="New_Symbol_3">
</g>
<g>
	<path fill="#EBAB1F" d="M100,95c0,2.75-2.25,5-5,5H5c-2.75,0-5-2.25-5-5V5c0-2.75,2.25-5,5-5h90c2.75,0,5,2.25,5,5V95z"/>
</g>
<g>
	<g>
		<polygon fill="#231F20" points="29.655,48.603 29.655,27.74 27.149,28.44 27.149,49.305 		"/>
		<path fill="#231F20" d="M26.646,52.363c0,0.576,0.629,1.063,1.255,0.98l2.421-0.629v-3.133l-3.673,1.029L26.646,52.363
			L26.646,52.363z"/>
		<path fill="#231F20" d="M26.646,56.203c0,0.576,0.629,1.063,1.255,0.98l2.421-0.632v-3.131l-3.673,1.029L26.646,56.203
			L26.646,56.203z"/>
		<path fill="#231F20" d="M26.646,60.043c0,0.575,0.629,1.063,1.255,0.98l2.421-0.64V57.26l-3.673,1.029L26.646,60.043
			L26.646,60.043z"/>
		<path fill="#231F20" d="M38.229,45.651c-0.166,0.373-0.507,0.696-0.896,0.802l-1.336,0.382l0.005,6.492
			c0,0.184-0.15,0.339-0.339,0.339c-0.187,0-0.338-0.155-0.338-0.339l0.004-9.391c0-1.107-0.899-2.007-2.002-2.007h-0.334
			c-1.106,0-2.004,0.899-2.004,2.007V63.46c0,1.504,1.335,2.84,2.338,3.59l1,0.835h8.177V52.193c0,0,0-0.666-0.163-1.084
			c-0.166-0.412-0.503-0.749-0.503-0.749L38.229,45.651L38.229,45.651z"/>
		<path fill="#231F20" d="M33.661,33.295c0,0,1.064-1.143,2.127-1.383c2.418-0.534,2.546,1.839,2.546,1.839v5.979l-2.337,0.659
			v-5.385c0,0,0.117-1.163-0.709-1.039c-1.42,0.207-1.627,1.418-1.627,1.418v5.686l-2.339,0.652V33.38l2.339-0.659V33.295
			L33.661,33.295z"/>
		<path fill="#231F20" d="M38.832,32.875v-1.583l1.006-0.289V29l2.337-0.66v2.033l1.75-0.509v1.588l-1.75,0.504v4.229
			c0,0,0.01,0.387,0.152,0.509c0.285,0.238,0.76,0.02,0.76,0.02l0.817-0.316v1.506c0,0-1.315,0.731-2.022,0.854
			c-0.472,0.084-0.963,0.042-1.504-0.292c-0.54-0.335-0.54-1.125-0.54-1.125V32.58L38.832,32.875L38.832,32.875z"/>
		<path fill="#231F20" d="M51.393,32.833v0.944c0,1.435-0.709,2.522-2,2.857l-1.838,0.563c-1.376,0.307-2.919-0.396-2.919-1.858
			v-3.922c0-1.105,0.898-2.254,2.001-2.568l2.756-0.771c1.104-0.305,2,0.844,2,1.946v2.017l-4.513,1.294v1.322
			c0,0.274,0.302,0.805,0.935,0.635l0.847-0.231c0.417-0.129,0.486-0.609,0.486-0.878v-0.725L51.393,32.833L51.393,32.833z
			 M49.147,31.251v-0.612c0-0.424-0.446-0.664-0.757-0.568l-0.765,0.217c-0.468,0.139-0.746,0.668-0.746,0.938v0.653L49.147,31.251
			L49.147,31.251z"/>
		<path fill="#231F20" d="M54.689,29.915v4.935l-2.336,0.612v-8.138l2.201-0.618l0.116,0.35c0.591-0.614,1.384-1.025,2.271-1.142
			v2.12c-0.127-0.022-0.202-0.04-0.332-0.04C55.552,27.995,54.689,28.853,54.689,29.915L54.689,29.915z"/>
		<path fill="#231F20" d="M71.591,26.94c0,2.222-0.712,3.1-2.007,3.433l-1.833,0.562c-1.378,0.316-2.922,0.108-2.922-1.729v-3.46
			c0-1.462,0.419-2.422,2.004-2.987l2.083-0.575c1.859-0.353,2.675,0.635,2.464,2.456l-2.037,0.56v-0.523
			c0-0.27-0.067-0.739-0.735-0.622l-0.85,0.245c-0.561,0.201-0.685,0.744-0.685,1.009v3.084c0,0.607,0.501,0.947,1.353,0.785
			l0.305-0.09c0.783-0.292,0.695-1.289,0.695-1.559L71.591,26.94L71.591,26.94z"/>
		<path fill="#231F20" d="M58.947,33.545c-0.666-0.07-1.92-0.294-1.92-2.294c0-2.002,1.748-2.508,3.168-3.05
			c1.419-0.542,1.296-0.999,1.296-1.459c0-0.26-0.226-0.648-1.046-0.378c-1.031,0.347-0.994,1.036-0.994,1.036v0.442l-2.094,0.583
			v-0.96c0,0-0.082-1.93,2.379-2.561c2.084-0.525,2.174-0.586,2.715-0.456c1.544,0.377,1.335,1.976,1.335,1.976v5.692l-2.251,0.66
			v-0.273C61.535,32.502,60.155,33.669,58.947,33.545L58.947,33.545z M61.535,29.328c0,0-2.399,0.611-2.027,1.806
			c0.21,0.667,1.09,0.388,1.471,0.106c0.564-0.422,0.558-0.919,0.558-0.919L61.535,29.328L61.535,29.328z"/>
	</g>
	<g>
		<path fill="#231F20" d="M70.58,19.229c-0.016-0.329-0.034-0.73-0.034-1.023h-0.013c-0.082,0.274-0.18,0.573-0.293,0.9
			l-0.422,1.148h-0.229l-0.385-1.128c-0.113-0.335-0.208-0.639-0.274-0.92h-0.007c-0.004,0.298-0.024,0.688-0.039,1.047
			l-0.069,1.019h-0.289l0.164-2.37h0.391l0.406,1.145c0.097,0.292,0.175,0.547,0.236,0.796h0.008
			c0.058-0.235,0.144-0.499,0.254-0.796l0.416-1.145h0.387l0.152,2.37h-0.305L70.58,19.229z"/>
		<path fill="#231F20" d="M71.404,17.939c0.187-0.032,0.412-0.054,0.65-0.054c0.444,0,0.756,0.096,0.963,0.291
			c0.211,0.195,0.336,0.468,0.336,0.853c0,0.385-0.125,0.7-0.345,0.919c-0.222,0.22-0.589,0.342-1.045,0.342
			c-0.222,0-0.401-0.007-0.562-0.031v-2.32H71.404z M71.716,20.027c0.077,0.012,0.187,0.012,0.308,0.012
			c0.651,0.005,1.008-0.359,1.008-0.999c0.004-0.565-0.313-0.913-0.956-0.913c-0.16,0-0.275,0.012-0.358,0.029L71.716,20.027
			L71.716,20.027z"/>
	</g>
</g>
<path fill="#636466" d="M0,71.925V95c0,2.75,2.25,5,5,5h90c2.75,0,5-2.25,5-5V71.925H0z"/>
<g>
	<path fill="#FFFFFF" d="M23.096,81.161h2.158l1.02,6.621h0.025l1.031-6.621h2.158l-1.943,8.563h-2.566L23.096,81.161z"/>
	<path fill="#FFFFFF" d="M30.547,81.161h2.016v8.563h-2.016V81.161z"/>
	<path fill="#FFFFFF" d="M34.219,81.161h3.383c1.715,0,2.303,1.056,2.303,2.231c0,1.246-0.504,1.858-1.439,2.086v0.024
		c1.283,0.181,1.355,0.983,1.379,2.136c0.035,1.69,0.096,1.858,0.385,1.979v0.107h-2.172c-0.156-0.287-0.215-0.768-0.215-1.738
		c0-1.487-0.205-1.799-0.84-1.799h-0.768v3.537h-2.016V81.161z M36.234,84.771h0.623c0.816,0,1.031-0.612,1.031-1.117
		c0-0.646-0.24-1.078-1.043-1.078h-0.611V84.771z"/>
	<path fill="#FFFFFF" d="M41.48,81.161h4.953v1.631h-2.939v1.715h2.76v1.632h-2.76v1.954h3.07v1.632H41.48V81.161z"/>
	<path fill="#FFFFFF" d="M47.91,81.161h2.951l1.055,5.625h0.025l1.018-5.625h2.916v8.563h-1.871v-6.668h-0.025l-1.307,6.668h-1.559
		l-1.379-6.668h-0.025v6.668H47.91V81.161z"/>
	<path fill="#FFFFFF" d="M57.559,81.161h4.953v1.631h-2.938v1.715h2.758v1.632h-2.758v1.954h3.07v1.632h-5.086V81.161L57.559,81.161
		z"/>
	<path fill="#FFFFFF" d="M63.932,81.161h2.314l1.654,5.565h0.022v-5.565h1.871v8.563h-2.276l-1.765-5.901H65.73v5.901h-1.799V81.161
		L63.932,81.161z"/>
	<path fill="#FFFFFF" d="M72.666,82.792h-1.799v-1.631h5.613v1.631h-1.799v6.933h-2.017L72.666,82.792L72.666,82.792z"/>
</g>
</svg>
