<?xml version="1.0" encoding="utf-8"?>
<!-- Generator: Adobe Illustrator 16.0.3, SVG Export Plug-In . SVG Version: 6.00 Build 0)  -->
<!DOCTYPE svg PUBLIC "-//W3C//DTD SVG 1.1//EN" "http://www.w3.org/Graphics/SVG/1.1/DTD/svg11.dtd">
<svg version="1.1" id="Layer_1" xmlns="http://www.w3.org/2000/svg" xmlns:xlink="http://www.w3.org/1999/xlink" x="0px" y="0px"
	 width="100px" height="100px" viewBox="0 0 100 100" enable-background="new 0 0 100 100" xml:space="preserve">
<g id="Interac_x5F_Process_Color">
</g>
<g id="New_Symbol_3">
</g>
<g>
	<g>
		<path fill="#EBAB1F" d="M100,95c0,2.75-2.25,5-5,5H5c-2.75,0-5-2.25-5-5V5c0-2.75,2.25-5,5-5h90c2.75,0,5,2.25,5,5V95z"/>
	</g>
	<g>
		<polygon fill="#231F20" points="23.906,57.566 23.906,30.486 20.652,31.394 20.652,58.479 		"/>
		<path fill="#231F20" d="M20,62.445c0,0.75,0.816,1.382,1.628,1.275l3.143-0.818v-4.065l-4.766,1.335L20,62.445L20,62.445z"/>
		<path fill="#231F20" d="M20,67.432c0,0.75,0.816,1.379,1.628,1.272l3.143-0.82V63.82l-4.766,1.336L20,67.432L20,67.432z"/>
		<path fill="#231F20" d="M20,72.416c0,0.748,0.816,1.379,1.628,1.273l3.143-0.83v-4.055l-4.766,1.336L20,72.416L20,72.416z"/>
		<path fill="#231F20" d="M35.035,53.734c-0.216,0.484-0.657,0.902-1.165,1.041l-1.733,0.496l0.008,8.427
			c0,0.239-0.197,0.44-0.441,0.44c-0.241,0-0.44-0.201-0.44-0.44l0.007-12.188c0-1.437-1.167-2.605-2.599-2.605h-0.434
			c-1.435,0-2.602,1.168-2.602,2.605v25.344c0,1.951,1.734,3.688,3.035,4.658l1.298,1.086h10.613V62.227c0,0,0-0.861-0.211-1.404
			c-0.216-0.537-0.653-0.973-0.653-0.973L35.035,53.734L35.035,53.734z"/>
		<path fill="#231F20" d="M29.104,37.696c0,0,1.383-1.483,2.762-1.794c3.139-0.695,3.304,2.386,3.304,2.386v7.762l-3.033,0.855
			v-6.989c0,0,0.154-1.509-0.918-1.349c-1.845,0.268-2.114,1.841-2.114,1.841v7.38l-3.035,0.846V37.807l3.035-0.855L29.104,37.696
			L29.104,37.696z"/>
		<path fill="#231F20" d="M35.818,37.15v-2.053l1.303-0.375V32.12l3.034-0.855v2.639l2.272-0.661v2.063l-2.272,0.654v5.489
			c0,0,0.014,0.501,0.196,0.661c0.373,0.308,0.989,0.026,0.989,0.026l1.06-0.41v1.956c0,0-1.709,0.949-2.626,1.107
			c-0.61,0.11-1.248,0.055-1.95-0.378c-0.703-0.435-0.703-1.46-0.703-1.46V36.77L35.818,37.15L35.818,37.15z"/>
		<path fill="#231F20" d="M52.119,37.097v1.225c0,1.862-0.918,3.274-2.594,3.709l-2.387,0.731c-1.787,0.398-3.79-0.516-3.79-2.412
			v-5.093c0-1.435,1.166-2.925,2.598-3.332l3.579-1c1.43-0.397,2.594,1.095,2.594,2.524v2.618l-5.855,1.681v1.716
			c0,0.356,0.392,1.045,1.212,0.825l1.1-0.3c0.54-0.169,0.63-0.791,0.63-1.139v-0.941L52.119,37.097L52.119,37.097z M49.205,35.044
			v-0.795c0-0.55-0.576-0.861-0.98-0.736l-0.992,0.281c-0.607,0.181-0.969,0.867-0.969,1.218v0.847L49.205,35.044L49.205,35.044z"/>
		<path fill="#231F20" d="M56.4,33.309v6.405l-3.032,0.794V29.947l2.856-0.803l0.15,0.455c0.768-0.797,1.796-1.331,2.948-1.483
			v2.753c-0.164-0.029-0.263-0.052-0.431-0.052C57.52,30.816,56.4,31.931,56.4,33.309L56.4,33.309z"/>
		<path fill="#231F20" d="M78.34,29.449c0,2.883-0.925,4.023-2.605,4.456l-2.379,0.729c-1.791,0.411-3.793,0.141-3.793-2.244v-4.492
			c0-1.898,0.543-3.145,2.603-3.877l2.702-0.748c2.413-0.457,3.474,0.825,3.197,3.188l-2.646,0.729v-0.68
			c0-0.351-0.087-0.958-0.955-0.806l-1.101,0.317c-0.729,0.26-0.889,0.964-0.889,1.31v4.002c0,0.788,0.649,1.229,1.756,1.02
			l0.395-0.117c1.018-0.377,0.904-1.672,0.904-2.022L78.34,29.449L78.34,29.449z"/>
		<path fill="#231F20" d="M61.926,38.022c-0.863-0.092-2.49-0.383-2.49-2.978c0-2.598,2.269-3.256,4.112-3.959
			c1.841-0.703,1.681-1.296,1.681-1.894c0-0.337-0.293-0.841-1.356-0.491c-1.339,0.45-1.291,1.344-1.291,1.344v0.574l-2.714,0.756
			v-1.246c0,0-0.108-2.505,3.085-3.325c2.706-0.681,2.821-0.76,3.521-0.592c2.008,0.49,1.734,2.564,1.734,2.564v7.39l-2.922,0.855
			v-0.354C65.285,36.667,63.496,38.183,61.926,38.022L61.926,38.022z M65.285,32.547c0,0-3.113,0.793-2.63,2.344
			c0.271,0.866,1.415,0.504,1.909,0.138c0.731-0.548,0.721-1.193,0.721-1.193V32.547L65.285,32.547z"/>
	</g>
</g>
<g>
	<path fill="#231F20" d="M77.227,19.371c-0.015-0.329-0.033-0.73-0.033-1.023H77.18c-0.082,0.274-0.18,0.573-0.293,0.9l-0.421,1.148
		h-0.229l-0.385-1.128c-0.113-0.335-0.209-0.639-0.274-0.92H75.57c-0.004,0.298-0.024,0.688-0.039,1.047l-0.07,1.019h-0.289
		l0.164-2.37h0.391l0.406,1.145c0.098,0.292,0.176,0.547,0.237,0.796h0.007c0.059-0.235,0.145-0.499,0.254-0.796l0.417-1.145h0.386
		l0.153,2.37h-0.305L77.227,19.371z"/>
	<path fill="#231F20" d="M78.051,18.081c0.188-0.032,0.412-0.054,0.651-0.054c0.444,0,0.756,0.096,0.963,0.291
		C79.876,18.513,80,18.786,80,19.17c0,0.385-0.124,0.7-0.344,0.919c-0.223,0.22-0.59,0.342-1.045,0.342
		c-0.223,0-0.402-0.007-0.562-0.031L78.051,18.081L78.051,18.081z M78.361,20.168c0.078,0.012,0.188,0.012,0.309,0.012
		c0.65,0.005,1.007-0.359,1.007-0.999c0.005-0.565-0.313-0.913-0.956-0.913c-0.16,0-0.275,0.012-0.357,0.029v1.871H78.361z"/>
</g>
</svg>
