<?xml version="1.0" encoding="utf-8"?>
<!-- Generator: Adobe Illustrator 16.0.3, SVG Export Plug-In . SVG Version: 6.00 Build 0)  -->
<!DOCTYPE svg PUBLIC "-//W3C//DTD SVG 1.1//EN" "http://www.w3.org/Graphics/SVG/1.1/DTD/svg11.dtd">
<svg version="1.1" id="Layer_1" xmlns="http://www.w3.org/2000/svg" xmlns:xlink="http://www.w3.org/1999/xlink" x="0px" y="0px"
	 width="100px" height="100px" viewBox="0 0 100 100" enable-background="new 0 0 100 100" xml:space="preserve">
<g id="Interac_x5F_Process_Color">
</g>
<g id="New_Symbol_3">
</g>
<g>
	<path fill="#01B4A4" d="M100,95c0,2.75-2.25,5-5,5H5c-2.75,0-5-2.25-5-5V5c0-2.75,2.25-5,5-5h90c2.75,0,5,2.25,5,5V95z"/>
</g>
<g>
	<g>
		<path fill="#FFFFFF" d="M25.086,72.148c0-1.248-0.145-1.801-0.814-1.801c-0.805,0-0.877,0.769-0.877,3.012
			c0,2.543,0.084,3.201,0.924,3.201c0.744,0,0.828-0.852,0.84-2.183h1.943v0.3c0,1.848-0.516,3.227-3.012,3.227
			c-2.578,0-2.781-1.932-2.781-4.51c0-2.194,0.119-4.39,2.975-4.39c1.773,0,2.746,0.769,2.746,2.782v0.359h-1.944V72.148z"/>
		<path fill="#FFFFFF" d="M28.316,69.174h2.014v3.202h1.607v-3.202h2.016v8.563h-2.016v-3.657H30.33v3.657h-2.014V69.174z"/>
		<path fill="#FFFFFF" d="M35.576,69.174h4.953v1.631h-2.938v1.715h2.758v1.631h-2.758v1.955h3.07v1.631h-5.086L35.576,69.174
			L35.576,69.174z M36.213,66.943h1.869l0.6,1.703h-1.27L36.213,66.943z"/>
		<path fill="#FFFFFF" d="M45.797,77.785c-0.119,0.035-0.275,0.061-0.455,0.084c-0.18,0.023-0.373,0.035-0.576,0.035
			c-2.65,0-3.01-1.728-3.01-4.449c0-2.723,0.359-4.449,3.01-4.449c2.855,0,3.01,2.074,3.01,4.449c0,1.355-0.047,2.615-0.635,3.454
			l0.971,0.995l-1.174,1.08L45.797,77.785z M44.754,76.563c0.816,0,0.936-0.756,0.936-3.106s-0.119-3.106-0.936-3.106
			c-0.791,0-0.912,0.756-0.912,3.106S43.963,76.563,44.754,76.563z"/>
		<path fill="#FFFFFF" d="M54.736,74.906c0,1.68-0.479,2.998-2.818,2.998c-2.338,0-2.818-1.318-2.818-2.998v-5.732h2.016v6.32
			c0,0.672,0.264,1.066,0.803,1.066c0.541,0,0.806-0.396,0.806-1.066v-6.32h2.014v5.732H54.736z"/>
		<path fill="#FFFFFF" d="M56.252,69.174h4.953v1.631h-2.938v1.715h2.758v1.631h-2.758v1.955h3.069v1.631h-5.086L56.252,69.174
			L56.252,69.174z"/>
		<path fill="#FFFFFF" d="M66.115,69.174h2.986c1.989,0,2.842,1.031,2.842,4.006c0,3.105-0.396,4.557-3.045,4.557h-2.783V69.174z
			 M68.131,76.25h0.539c0.936,0,1.26-0.372,1.26-2.939c0-2.086-0.168-2.649-1.236-2.649h-0.563V76.25z"/>
		<path fill="#FFFFFF" d="M73.375,69.174h4.953v1.631h-2.938v1.715h2.758v1.631h-2.758v1.955h3.069v1.631h-5.086L73.375,69.174
			L73.375,69.174z"/>
		<path fill="#FFFFFF" d="M30.344,81.573h2.158l1.02,6.62h0.025l1.031-6.62h2.158l-1.943,8.563h-2.566L30.344,81.573z"/>
		<path fill="#FFFFFF" d="M40.361,90.305c-2.65,0-3.01-1.727-3.01-4.449c0-2.722,0.359-4.449,3.01-4.449
			c2.855,0,3.01,2.074,3.01,4.449S43.217,90.305,40.361,90.305z M40.35,88.961c0.816,0,0.936-0.756,0.936-3.105
			c0-2.352-0.119-3.105-0.936-3.105c-0.791,0-0.912,0.755-0.912,3.105C39.438,88.205,39.559,88.961,40.35,88.961z"/>
		<path fill="#FFFFFF" d="M45.727,86.768l-2.17-5.193h2.23l0.959,3.179h0.023l0.984-3.179h2.158l-2.17,5.193v3.369h-2.016v-3.369
			H45.727z"/>
		<path fill="#FFFFFF" d="M51.428,81.573h2.518l2.136,8.563h-2.086l-0.313-1.631h-2.051l-0.301,1.631h-2.086L51.428,81.573z
			 M52.65,83.133h-0.023l-0.709,3.813h1.465L52.65,83.133z"/>
		<path fill="#FFFFFF" d="M60.51,84.176c0-0.551-0.061-1.427-0.803-1.427c-0.828,0-0.924,0.839-0.924,3.118
			c0,2.338,0.119,3.094,0.924,3.094c0.684,0,0.922-0.623,0.922-1.799v-0.275h-0.947v-1.344H62.5v4.594h-1.379l-0.047-0.814h-0.025
			c-0.311,0.768-1.066,0.982-1.846,0.982c-2.146,0-2.508-1.596-2.508-4.27c0-2.807,0.193-4.631,3.047-4.631
			c2.604,0,2.711,1.801,2.711,2.771H60.51L60.51,84.176z"/>
		<path fill="#FFFFFF" d="M63.932,81.573h4.953v1.632h-2.938v1.715h2.758v1.631h-2.758v1.955h3.07v1.631h-5.086V81.573
			L63.932,81.573z"/>
	</g>
</g>
<path fill="#FFFFFF" d="M53.58,30.755l-7.795-3.399c0,0,2.023-1.838,3.741-1.912c2.832-0.122,9.906,1.324,9.906,1.324L53.58,30.755z
	 M61.175,37.271l-0.584,12.128c0,0,2.336-0.802,3.158-2.635c1.678-3.741,4.341-14.088,4.341-14.088L61.175,37.271z M80.369,22.176
	c-4.201-5.339-11.432,0.447-11.432,0.447L47.316,35.772l-5.155-2.866l-3.172,2.046l6.006,6.705
	C54.261,41.697,79.78,24.228,80.369,22.176L80.369,22.176z M27.621,34.655h8.785l-0.054-0.059l0.608-0.392v-2.039h-9.34
	L27.621,34.655L27.621,34.655z M40.764,39.521H27.621v2.49h15.373L40.764,39.521z M51.229,46.303H40.98v2.491h10.249V46.303
	L51.229,46.303z M27.621,48.794h10.248v-2.491H27.621V48.794z M71.719,31.174v1.074v3.887v12.452v3.735H23.367V29.908H47.32
	l-4.672-2.037l1.869-1.696c-11.015,0-21.15,0-21.15,0s-3.736,0-3.736,3.733c0,3.659,0,22.412,0,22.412s0,3.734,3.736,3.734
	c3.734,0,48.352,0,48.352,0s3.735,0,3.735-3.734c0-1.313,0-2.603,0-3.733c0-2.159,0-3.735,0-3.735v-12.45v-0.153v-2.34
	c0,0,0-0.519-0.194-1.17C74.166,29.522,72.977,30.342,71.719,31.174z M59.012,46.303h-4.457v2.491h4.338L59.012,46.303z"/>
</svg>
