<?xml version="1.0" encoding="utf-8"?>
<!-- Generator: Adobe Illustrator 16.0.3, SVG Export Plug-In . SVG Version: 6.00 Build 0)  -->
<!DOCTYPE svg PUBLIC "-//W3C//DTD SVG 1.1//EN" "http://www.w3.org/Graphics/SVG/1.1/DTD/svg11.dtd">
<svg version="1.1" id="Layer_1" xmlns="http://www.w3.org/2000/svg" xmlns:xlink="http://www.w3.org/1999/xlink" x="0px" y="0px"
	 width="100px" height="100px" viewBox="0 0 100 100" enable-background="new 0 0 100 100" xml:space="preserve">
<g id="Interac_x5F_Process_Color">
</g>
<g id="New_Symbol_3">
</g>
<g>
	<path fill="#FA565A" d="M100,95c0,2.75-2.25,5-5,5H5c-2.75,0-5-2.25-5-5V5c0-2.75,2.25-5,5-5h90c2.75,0,5,2.25,5,5V95z"/>
</g>
<g>
	<g>
		<path fill="#FFFFFF" d="M26.688,78.977c0-0.553-0.061-1.428-0.803-1.428c-0.828,0-0.924,0.84-0.924,3.118
			c0,2.339,0.119,3.095,0.924,3.095c0.684,0,0.922-0.623,0.922-1.799v-0.275H25.86v-1.344h2.818v4.594h-1.379l-0.047-0.815h-0.025
			c-0.311,0.769-1.066,0.983-1.846,0.983c-2.146,0-2.508-1.596-2.508-4.271c0-2.808,0.193-4.63,3.047-4.63
			c2.604,0,2.711,1.799,2.711,2.771H26.688z"/>
		<path fill="#FFFFFF" d="M30.145,76.373h2.016v8.563h-2.016V76.373z"/>
		<path fill="#FFFFFF" d="M33.818,76.373h4.953v1.631h-2.939v1.715h2.76v1.633h-2.76v3.586h-2.014V76.373z"/>
		<path fill="#FFFFFF" d="M41.209,78.004H39.41v-1.631h5.611v1.631h-1.799v6.934h-2.014L41.209,78.004L41.209,78.004z"/>
		<path fill="#FFFFFF" d="M53.172,79.348c0-1.248-0.145-1.799-0.816-1.799c-0.803,0-0.875,0.768-0.875,3.01
			c0,2.543,0.084,3.203,0.925,3.203c0.741,0,0.825-0.852,0.838-2.184h1.942v0.301c0,1.846-0.516,3.227-3.01,3.227
			c-2.578,0-2.783-1.932-2.783-4.51c0-2.195,0.121-4.391,2.975-4.391c1.774,0,2.746,0.768,2.746,2.783v0.359H53.172L53.172,79.348z"
			/>
		<path fill="#FFFFFF" d="M57.984,76.373h2.52l2.135,8.563h-2.088l-0.311-1.631h-2.051l-0.301,1.631h-2.087L57.984,76.373z
			 M59.207,77.932h-0.023l-0.707,3.814h1.463L59.207,77.932z"/>
		<path fill="#FFFFFF" d="M63.662,76.373h3.381c1.715,0,2.303,1.057,2.303,2.23c0,1.248-0.504,1.858-1.438,2.088v0.022
			c1.282,0.181,1.354,0.983,1.381,2.136c0.035,1.69,0.096,1.858,0.383,1.979v0.107H67.5c-0.156-0.287-0.217-0.768-0.217-1.738
			c0-1.486-0.203-1.799-0.84-1.799h-0.769v3.537h-2.014L63.662,76.373L63.662,76.373z M65.676,79.982h0.623
			c0.816,0,1.033-0.611,1.033-1.115c0-0.646-0.24-1.078-1.045-1.078h-0.611V79.982z"/>
		<path fill="#FFFFFF" d="M70.922,76.373h2.986c1.99,0,2.842,1.031,2.842,4.006c0,3.105-0.396,4.559-3.047,4.559h-2.781V76.373z
			 M72.936,83.449h0.541c0.935,0,1.258-0.371,1.258-2.938c0-2.087-0.168-2.649-1.233-2.649h-0.563v5.588H72.936z"/>
	</g>
</g>
<path fill="#FFFFFF" d="M67.141,28.054h-8.58c0.121-0.081,0.241-0.16,0.362-0.2c2.619-1.813,3.423-5.237,1.772-7.655
	c-0.969-1.368-2.579-2.214-4.352-2.214c-1.208,0-2.416,0.363-3.425,1.089c-1.168,0.803-2.133,2.617-2.859,4.349
	c-0.04,0-0.04,0-0.04,0c-0.041,0-0.041,0-0.081,0c-0.686-1.731-1.652-3.546-2.859-4.349c-1.046-0.726-2.217-1.089-3.425-1.089
	c-1.771,0-3.383,0.846-4.351,2.214c-1.65,2.418-0.886,5.883,1.772,7.655c0.121,0.081,0.241,0.16,0.362,0.2h-8.62v11.521h2.619
	v18.409h29.124V39.575h2.619V28.054H67.141z M54.211,20.965c0.645-0.444,1.368-0.686,2.134-0.686c1.007,0,1.935,0.444,2.457,1.208
	c0.927,1.37,0.443,3.386-1.168,4.473c-0.282,0.2-1.208,0.645-3.786,0.685c0-0.04,0-0.121,0-0.162c0-1.005-0.604-1.894-1.531-2.457
	C52.881,22.576,53.564,21.368,54.211,20.965z M41.198,21.487c0.523-0.764,1.409-1.208,2.457-1.208c0.727,0,1.49,0.241,2.134,0.686
	c0.645,0.441,1.291,1.651,1.894,3.061c-0.925,0.563-1.529,1.452-1.529,2.457c0,0.081,0,0.122,0,0.162
	c-2.579-0.04-3.505-0.484-3.787-0.685C40.755,24.873,40.231,22.857,41.198,21.487z M64.28,35.99H52.479v-5.035H64.24v5.035H64.28z
	 M35.68,30.955h11.762v5.035H35.68V30.955z M38.298,39.696h9.186v15.428h-9.186V39.696z M61.661,55.124h-9.185V39.696h9.185V55.124z
	"/>
</svg>
