<?xml version="1.0" encoding="utf-8"?>
<!-- Generator: Adobe Illustrator 16.0.3, SVG Export Plug-In . SVG Version: 6.00 Build 0)  -->
<!DOCTYPE svg PUBLIC "-//W3C//DTD SVG 1.1//EN" "http://www.w3.org/Graphics/SVG/1.1/DTD/svg11.dtd">
<svg version="1.1" id="Layer_1" xmlns="http://www.w3.org/2000/svg" xmlns:xlink="http://www.w3.org/1999/xlink" x="0px" y="0px"
	 width="100px" height="100px" viewBox="0 0 100 100" enable-background="new 0 0 100 100" xml:space="preserve">
<g id="Interac_x5F_Process_Color">
</g>
<g id="New_Symbol_3">
</g>
<g>
	<path fill="#EBAB1F" d="M100,95c0,2.75-2.25,5-5,5H5c-2.75,0-5-2.25-5-5V5c0-2.75,2.25-5,5-5h90c2.75,0,5,2.25,5,5V95z"/>
</g>
<g>
	<polygon fill="#231F20" points="29.986,48.208 29.986,27.438 27.491,28.134 27.491,48.906 	"/>
	<path fill="#231F20" d="M26.991,51.95c0,0.575,0.626,1.059,1.248,0.977l2.41-0.626v-3.119l-3.655,1.024L26.991,51.95L26.991,51.95z
		"/>
	<path fill="#231F20" d="M26.991,55.773c0,0.574,0.626,1.059,1.248,0.977l2.41-0.629v-3.117l-3.655,1.023L26.991,55.773
		L26.991,55.773z"/>
	<path fill="#231F20" d="M26.991,59.596c0,0.574,0.626,1.059,1.248,0.978l2.41-0.636v-3.111l-3.655,1.025L26.991,59.596
		L26.991,59.596z"/>
	<path fill="#231F20" d="M38.522,45.269c-0.166,0.371-0.504,0.692-0.894,0.798l-1.329,0.38l0.006,6.462
		c0,0.184-0.151,0.338-0.339,0.338c-0.185,0-0.338-0.155-0.338-0.338l0.005-9.348c0-1.102-0.895-1.998-1.992-1.998h-0.333
		c-1.101,0-1.995,0.896-1.995,1.998V63c0,1.497,1.33,2.828,2.328,3.573l0.995,0.831h8.14V51.781c0,0,0-0.661-0.161-1.077
		c-0.166-0.412-0.501-0.746-0.501-0.746L38.522,45.269L38.522,45.269z"/>
	<path fill="#231F20" d="M33.974,32.968c0,0,1.061-1.138,2.118-1.376c2.407-0.533,2.534,1.83,2.534,1.83v5.953L36.3,40.031V34.67
		c0,0,0.118-1.157-0.704-1.034c-1.415,0.206-1.622,1.412-1.622,1.412v5.66l-2.328,0.649v-8.305l2.328-0.656V32.968L33.974,32.968z"
		/>
	<path fill="#231F20" d="M39.123,32.549v-1.575l0.999-0.288v-1.995l2.327-0.656v2.024l1.744-0.507v1.582l-1.744,0.501v4.21
		c0,0,0.011,0.385,0.15,0.507c0.286,0.236,0.759,0.02,0.759,0.02l0.813-0.314v1.5c0,0-1.311,0.728-2.014,0.849
		c-0.468,0.084-0.957,0.042-1.496-0.29c-0.539-0.333-0.539-1.12-0.539-1.12v-4.74L39.123,32.549L39.123,32.549z"/>
	<path fill="#231F20" d="M51.625,32.508v0.939c0,1.428-0.704,2.511-1.989,2.844l-1.83,0.561c-1.371,0.305-2.907-0.396-2.907-1.85
		v-3.906c0-1.1,0.895-2.244,1.992-2.556l2.745-0.767c1.097-0.304,1.989,0.84,1.989,1.936v2.008l-4.49,1.289v1.316
		c0,0.273,0.3,0.802,0.929,0.633l0.844-0.23c0.414-0.13,0.483-0.607,0.483-0.874V33.13L51.625,32.508L51.625,32.508z M49.391,30.934
		v-0.61c0-0.422-0.442-0.661-0.752-0.565l-0.762,0.216c-0.466,0.139-0.742,0.665-0.742,0.934v0.65L49.391,30.934L49.391,30.934z"/>
	<path fill="#231F20" d="M54.909,29.603v4.913l-2.326,0.609v-8.101l2.19-0.616l0.117,0.349c0.588-0.611,1.377-1.021,2.26-1.138
		v2.111c-0.125-0.022-0.199-0.04-0.33-0.04C55.768,27.691,54.909,28.545,54.909,29.603L54.909,29.603z"/>
	<path fill="#231F20" d="M71.736,26.642c0,2.211-0.711,3.085-2,3.417l-1.824,0.559c-1.373,0.315-2.908,0.108-2.908-1.721v-3.445
		c0-1.456,0.416-2.412,1.995-2.974l2.071-0.573c1.853-0.351,2.666,0.633,2.453,2.445l-2.027,0.559v-0.521
		c0-0.269-0.066-0.735-0.732-0.618l-0.845,0.244c-0.56,0.2-0.681,0.74-0.681,1.005v3.069c0,0.604,0.498,0.943,1.346,0.782
		l0.303-0.09c0.779-0.289,0.693-1.282,0.693-1.551L71.736,26.642L71.736,26.642z"/>
	<path fill="#231F20" d="M59.146,33.218c-0.664-0.07-1.91-0.294-1.91-2.284c0-1.993,1.738-2.498,3.154-3.037
		c1.41-0.539,1.289-0.994,1.289-1.453c0-0.259-0.226-0.646-1.041-0.376c-1.027,0.345-0.99,1.031-0.99,1.031v0.44l-2.082,0.58v-0.955
		c0,0-0.082-1.922,2.367-2.55c2.074-0.522,2.164-0.583,2.699-0.454c1.539,0.376,1.33,1.967,1.33,1.967v5.667l-2.24,0.656v-0.271
		C61.725,32.179,60.352,33.341,59.146,33.218L59.146,33.218z M61.725,29.019c0,0-2.389,0.608-2.019,1.798
		c0.208,0.664,1.086,0.386,1.465,0.106c0.562-0.421,0.554-0.915,0.554-0.915V29.019L61.725,29.019z"/>
	<path fill="#231F20" d="M71,19.547v-1.618h0.718c0.144,0,0.253,0.011,0.329,0.04c0.075,0.028,0.135,0.079,0.178,0.156
		c0.049,0.07,0.065,0.152,0.065,0.244c0,0.116-0.033,0.211-0.108,0.289c-0.076,0.078-0.188,0.127-0.344,0.149
		c0.053,0.027,0.1,0.05,0.129,0.083c0.061,0.055,0.122,0.128,0.182,0.211l0.275,0.446h-0.266l-0.215-0.341
		c-0.065-0.1-0.114-0.175-0.157-0.222c-0.038-0.052-0.072-0.088-0.108-0.11c-0.031-0.024-0.063-0.033-0.098-0.041
		c-0.023-0.005-0.063-0.005-0.117-0.005h-0.248v0.719H71L71,19.547z M71.215,18.641h0.459c0.098,0,0.174-0.012,0.229-0.031
		c0.056-0.021,0.1-0.052,0.123-0.098c0.031-0.043,0.045-0.095,0.045-0.144c0-0.082-0.026-0.139-0.08-0.191
		c-0.057-0.047-0.145-0.077-0.264-0.077h-0.513L71.215,18.641L71.215,18.641z"/>
	<path fill="#231F20" d="M71.613,17.404c0.382,0,0.73,0.158,0.982,0.414c0.258,0.247,0.412,0.6,0.412,0.984
		c0,0.383-0.154,0.733-0.412,0.989c-0.252,0.251-0.602,0.412-0.982,0.412c-0.387,0-0.74-0.161-0.992-0.412
		c-0.251-0.255-0.408-0.606-0.408-0.989c0-0.384,0.157-0.737,0.408-0.984C70.873,17.563,71.227,17.404,71.613,17.404L71.613,17.404z
		 M72.48,17.936c-0.223-0.222-0.529-0.368-0.867-0.368c-0.342,0-0.648,0.146-0.872,0.368c-0.228,0.222-0.361,0.527-0.361,0.866
		c0,0.342,0.136,0.65,0.361,0.871c0.224,0.222,0.53,0.361,0.872,0.361c0.338,0,0.646-0.14,0.867-0.361
		c0.224-0.221,0.363-0.529,0.363-0.871C72.845,18.463,72.704,18.157,72.48,17.936L72.48,17.936z"/>
</g>
<path fill="#636466" d="M0,71.925V95c0,2.75,2.25,5,5,5h90c2.75,0,5-2.25,5-5V71.925H0z"/>
<g>
	<path fill="#FFFFFF" d="M17.666,81.161h4.953v1.631h-2.938v1.715h2.758v1.632h-2.758v1.954h3.07v1.632h-5.086L17.666,81.161
		L17.666,81.161z"/>
	<path fill="#FFFFFF" d="M23.822,85.441h3.621v1.632h-3.621V85.441z"/>
	<path fill="#FFFFFF" d="M30.098,82.792h-1.799v-1.631h5.611v1.631h-1.799v6.933h-2.014L30.098,82.792L30.098,82.792z"/>
	<path fill="#FFFFFF" d="M34.982,81.161h3.381c1.715,0,2.303,1.056,2.303,2.231c0,1.246-0.504,1.858-1.439,2.086v0.024
		c1.283,0.181,1.355,0.983,1.381,2.136c0.035,1.69,0.096,1.858,0.383,1.979v0.107h-2.17c-0.156-0.287-0.217-0.768-0.217-1.738
		c0-1.487-0.203-1.799-0.84-1.799h-0.768v3.537h-2.014V81.161z M36.996,84.771h0.623c0.816,0,1.033-0.612,1.033-1.117
		c0-0.646-0.24-1.078-1.045-1.078h-0.611V84.771z"/>
	<path fill="#FFFFFF" d="M43.826,81.161h2.518l2.135,8.563h-2.086l-0.313-1.632h-2.051l-0.301,1.632h-2.086L43.826,81.161z
		 M45.049,82.721h-0.023l-0.709,3.813h1.465L45.049,82.721z"/>
	<path fill="#FFFFFF" d="M49.502,81.161h2.314l1.656,5.565h0.022v-5.565h1.871v8.563h-2.279l-1.764-5.901H51.3v5.901h-1.799
		L49.502,81.161L49.502,81.161z"/>
	<path fill="#FFFFFF" d="M58.656,87.109v0.3c0,0.647,0.18,1.14,0.875,1.14c0.709,0,0.912-0.527,0.912-1.02
		c0-1.848-3.683-0.815-3.683-4.018c0-1.367,0.73-2.52,2.808-2.52c2.014,0,2.733,1.02,2.733,2.338v0.204h-1.942
		c0-0.408-0.047-0.708-0.168-0.899c-0.119-0.203-0.313-0.3-0.611-0.3c-0.504,0-0.803,0.3-0.803,0.924
		c0,1.787,3.682,0.888,3.682,3.91c0,1.942-1.08,2.724-2.928,2.724c-1.463,0-2.818-0.444-2.818-2.231v-0.552H58.656z"/>
	<path fill="#FFFFFF" d="M63.807,81.161h4.953v1.631H65.82v1.715h2.76v1.632h-2.76v3.586h-2.014V81.161L63.807,81.161z"/>
	<path fill="#FFFFFF" d="M69.949,81.161h4.953v1.631h-2.938v1.715h2.759v1.632h-2.759v1.954h3.07v1.632h-5.086L69.949,81.161
		L69.949,81.161z"/>
	<path fill="#FFFFFF" d="M76.322,81.161h3.381c1.715,0,2.303,1.056,2.303,2.231c0,1.246-0.504,1.858-1.439,2.086v0.024
		c1.283,0.181,1.355,0.983,1.382,2.136c0.034,1.69,0.096,1.858,0.383,1.979v0.107h-2.17c-0.156-0.287-0.218-0.768-0.218-1.738
		c0-1.487-0.202-1.799-0.84-1.799h-0.768v3.537h-2.014V81.161z M78.336,84.771h0.623c0.816,0,1.033-0.612,1.033-1.117
		c0-0.646-0.24-1.078-1.045-1.078h-0.611V84.771z"/>
</g>
</svg>
