<?xml version="1.0" encoding="utf-8"?>
<!-- Generator: Adobe Illustrator 16.0.3, SVG Export Plug-In . SVG Version: 6.00 Build 0)  -->
<!DOCTYPE svg PUBLIC "-//W3C//DTD SVG 1.1//EN" "http://www.w3.org/Graphics/SVG/1.1/DTD/svg11.dtd">
<svg version="1.1" id="Layer_1" xmlns="http://www.w3.org/2000/svg" xmlns:xlink="http://www.w3.org/1999/xlink" x="0px" y="0px"
	 width="100px" height="100px" viewBox="0 0 100 100" enable-background="new 0 0 100 100" xml:space="preserve">
<g id="Interac_x5F_Process_Color">
</g>
<g id="New_Symbol_3">
</g>
<g>
	<path fill="#EBAB1F" d="M100,95c0,2.75-2.25,5-5,5H5c-2.75,0-5-2.25-5-5V5c0-2.75,2.25-5,5-5h90c2.75,0,5,2.25,5,5V95z"/>
</g>
<g>
	<polygon fill="#231F20" points="23.906,57.566 23.906,30.486 20.652,31.394 20.652,58.479 	"/>
	<path fill="#231F20" d="M20,62.445c0,0.75,0.816,1.382,1.628,1.275l3.143-0.818v-4.065l-4.766,1.335L20,62.445L20,62.445z"/>
	<path fill="#231F20" d="M20,67.432c0,0.75,0.816,1.379,1.628,1.272l3.143-0.82V63.82l-4.766,1.336L20,67.432L20,67.432z"/>
	<path fill="#231F20" d="M20,72.416c0,0.748,0.816,1.379,1.628,1.273l3.143-0.83v-4.055l-4.766,1.336L20,72.416L20,72.416z"/>
	<path fill="#231F20" d="M35.035,53.734c-0.216,0.484-0.657,0.902-1.165,1.041l-1.733,0.496l0.008,8.427
		c0,0.239-0.197,0.44-0.441,0.44c-0.241,0-0.44-0.201-0.44-0.44l0.007-12.188c0-1.437-1.167-2.605-2.599-2.605h-0.434
		c-1.435,0-2.602,1.168-2.602,2.605v25.344c0,1.951,1.734,3.688,3.035,4.658l1.298,1.086h10.613V62.227c0,0,0-0.861-0.211-1.404
		c-0.216-0.537-0.653-0.973-0.653-0.973L35.035,53.734L35.035,53.734z"/>
	<path fill="#231F20" d="M29.104,37.696c0,0,1.383-1.483,2.762-1.794c3.139-0.695,3.304,2.386,3.304,2.386v7.762l-3.033,0.855
		v-6.989c0,0,0.154-1.509-0.918-1.349c-1.845,0.268-2.114,1.841-2.114,1.841v7.38l-3.035,0.846V37.807l3.035-0.855L29.104,37.696
		L29.104,37.696z"/>
	<path fill="#231F20" d="M35.818,37.15v-2.053l1.303-0.375V32.12l3.034-0.855v2.639l2.272-0.661v2.063l-2.272,0.654v5.489
		c0,0,0.014,0.501,0.196,0.661c0.373,0.308,0.989,0.026,0.989,0.026l1.06-0.41v1.956c0,0-1.709,0.949-2.626,1.107
		c-0.61,0.11-1.248,0.055-1.95-0.378c-0.703-0.435-0.703-1.46-0.703-1.46V36.77L35.818,37.15L35.818,37.15z"/>
	<path fill="#231F20" d="M52.119,37.097v1.225c0,1.862-0.918,3.274-2.594,3.709l-2.387,0.731c-1.787,0.398-3.79-0.516-3.79-2.412
		v-5.093c0-1.435,1.166-2.925,2.598-3.332l3.579-1c1.43-0.397,2.594,1.095,2.594,2.524v2.618l-5.855,1.681v1.716
		c0,0.356,0.392,1.045,1.212,0.825l1.1-0.3c0.54-0.169,0.63-0.791,0.63-1.139v-0.941L52.119,37.097L52.119,37.097z M49.205,35.044
		v-0.795c0-0.55-0.576-0.861-0.98-0.736l-0.992,0.281c-0.607,0.181-0.969,0.867-0.969,1.218v0.847L49.205,35.044L49.205,35.044z"/>
	<path fill="#231F20" d="M56.4,33.309v6.405l-3.032,0.794V29.947l2.856-0.803l0.15,0.455c0.768-0.797,1.796-1.331,2.948-1.483v2.753
		c-0.164-0.029-0.263-0.052-0.431-0.052C57.52,30.816,56.4,31.931,56.4,33.309L56.4,33.309z"/>
	<path fill="#231F20" d="M78.34,29.449c0,2.883-0.925,4.023-2.605,4.456l-2.379,0.729c-1.791,0.411-3.793,0.141-3.793-2.244v-4.492
		c0-1.898,0.543-3.145,2.603-3.877l2.702-0.748c2.413-0.457,3.474,0.825,3.197,3.188l-2.646,0.729v-0.68
		c0-0.351-0.087-0.958-0.955-0.806l-1.101,0.317c-0.729,0.26-0.889,0.964-0.889,1.31v4.002c0,0.788,0.649,1.229,1.756,1.02
		l0.395-0.117c1.018-0.377,0.904-1.672,0.904-2.022L78.34,29.449L78.34,29.449z"/>
	<path fill="#231F20" d="M61.926,38.022c-0.863-0.092-2.49-0.383-2.49-2.978c0-2.598,2.269-3.256,4.112-3.959
		c1.841-0.703,1.681-1.296,1.681-1.894c0-0.337-0.293-0.841-1.356-0.491c-1.339,0.45-1.291,1.344-1.291,1.344v0.574l-2.714,0.756
		v-1.246c0,0-0.108-2.505,3.085-3.325c2.706-0.681,2.821-0.76,3.521-0.592c2.008,0.49,1.734,2.564,1.734,2.564v7.39l-2.922,0.855
		v-0.354C65.285,36.667,63.496,38.183,61.926,38.022L61.926,38.022z M65.285,32.547c0,0-3.113,0.793-2.63,2.344
		c0.271,0.866,1.415,0.504,1.909,0.138c0.731-0.548,0.721-1.193,0.721-1.193V32.547L65.285,32.547z"/>
	<path fill="#231F20" d="M77.38,20.198v-2.109h0.937c0.188,0,0.33,0.014,0.43,0.051c0.099,0.037,0.176,0.103,0.23,0.204
		c0.063,0.091,0.086,0.198,0.086,0.317c0,0.151-0.043,0.275-0.142,0.376c-0.101,0.102-0.245,0.166-0.448,0.194
		c0.069,0.035,0.129,0.065,0.168,0.109c0.078,0.072,0.159,0.167,0.235,0.275l0.36,0.582h-0.346l-0.281-0.444
		c-0.084-0.13-0.148-0.228-0.204-0.29c-0.05-0.068-0.095-0.115-0.142-0.143c-0.041-0.031-0.082-0.043-0.128-0.054
		c-0.03-0.007-0.081-0.007-0.153-0.007H77.66v0.938L77.38,20.198L77.38,20.198z M77.66,19.017h0.599c0.126,0,0.226-0.015,0.3-0.04
		c0.071-0.027,0.129-0.068,0.16-0.128c0.04-0.057,0.059-0.124,0.059-0.188c0-0.106-0.035-0.182-0.104-0.25
		c-0.073-0.062-0.188-0.101-0.344-0.101H77.66V19.017L77.66,19.017z"/>
	<path fill="#231F20" d="M78.18,17.404c0.498,0,0.954,0.206,1.282,0.539C79.797,18.266,80,18.725,80,19.227
		c0,0.499-0.203,0.956-0.538,1.289c-0.328,0.327-0.784,0.537-1.282,0.537c-0.504,0-0.965-0.209-1.293-0.537
		c-0.326-0.333-0.531-0.79-0.531-1.289c0-0.501,0.205-0.961,0.531-1.283C77.215,17.61,77.676,17.404,78.18,17.404L78.18,17.404z
		 M79.313,18.097c-0.291-0.289-0.69-0.479-1.133-0.479c-0.445,0-0.845,0.19-1.137,0.479c-0.295,0.29-0.473,0.688-0.473,1.13
		c0,0.445,0.178,0.847,0.473,1.136c0.292,0.289,0.691,0.471,1.137,0.471c0.441,0,0.842-0.182,1.133-0.471
		c0.291-0.289,0.474-0.69,0.474-1.136C79.785,18.785,79.604,18.386,79.313,18.097L79.313,18.097z"/>
</g>
</svg>
