<?xml version="1.0" encoding="UTF-8"?>
<svg width="52px" height="30px" viewBox="0 0 52 30" version="1.1" xmlns="http://www.w3.org/2000/svg" xmlns:xlink="http://www.w3.org/1999/xlink">
    <title>Group</title>
    <g id="Page-1" stroke="none" stroke-width="1" fill="none" fill-rule="evenodd">
        <g id="E-commerce----Payments-V2-expand" transform="translate(-339.000000, -9636.000000)" fill-rule="nonzero">
            <g id="Group" transform="translate(339.943232, 9636.408000)">
                <rect id="Rectangle" fill="#FFB3C7" x="0.056768" y="0.592" width="50.4" height="28" rx="4.321"></rect>
                <path d="M45.7456,16.995856 C45.0862,16.995856 44.55168,17.5352256 44.55168,18.20064 C44.55168,18.86592 45.0862,19.405424 45.7456,19.405424 C46.4049888,19.405424 46.939632,18.8659536 46.939632,18.20064 C46.939632,17.5351808 46.4050112,16.995856 45.7456,16.995856 Z M41.817424,16.0643968 C41.817424,15.1534112 41.0457776,14.4150848 40.093856,14.4150848 C39.1419344,14.4150848 38.370176,15.1534448 38.370176,16.0643968 C38.370176,16.9753936 39.1418336,17.7139328 40.093856,17.7139328 C41.0458784,17.7139328 41.817424,16.9753936 41.817424,16.0643968 Z M41.8238246,12.8587328 L43.7260326,12.8587328 L43.7260326,19.2698368 L41.8238246,19.2698368 L41.8238246,18.860096 C41.2864262,19.22992 40.6377446,19.4473232 39.9380806,19.4473232 C38.0866086,19.4473232 36.5855846,17.9327472 36.5855846,16.0643632 C36.5855846,14.1959792 38.0866086,12.6815152 39.9380806,12.6815152 C40.6377446,12.6815152 41.2864486,12.8989072 41.8238246,13.2688432 L41.8238246,12.8587104 L41.8238246,12.8587328 Z M26.6007846,13.6938272 L26.6007846,12.8588224 L24.6532166,12.8588224 L24.6532166,19.2698144 L26.6051526,19.2698144 L26.6051526,16.2766144 C26.6051526,15.266744 27.6898614,14.7239584 28.4425126,14.7239584 C28.4502202,14.7239584 28.4574153,14.7247062 28.4651231,14.7248014 L28.4651231,12.8593294 C27.6926255,12.8593294 26.9821311,13.1930894 26.6007711,13.6939534 L26.6007846,13.6938272 Z M21.7493926,16.0644192 C21.7493926,15.1534336 20.9776566,14.4151072 20.0257126,14.4151072 C19.0738134,14.4151072 18.3020326,15.1534672 18.3020326,16.0644192 C18.3020326,16.975416 19.0737686,17.7139552 20.0257126,17.7139552 C20.9776902,17.7139552 21.7493926,16.975416 21.7493926,16.0644192 Z M21.7556854,12.8587552 L23.6580054,12.8587552 L23.6580054,19.2698592 L21.7556854,19.2698592 L21.7556854,18.8601184 C21.218287,19.2299424 20.5696054,19.4473456 19.8700534,19.4473456 C18.0184694,19.4473456 16.5174454,17.9327696 16.5174454,16.0643856 C16.5174454,14.1960016 18.0184694,12.6815376 19.8700534,12.6815376 C20.5696502,12.6815376 21.2183094,12.8989296 21.7556854,13.2688656 L21.7556854,12.8587328 L21.7556854,12.8587552 Z M33.2054454,12.68632 C32.4455702,12.68632 31.7263734,12.924376 31.2455574,13.581144 L31.2455574,12.859136 L29.3515254,12.859136 L29.3515254,19.269904 L31.2688534,19.269904 L31.2688534,15.900832 C31.2688534,14.9259168 31.9167398,14.448528 32.6968534,14.448528 C33.5328886,14.448528 34.0135254,14.9524832 34.0135254,15.887616 L34.0135254,19.269904 L35.9134934,19.269904 L35.9134934,15.192992 C35.9134934,13.70104 34.7379414,12.686432 33.2054454,12.686432 L33.2054454,12.68632 Z M13.7465654,19.269904 L15.7375894,19.269904 L15.7375894,10.001792 L13.7465654,10.001792 L13.7465654,19.269904 L13.7465654,19.269904 Z M5.00037341,19.2724331 L7.10866141,19.2724331 L7.10866141,10.0000651 L5.00037341,10.0000651 L5.00037341,19.2724331 Z M12.3744534,10.0000427 C12.3744534,12.0074411 11.5992006,13.8748171 10.2177814,15.2628331 L13.1320214,19.2727691 L10.5280214,19.2727691 L7.36088541,14.9148491 L8.17827261,14.2971467 C9.53380861,13.2725259 10.3113126,11.7063627 10.3113126,10.0000427 L12.3744646,10.0000427 L12.3744534,10.0000427 Z" id="Shape" fill="#0A0B09"></path>
            </g>
        </g>
    </g>
</svg>