<?xml version="1.0" encoding="utf-8"?>
<!-- Generator: Adobe Illustrator 16.0.3, SVG Export Plug-In . SVG Version: 6.00 Build 0)  -->
<!DOCTYPE svg PUBLIC "-//W3C//DTD SVG 1.1//EN" "http://www.w3.org/Graphics/SVG/1.1/DTD/svg11.dtd">
<svg version="1.1" id="Layer_1" xmlns="http://www.w3.org/2000/svg" xmlns:xlink="http://www.w3.org/1999/xlink" x="0px" y="0px"
	 width="100px" height="100px" viewBox="0 0 100 100" enable-background="new 0 0 100 100" xml:space="preserve">
<g id="Interac_x5F_Process_Color">
</g>
<g id="New_Symbol_3">
</g>
<g>
	<g>
		<path fill="#F1F2F2" d="M100,95c0,2.75-2.25,5-5,5H5c-2.75,0-5-2.25-5-5V5c0-2.75,2.25-5,5-5h90c2.75,0,5,2.25,5,5V95z"/>
	</g>
	<g>
		<polygon fill="#FBB231" points="65.052,72.502 66.214,72.473 67.359,72.389 68.482,72.247 69.602,72.047 70.688,71.797 
			71.757,71.494 72.805,71.137 73.827,70.734 74.829,70.279 75.802,69.787 76.743,69.239 77.661,68.654 78.542,68.025 
			79.393,67.357 80.212,66.65 80.993,65.9 81.745,65.118 82.45,64.296 83.12,63.448 83.749,62.566 84.333,61.648 84.88,60.707 
			85.372,59.734 85.827,58.734 86.229,57.708 86.587,56.661 86.893,55.591 87.143,54.505 87.339,53.391 87.482,52.266 
			87.566,51.121 87.598,49.958 87.566,48.805 87.482,47.667 87.339,46.543 87.143,45.442 86.893,44.357 86.587,43.293 
			86.229,42.247 85.827,41.229 85.372,40.236 84.88,39.263 84.333,38.33 83.749,37.412 83.12,36.531 82.45,35.688 81.745,34.87 
			80.993,34.086 80.212,33.342 79.393,32.637 78.542,31.968 77.661,31.339 76.743,30.754 75.802,30.215 74.829,29.723 
			73.827,29.266 72.805,28.864 71.757,28.507 70.688,28.204 69.602,27.954 68.482,27.756 67.359,27.612 66.214,27.528 
			65.052,27.498 63.898,27.528 62.753,27.612 61.63,27.756 60.521,27.954 59.436,28.204 58.364,28.507 57.325,28.864 56.3,29.266 
			55.307,29.723 54.343,30.215 53.4,30.754 52.489,31.339 51.609,31.968 50.759,32.637 49.946,33.342 49.165,34.086 48.421,34.87 
			47.716,35.688 47.048,36.531 46.425,37.412 45.839,38.33 45.302,39.263 44.8,40.236 44.353,41.229 43.95,42.247 43.601,43.293 
			43.298,44.357 43.046,45.442 42.849,46.543 42.706,47.667 42.622,48.805 42.591,49.958 42.622,51.121 42.706,52.266 
			42.849,53.391 43.046,54.505 43.298,55.591 43.601,56.661 43.95,57.708 44.353,58.734 44.8,59.734 45.302,60.707 45.839,61.648 
			46.425,62.566 47.048,63.448 47.716,64.296 48.421,65.118 49.165,65.9 49.946,66.65 50.759,67.357 51.609,68.025 52.489,68.654 
			53.4,69.239 54.343,69.787 55.307,70.279 56.3,70.734 57.325,71.137 58.364,71.494 59.436,71.797 60.521,72.047 61.63,72.247 
			62.753,72.389 63.898,72.473 65.052,72.502 		"/>
		<polygon fill="#EC1C2E" points="34.948,72.502 36.101,72.473 37.247,72.389 38.372,72.247 39.479,72.047 40.565,71.797 
			41.634,71.494 42.675,71.137 43.7,70.734 44.694,70.279 45.659,69.787 46.599,69.239 47.511,68.654 48.392,68.025 49.241,67.357 
			50.054,66.65 50.835,65.9 51.579,65.118 52.286,64.296 52.952,63.448 53.575,62.566 54.159,61.648 54.698,60.707 55.2,59.734 
			55.646,58.734 56.05,57.708 56.398,56.661 56.702,55.591 56.954,54.505 57.148,53.391 57.296,52.266 57.378,51.121 57.407,49.958 
			57.378,48.805 57.296,47.667 57.148,46.543 56.954,45.442 56.702,44.357 56.398,43.293 56.05,42.247 55.646,41.229 55.2,40.236 
			54.698,39.263 54.159,38.33 53.575,37.412 52.952,36.531 52.286,35.688 51.579,34.87 50.835,34.086 50.054,33.342 49.241,32.637 
			48.392,31.968 47.511,31.339 46.599,30.754 45.659,30.215 44.694,29.723 43.7,29.266 42.675,28.864 41.634,28.507 40.565,28.204 
			39.479,27.954 38.372,27.756 37.247,27.612 36.101,27.528 34.948,27.498 33.786,27.528 32.64,27.612 31.517,27.756 30.399,27.954 
			29.315,28.204 28.245,28.507 27.196,28.864 26.173,29.266 25.171,29.723 24.2,30.215 23.259,30.754 22.339,31.339 21.458,31.968 
			20.608,32.637 19.788,33.342 19.007,34.086 18.255,34.87 17.55,35.688 16.882,36.531 16.251,37.412 15.667,38.33 15.12,39.263 
			14.628,40.236 14.171,41.229 13.771,42.247 13.413,43.293 13.108,44.357 12.858,45.442 12.661,46.543 12.517,47.667 
			12.433,48.805 12.403,49.958 12.433,51.121 12.517,52.266 12.661,53.391 12.858,54.505 13.108,55.591 13.413,56.661 
			13.771,57.708 14.171,58.734 14.628,59.734 15.12,60.707 15.667,61.648 16.251,62.566 16.882,63.448 17.55,64.296 18.255,65.118 
			19.007,65.9 19.788,66.65 20.608,67.357 21.458,68.025 22.339,68.654 23.259,69.239 24.2,69.787 25.171,70.279 26.173,70.734 
			27.196,71.137 28.245,71.494 29.315,71.797 30.399,72.047 31.517,72.247 32.64,72.389 33.786,72.473 34.948,72.502 		"/>
		<polygon fill="#FBB231" points="47.366,36.128 59.323,36.128 59.323,34.906 48.397,34.906 47.366,36.128 		"/>
		<polygon fill="#FBB231" points="45.575,38.845 59.323,38.845 59.323,37.623 46.296,37.623 45.575,38.845 		"/>
		<polygon fill="#FBB231" points="44.237,41.556 59.323,41.556 59.323,40.333 44.771,40.333 44.237,41.556 		"/>
		<polygon fill="#FBB231" points="43.319,44.273 59.323,44.273 59.323,43.051 43.7,43.051 43.319,44.273 		"/>
		<polygon fill="#FBB231" points="43.853,57.406 59.359,57.406 59.359,56.184 43.472,56.184 43.853,57.406 		"/>
		<polygon fill="#FBB231" points="44.997,60.123 59.359,60.123 59.359,58.9 44.429,58.9 44.997,60.123 		"/>
		<polygon fill="#FBB231" points="46.606,62.833 59.359,62.833 59.359,61.611 45.839,61.611 46.606,62.833 		"/>
		<polygon fill="#FBB231" points="48.823,65.55 59.359,65.55 59.359,64.32 47.753,64.32 48.823,65.55 		"/>
		<polygon fill="#FBB231" points="42.782,46.983 59.323,46.983 59.323,45.761 43.017,45.761 42.782,46.983 		"/>
		<polygon fill="#FBB231" points="52.861,54.695 59.169,54.695 59.169,53.473 53.089,53.473 52.861,54.695 		"/>
		<polygon fill="#FBB231" points="53.361,51.984 59.169,51.984 59.169,50.755 53.591,50.755 53.361,51.984 		"/>
		<polygon fill="#FBB231" points="42.364,50.755 44.003,50.755 44.003,51.984 42.44,51.984 42.364,50.755 		"/>
		<polygon fill="#FFFFFF" points="39.304,49.275 39.198,49.267 39.091,49.252 38.993,49.238 38.896,49.222 38.804,49.208 
			38.706,49.192 38.606,49.177 38.499,49.162 38.394,49.147 38.272,49.139 38.136,49.131 37.993,49.124 37.833,49.124 
			37.657,49.131 37.46,49.147 37.241,49.162 37.089,49.185 36.944,49.208 36.815,49.252 36.7,49.297 36.595,49.351 36.497,49.412 
			36.421,49.489 36.353,49.556 36.306,49.64 36.267,49.723 36.253,49.814 36.253,49.906 36.276,50.004 36.306,50.103 36.366,50.202 
			36.442,50.3 36.595,50.444 36.778,50.559 36.989,50.657 37.218,50.74 37.46,50.816 37.712,50.9 37.962,50.992 38.204,51.089 
			38.433,51.218 38.644,51.377 38.835,51.568 38.993,51.803 39.114,52.091 39.19,52.434 39.222,52.844 39.19,53.322 39.138,53.678 
			39.046,53.99 38.925,54.277 38.772,54.527 38.599,54.75 38.401,54.938 38.188,55.105 37.954,55.25 37.712,55.364 37.46,55.461 
			37.202,55.538 36.937,55.598 36.679,55.645 36.427,55.667 36.177,55.684 35.942,55.689 35.616,55.689 35.312,55.684 
			35.046,55.684 34.796,55.675 34.567,55.667 34.362,55.652 34.181,55.636 34.007,55.614 33.847,55.598 33.702,55.568 33.56,55.544 
			33.429,55.508 33.3,55.477 33.179,55.432 33.058,55.386 32.929,55.34 33.271,53.664 33.339,53.678 33.423,53.702 33.528,53.73 
			33.657,53.762 33.794,53.792 33.944,53.823 34.112,53.859 34.294,53.891 34.483,53.92 34.681,53.952 34.888,53.975 35.099,53.997 
			35.319,54.004 35.54,54.012 35.761,54.012 35.979,54.004 36.2,53.959 36.376,53.898 36.513,53.814 36.618,53.708 36.692,53.602 
			36.753,53.48 36.792,53.359 36.823,53.246 36.837,53.025 36.769,52.835 36.64,52.684 36.45,52.555 36.224,52.441 35.956,52.327 
			35.661,52.221 35.364,52.1 35.062,51.963 34.772,51.803 34.507,51.605 34.265,51.371 34.073,51.082 33.938,50.74 33.87,50.332 
			33.878,49.845 33.915,49.549 33.968,49.267 34.044,49.01 34.136,48.767 34.257,48.54 34.394,48.342 34.554,48.152 34.743,47.986 
			34.964,47.841 35.206,47.719 35.479,47.606 35.784,47.523 36.124,47.454 36.497,47.401 36.905,47.371 37.354,47.362 
			37.634,47.362 37.892,47.371 38.128,47.378 38.341,47.386 38.53,47.401 38.706,47.416 38.856,47.431 38.993,47.447 39.122,47.461 
			39.228,47.484 39.329,47.5 39.419,47.514 39.493,47.529 39.563,47.538 39.632,47.553 39.69,47.561 39.304,49.275 		"/>
		<polyline fill="none" stroke="#FFFFFF" stroke-width="0.216" stroke-miterlimit="2.6131" points="39.304,49.275 39.304,49.275 
			39.198,49.267 39.091,49.252 38.993,49.238 38.896,49.222 38.804,49.208 38.706,49.192 38.606,49.177 38.499,49.162 
			38.394,49.147 38.272,49.139 38.136,49.131 37.993,49.124 37.833,49.124 37.657,49.131 37.46,49.147 37.241,49.162 37.241,49.162 
			37.089,49.185 36.944,49.208 36.815,49.252 36.7,49.297 36.595,49.351 36.497,49.412 36.421,49.489 36.353,49.556 36.306,49.64 
			36.267,49.723 36.253,49.814 36.253,49.906 36.276,50.004 36.306,50.103 36.366,50.202 36.442,50.3 36.442,50.3 36.595,50.444 
			36.778,50.559 36.989,50.657 37.218,50.74 37.46,50.816 37.712,50.9 37.962,50.992 38.204,51.089 38.433,51.218 38.644,51.377 
			38.835,51.568 38.993,51.803 39.114,52.091 39.19,52.434 39.222,52.844 39.19,53.322 39.19,53.322 39.138,53.678 39.046,53.99 
			38.925,54.277 38.772,54.527 38.599,54.75 38.401,54.938 38.188,55.105 37.954,55.25 37.712,55.364 37.46,55.461 37.202,55.538 
			36.937,55.598 36.679,55.645 36.427,55.667 36.177,55.684 35.942,55.689 35.942,55.689 35.616,55.689 35.312,55.684 
			35.046,55.684 34.796,55.675 34.567,55.667 34.362,55.652 34.181,55.636 34.007,55.614 33.847,55.598 33.702,55.568 33.56,55.544 
			33.429,55.508 33.3,55.477 33.179,55.432 33.058,55.386 32.929,55.34 33.271,53.664 33.271,53.664 33.339,53.678 33.423,53.702 
			33.528,53.73 33.657,53.762 33.794,53.792 33.944,53.823 34.112,53.859 34.294,53.891 34.483,53.92 34.681,53.952 34.888,53.975 
			35.099,53.997 35.319,54.004 35.54,54.012 35.761,54.012 35.979,54.004 35.979,54.004 36.2,53.959 36.376,53.898 36.513,53.814 
			36.618,53.708 36.692,53.602 36.753,53.48 36.792,53.359 36.823,53.246 36.823,53.246 36.837,53.025 36.769,52.835 36.64,52.684 
			36.45,52.555 36.224,52.441 35.956,52.327 35.661,52.221 35.364,52.1 35.062,51.963 34.772,51.803 34.507,51.605 34.265,51.371 
			34.073,51.082 33.938,50.74 33.87,50.332 33.878,49.845 33.878,49.845 33.915,49.549 33.968,49.267 34.044,49.01 34.136,48.767 
			34.257,48.54 34.394,48.342 34.554,48.152 34.743,47.986 34.964,47.841 35.206,47.719 35.479,47.606 35.784,47.523 36.124,47.454 
			36.497,47.401 36.905,47.371 37.354,47.362 37.354,47.362 37.634,47.362 37.892,47.371 38.128,47.378 38.341,47.386 38.53,47.401 
			38.706,47.416 38.856,47.431 38.993,47.447 39.122,47.461 39.228,47.484 39.329,47.5 39.419,47.514 39.493,47.529 39.563,47.538 
			39.632,47.553 39.69,47.561 39.304,49.275 		"/>
		<polygon fill="#FFFFFF" points="41.104,45.686 43.206,45.686 42.896,47.523 44.163,47.523 43.89,49.238 42.554,49.2 
			41.825,53.436 41.817,53.587 41.854,53.716 41.931,53.814 42.03,53.898 42.167,53.952 42.319,53.997 42.485,54.027 42.667,54.043 
			42.835,54.036 42.987,54.02 43.122,53.997 43.245,53.966 43.343,53.936 43.411,53.914 43.456,53.898 43.472,53.891 43.206,55.303 
			43.153,55.34 43.101,55.371 43.046,55.4 42.993,55.432 42.94,55.454 42.88,55.477 42.812,55.5 42.743,55.523 42.667,55.544 
			42.591,55.561 42.501,55.576 42.409,55.591 42.31,55.607 42.196,55.622 42.075,55.636 41.946,55.652 41.37,55.652 41.065,55.628 
			40.8,55.598 40.558,55.553 40.353,55.5 40.177,55.432 40.034,55.357 39.905,55.266 39.806,55.166 39.729,55.061 39.677,54.932 
			39.638,54.8 39.616,54.658 39.608,54.498 39.608,54.332 39.632,54.157 39.653,53.966 41.104,45.686 		"/>
		<polyline fill="none" stroke="#FFFFFF" stroke-width="0.216" stroke-miterlimit="2.6131" points="41.104,45.686 43.206,45.686 
			42.896,47.523 44.163,47.523 43.89,49.238 42.554,49.2 41.825,53.436 41.825,53.436 41.817,53.587 41.854,53.716 41.931,53.814 
			42.03,53.898 42.167,53.952 42.319,53.997 42.485,54.027 42.667,54.043 42.667,54.043 42.835,54.036 42.987,54.02 43.122,53.997 
			43.245,53.966 43.343,53.936 43.411,53.914 43.456,53.898 43.472,53.891 43.206,55.303 43.206,55.303 43.153,55.34 43.101,55.371 
			43.046,55.4 42.993,55.432 42.94,55.454 42.88,55.477 42.812,55.5 42.743,55.523 42.667,55.544 42.591,55.561 42.501,55.576 
			42.409,55.591 42.31,55.607 42.196,55.622 42.075,55.636 41.946,55.652 41.37,55.652 41.37,55.652 41.065,55.628 40.8,55.598 
			40.558,55.553 40.353,55.5 40.177,55.432 40.034,55.357 39.905,55.266 39.806,55.166 39.729,55.061 39.677,54.932 39.638,54.8 
			39.616,54.658 39.608,54.498 39.608,54.332 39.632,54.157 39.653,53.966 41.104,45.686 		"/>
		<polyline fill="none" stroke="#FFFFFF" stroke-width="0.216" stroke-miterlimit="2.6131" points="45.839,52.1 45.839,52.1 
			45.819,52.229 45.812,52.364 45.823,52.508 45.854,52.652 45.909,52.797 45.97,52.936 46.052,53.079 46.144,53.208 46.251,53.337 
			46.364,53.452 46.485,53.564 46.622,53.654 46.757,53.74 46.911,53.807 47.062,53.859 47.214,53.891 47.214,53.891 47.413,53.92 
			47.601,53.943 47.798,53.966 47.997,53.982 48.192,53.99 48.397,53.99 48.597,53.982 48.8,53.966 49.005,53.936 49.212,53.898 
			49.423,53.854 49.628,53.785 49.841,53.702 50.062,53.609 50.272,53.489 50.495,53.359 50.19,55.227 50.19,55.227 50.069,55.288 
			49.946,55.35 49.825,55.393 49.712,55.439 49.599,55.477 49.476,55.516 49.354,55.544 49.226,55.568 49.089,55.591 48.937,55.607 
			48.778,55.622 48.603,55.636 48.405,55.645 48.2,55.645 47.966,55.652 47.716,55.652 47.716,55.652 47.343,55.645 46.964,55.607 
			46.585,55.553 46.204,55.461 45.833,55.35 45.476,55.204 45.134,55.014 44.815,54.793 44.519,54.536 44.261,54.225 44.042,53.875 
			43.858,53.473 43.729,53.025 43.646,52.516 43.624,51.955 43.661,51.333 43.661,51.333 43.692,51.089 43.737,50.809 
			43.798,50.514 43.882,50.193 43.997,49.869 44.132,49.542 44.308,49.208 44.519,48.889 44.763,48.584 45.058,48.296 
			45.392,48.039 45.772,47.811 46.212,47.621 46.706,47.484 47.253,47.394 47.868,47.362 47.868,47.362 48.163,47.371 
			48.476,47.401 48.784,47.454 49.097,47.529 49.401,47.644 49.696,47.781 49.97,47.962 50.22,48.174 50.448,48.433 50.639,48.738 
			50.79,49.086 50.896,49.489 50.956,49.943 50.964,50.458 50.911,51.036 50.798,51.674 50.759,52.137 45.226,52.137 45.575,50.641 
			48.899,50.641 48.899,50.641 48.915,50.453 48.907,50.27 48.892,50.103 48.862,49.952 48.808,49.807 48.755,49.677 48.679,49.564 
			48.603,49.458 48.513,49.367 48.413,49.291 48.3,49.222 48.185,49.162 48.065,49.117 47.942,49.086 47.813,49.063 47.679,49.047 
			47.679,49.047 47.532,49.055 47.397,49.079 47.269,49.11 47.14,49.154 47.009,49.214 46.896,49.284 46.78,49.367 46.685,49.458 
			46.585,49.564 46.493,49.677 46.411,49.799 46.341,49.929 46.272,50.066 46.22,50.217 46.175,50.369 46.144,50.527 45.839,52.1 		
			"/>
		<polygon fill="#FFFFFF" points="63.943,47.978 63.845,47.925 63.747,47.878 63.643,47.826 63.525,47.772 63.413,47.727 
			63.284,47.681 63.155,47.635 63.02,47.59 62.874,47.553 62.729,47.523 62.568,47.492 62.411,47.469 62.236,47.454 62.063,47.439 
			61.88,47.439 61.689,47.439 61.501,47.439 61.302,47.454 61.1,47.477 60.884,47.514 60.673,47.575 60.46,47.659 60.249,47.765 
			60.034,47.901 59.829,48.069 59.632,48.266 59.441,48.509 59.261,48.79 59.093,49.124 58.936,49.502 58.792,49.929 58.669,50.415 
			58.624,50.688 58.593,50.953 58.577,51.218 58.585,51.477 58.607,51.734 58.661,51.979 58.729,52.206 58.813,52.434 
			58.927,52.639 59.063,52.835 59.225,53.01 59.405,53.169 59.609,53.307 59.845,53.42 60.104,53.52 60.395,53.587 60.491,53.609 
			60.604,53.632 60.741,53.648 60.895,53.664 61.061,53.678 61.232,53.678 61.425,53.678 61.614,53.664 61.813,53.639 
			62.009,53.602 62.198,53.549 62.389,53.489 62.577,53.404 62.753,53.307 62.911,53.186 63.063,53.048 62.723,55.076 
			62.677,55.113 62.63,55.159 62.568,55.212 62.501,55.256 62.419,55.316 62.313,55.371 62.189,55.424 62.055,55.469 61.88,55.523 
			61.684,55.561 61.454,55.591 61.188,55.622 60.895,55.636 60.552,55.645 60.165,55.636 59.736,55.614 59.391,55.576 59.04,55.5 
			58.689,55.386 58.343,55.234 58.009,55.053 57.689,54.824 57.386,54.559 57.104,54.256 56.854,53.914 56.643,53.535 56.46,53.109 
			56.323,52.646 56.232,52.137 56.202,51.598 56.218,51.006 56.3,50.376 56.361,50.066 56.432,49.762 56.505,49.465 56.581,49.185 
			56.665,48.918 56.764,48.654 56.861,48.403 56.968,48.167 57.083,47.932 57.195,47.711 57.325,47.5 57.462,47.302 57.6,47.112 
			57.749,46.93 57.9,46.763 58.063,46.604 58.234,46.452 58.411,46.308 58.593,46.178 58.784,46.057 58.986,45.943 59.191,45.845 
			59.405,45.754 59.626,45.669 59.859,45.594 60.095,45.534 60.339,45.48 60.598,45.435 60.854,45.396 61.128,45.367 61.4,45.352 
			61.689,45.343 61.934,45.352 62.169,45.367 62.396,45.389 62.624,45.42 62.837,45.45 63.042,45.496 63.236,45.534 63.421,45.579 
			63.595,45.625 63.747,45.669 63.893,45.716 64.014,45.761 64.118,45.798 64.21,45.83 64.277,45.86 64.325,45.875 63.943,47.978 		
			"/>
		<polyline fill="none" stroke="#FFFFFF" stroke-width="0.216" stroke-miterlimit="2.6131" points="63.943,47.978 63.943,47.978 
			63.845,47.925 63.747,47.878 63.643,47.826 63.525,47.772 63.413,47.727 63.284,47.681 63.155,47.635 63.02,47.59 62.874,47.553 
			62.729,47.523 62.568,47.492 62.411,47.469 62.236,47.454 62.063,47.439 61.88,47.439 61.689,47.439 61.689,47.439 61.501,47.439 
			61.302,47.454 61.1,47.477 60.884,47.514 60.673,47.575 60.46,47.659 60.249,47.765 60.034,47.901 59.829,48.069 59.632,48.266 
			59.441,48.509 59.261,48.79 59.093,49.124 58.936,49.502 58.792,49.929 58.669,50.415 58.669,50.415 58.624,50.688 58.593,50.953 
			58.577,51.218 58.585,51.477 58.607,51.734 58.661,51.979 58.729,52.206 58.813,52.434 58.927,52.639 59.063,52.835 59.225,53.01 
			59.405,53.169 59.609,53.307 59.845,53.42 60.104,53.52 60.395,53.587 60.395,53.587 60.491,53.609 60.604,53.632 60.741,53.648 
			60.895,53.664 61.061,53.678 61.232,53.678 61.425,53.678 61.614,53.664 61.813,53.639 62.009,53.602 62.198,53.549 
			62.389,53.489 62.577,53.404 62.753,53.307 62.911,53.186 63.063,53.048 62.723,55.076 62.723,55.076 62.677,55.113 62.63,55.159 
			62.568,55.212 62.501,55.256 62.419,55.316 62.313,55.371 62.189,55.424 62.055,55.469 61.88,55.523 61.684,55.561 61.454,55.591 
			61.188,55.622 60.895,55.636 60.552,55.645 60.165,55.636 59.736,55.614 59.736,55.614 59.391,55.576 59.04,55.5 58.689,55.386 
			58.343,55.234 58.009,55.053 57.689,54.824 57.386,54.559 57.104,54.256 56.854,53.914 56.643,53.535 56.46,53.109 56.323,52.646 
			56.232,52.137 56.202,51.598 56.218,51.006 56.3,50.376 56.3,50.376 56.361,50.066 56.432,49.762 56.505,49.465 56.581,49.185 
			56.665,48.918 56.764,48.654 56.861,48.403 56.968,48.167 57.083,47.932 57.195,47.711 57.325,47.5 57.462,47.302 57.6,47.112 
			57.749,46.93 57.9,46.763 58.063,46.604 58.234,46.452 58.411,46.308 58.593,46.178 58.784,46.057 58.986,45.943 59.191,45.845 
			59.405,45.754 59.626,45.669 59.859,45.594 60.095,45.534 60.339,45.48 60.598,45.435 60.854,45.396 61.128,45.367 61.4,45.352 
			61.689,45.343 61.689,45.343 61.934,45.352 62.169,45.367 62.396,45.389 62.624,45.42 62.837,45.45 63.042,45.496 63.236,45.534 
			63.421,45.579 63.595,45.625 63.747,45.669 63.893,45.716 64.014,45.761 64.118,45.798 64.21,45.83 64.277,45.86 64.325,45.875 
			63.943,47.978 		"/>
		<polygon fill="#FFFFFF" points="82.632,55.652 80.53,55.652 80.684,54.811 80.684,54.732 80.561,54.886 80.434,55.021 
			80.305,55.143 80.167,55.25 80.027,55.35 79.893,55.432 79.755,55.5 79.609,55.568 79.468,55.622 79.323,55.66 79.18,55.697 
			79.025,55.719 78.874,55.743 78.729,55.758 78.579,55.766 78.427,55.766 78.032,55.734 77.669,55.652 77.335,55.523 77.03,55.35 
			76.757,55.127 76.516,54.871 76.302,54.588 76.12,54.271 75.968,53.928 75.848,53.573 75.764,53.201 75.702,52.813 75.682,52.425 
			75.688,52.032 75.727,51.645 75.794,51.257 75.907,50.809 76.046,50.384 76.202,49.997 76.395,49.632 76.591,49.291 
			76.816,48.987 77.055,48.714 77.305,48.463 77.568,48.243 77.852,48.053 78.141,47.886 78.427,47.757 78.729,47.651 
			79.034,47.583 79.339,47.538 79.648,47.523 79.87,47.529 80.081,47.553 80.28,47.59 80.464,47.644 80.636,47.706 80.788,47.772 
			80.939,47.857 81.077,47.94 81.198,48.03 81.313,48.129 81.409,48.228 81.501,48.327 81.577,48.425 81.646,48.524 81.706,48.616 
			81.753,48.707 81.753,48.707 82.284,45.723 84.35,45.723 82.632,55.652 		"/>
		<polyline fill="none" stroke="#FFFFFF" stroke-width="0.216" stroke-miterlimit="2.6131" points="82.632,55.652 80.53,55.652 
			80.684,54.811 80.684,54.732 80.684,54.732 80.561,54.886 80.434,55.021 80.305,55.143 80.167,55.25 80.027,55.35 79.893,55.432 
			79.755,55.5 79.609,55.568 79.468,55.622 79.323,55.66 79.18,55.697 79.025,55.719 78.874,55.743 78.729,55.758 78.579,55.766 
			78.427,55.766 78.427,55.766 78.032,55.734 77.669,55.652 77.335,55.523 77.03,55.35 76.757,55.127 76.516,54.871 76.302,54.588 
			76.12,54.271 75.968,53.928 75.848,53.573 75.764,53.201 75.702,52.813 75.682,52.425 75.688,52.032 75.727,51.645 75.794,51.257 
			75.794,51.257 75.907,50.809 76.046,50.384 76.202,49.997 76.395,49.632 76.591,49.291 76.816,48.987 77.055,48.714 
			77.305,48.463 77.568,48.243 77.852,48.053 78.141,47.886 78.427,47.757 78.729,47.651 79.034,47.583 79.339,47.538 
			79.648,47.523 79.648,47.523 79.87,47.529 80.081,47.553 80.28,47.59 80.464,47.644 80.636,47.706 80.788,47.772 80.939,47.857 
			81.077,47.94 81.198,48.03 81.313,48.129 81.409,48.228 81.501,48.327 81.577,48.425 81.646,48.524 81.706,48.616 81.753,48.707 
			81.753,48.707 82.284,45.723 84.35,45.723 82.632,55.652 		"/>
		<polygon fill="#FBB231" points="79.193,53.814 79.407,53.8 79.604,53.754 79.786,53.702 79.962,53.618 80.12,53.527 
			80.271,53.413 80.415,53.285 80.546,53.146 80.659,52.995 80.766,52.828 80.864,52.652 80.948,52.473 81.021,52.281 
			81.085,52.084 81.139,51.879 81.175,51.674 81.212,51.462 81.236,51.243 81.236,51.036 81.229,50.825 81.206,50.627 
			81.175,50.437 81.122,50.254 81.063,50.081 80.984,49.929 80.896,49.785 80.796,49.662 80.684,49.556 80.555,49.465 
			80.415,49.405 80.271,49.367 80.111,49.351 79.907,49.367 79.718,49.397 79.544,49.458 79.368,49.534 79.216,49.632 
			79.064,49.754 78.938,49.883 78.809,50.028 78.691,50.193 78.587,50.369 78.486,50.55 78.402,50.748 78.329,50.953 78.27,51.159 
			78.208,51.377 78.161,51.598 78.122,51.934 78.141,52.297 78.191,52.668 78.29,53.025 78.441,53.337 78.641,53.587 78.891,53.754 
			79.193,53.814 		"/>
		<polygon fill="#FFFFFF" points="32.579,53.966 32.274,55.652 30.362,55.652 30.415,55.34 30.454,55.061 30.483,54.848 
			30.515,54.732 30.409,54.855 30.286,54.977 30.144,55.09 29.983,55.195 29.802,55.303 29.61,55.393 29.413,55.484 29.21,55.561 
			28.989,55.628 28.769,55.684 28.55,55.729 28.321,55.758 28.101,55.773 27.882,55.781 27.669,55.758 27.462,55.729 27.196,55.66 
			26.954,55.583 26.741,55.484 26.552,55.371 26.386,55.25 26.233,55.113 26.112,54.968 26.005,54.816 25.915,54.658 25.839,54.49 
			25.778,54.324 25.733,54.157 25.702,53.982 25.679,53.807 25.663,53.639 25.663,53.473 25.687,53.176 25.733,52.896 25.808,52.63 
			25.907,52.373 26.028,52.129 26.165,51.91 26.325,51.698 26.507,51.507 26.696,51.333 26.909,51.172 27.128,51.029 27.356,50.907 
			27.599,50.802 27.851,50.717 28.108,50.65 28.374,50.604 28.39,50.604 28.427,50.596 28.479,50.588 28.563,50.582 28.655,50.566 
			28.761,50.559 28.874,50.543 29.005,50.527 29.134,50.514 29.263,50.499 29.399,50.49 29.521,50.475 29.642,50.467 29.755,50.458 
			29.86,50.453 29.944,50.453 30.12,50.453 30.304,50.458 30.47,50.467 30.636,50.467 30.772,50.475 30.88,50.482 30.954,50.49 
			30.978,50.49 30.993,50.437 31.038,50.3 31.077,50.14 31.091,49.997 31.062,49.831 30.993,49.677 30.901,49.542 30.78,49.427 
			30.636,49.33 30.478,49.26 30.294,49.214 30.097,49.2 29.884,49.192 29.655,49.185 29.421,49.185 29.179,49.192 28.929,49.208 
			28.685,49.23 28.442,49.252 28.206,49.284 27.979,49.313 27.759,49.351 27.562,49.388 27.38,49.427 27.212,49.474 27.077,49.518 
			26.97,49.572 26.886,49.617 27.425,47.788 27.593,47.719 27.759,47.659 27.942,47.606 28.124,47.567 28.306,47.529 28.503,47.5 
			28.7,47.469 28.905,47.454 29.118,47.439 29.337,47.431 29.565,47.422 29.802,47.422 30.044,47.422 30.294,47.422 30.56,47.431 
			30.825,47.439 31.038,47.454 31.267,47.492 31.503,47.545 31.743,47.614 31.978,47.706 32.208,47.811 32.435,47.94 32.647,48.083 
			32.837,48.251 33.005,48.433 33.157,48.637 33.271,48.866 33.347,49.11 33.392,49.367 33.392,49.655 33.347,49.958 32.579,53.966 
					"/>
		<polyline fill="none" stroke="#FFFFFF" stroke-width="0.216" stroke-miterlimit="2.6131" points="32.579,53.966 32.274,55.652 
			30.362,55.652 30.362,55.652 30.415,55.34 30.454,55.061 30.483,54.848 30.515,54.732 30.515,54.732 30.409,54.855 30.286,54.977 
			30.144,55.09 29.983,55.195 29.802,55.303 29.61,55.393 29.413,55.484 29.21,55.561 28.989,55.628 28.769,55.684 28.55,55.729 
			28.321,55.758 28.101,55.773 27.882,55.781 27.669,55.758 27.462,55.729 27.462,55.729 27.196,55.66 26.954,55.583 26.741,55.484 
			26.552,55.371 26.386,55.25 26.233,55.113 26.112,54.968 26.005,54.816 25.915,54.658 25.839,54.49 25.778,54.324 25.733,54.157 
			25.702,53.982 25.679,53.807 25.663,53.639 25.663,53.473 25.663,53.473 25.687,53.176 25.733,52.896 25.808,52.63 25.907,52.373 
			26.028,52.129 26.165,51.91 26.325,51.698 26.507,51.507 26.696,51.333 26.909,51.172 27.128,51.029 27.356,50.907 27.599,50.802 
			27.851,50.717 28.108,50.65 28.374,50.604 28.374,50.604 28.39,50.604 28.427,50.596 28.479,50.588 28.563,50.582 28.655,50.566 
			28.761,50.559 28.874,50.543 29.005,50.527 29.134,50.514 29.263,50.499 29.399,50.49 29.521,50.475 29.642,50.467 29.755,50.458 
			29.86,50.453 29.944,50.453 29.944,50.453 30.12,50.453 30.304,50.458 30.47,50.467 30.636,50.467 30.772,50.475 30.88,50.482 
			30.954,50.49 30.978,50.49 30.978,50.49 30.993,50.437 31.038,50.3 31.077,50.14 31.091,49.997 31.091,49.997 31.062,49.831 
			30.993,49.677 30.901,49.542 30.78,49.427 30.636,49.33 30.478,49.26 30.294,49.214 30.097,49.2 30.097,49.2 29.884,49.192 
			29.655,49.185 29.421,49.185 29.179,49.192 28.929,49.208 28.685,49.23 28.442,49.252 28.206,49.284 27.979,49.313 27.759,49.351 
			27.562,49.388 27.38,49.427 27.212,49.474 27.077,49.518 26.97,49.572 26.886,49.617 27.425,47.788 27.425,47.788 27.593,47.719 
			27.759,47.659 27.942,47.606 28.124,47.567 28.306,47.529 28.503,47.5 28.7,47.469 28.905,47.454 29.118,47.439 29.337,47.431 
			29.565,47.422 29.802,47.422 30.044,47.422 30.294,47.422 30.56,47.431 30.825,47.439 30.825,47.439 31.038,47.454 31.267,47.492 
			31.503,47.545 31.743,47.614 31.978,47.706 32.208,47.811 32.435,47.94 32.647,48.083 32.837,48.251 33.005,48.433 33.157,48.637 
			33.271,48.866 33.347,49.11 33.392,49.367 33.392,49.655 33.347,49.958 32.579,53.966 		"/>
		<polygon fill="#EC1C2E" points="30.751,51.984 30.743,51.948 30.712,51.91 30.667,51.886 30.591,51.872 30.507,51.857 
			30.409,51.848 30.294,51.848 30.181,51.848 30.058,51.857 29.929,51.872 29.808,51.886 29.687,51.902 29.573,51.917 
			29.466,51.939 29.376,51.963 29.292,51.984 29.239,52 29.179,52.023 29.095,52.055 29.011,52.091 28.913,52.137 28.813,52.191 
			28.708,52.244 28.608,52.305 28.503,52.38 28.405,52.456 28.313,52.547 28.229,52.639 28.153,52.736 28.101,52.844 28.054,52.964 
			28.032,53.086 28.024,53.344 28.063,53.549 28.138,53.702 28.237,53.814 28.351,53.891 28.479,53.936 28.601,53.959 
			28.724,53.966 28.952,53.959 29.157,53.936 29.354,53.904 29.526,53.859 29.681,53.807 29.823,53.74 29.952,53.67 30.067,53.587 
			30.167,53.511 30.257,53.42 30.333,53.337 30.394,53.246 30.446,53.154 30.491,53.064 30.53,52.98 30.552,52.896 30.614,52.677 
			30.667,52.425 30.712,52.184 30.751,51.984 		"/>
		<polygon fill="#FFFFFF" points="16.608,55.652 14.544,55.652 16.267,45.686 19.858,45.686 20.198,51.598 22.681,45.686 
			26.431,45.686 24.669,55.652 22.604,55.652 23.909,48.206 23.827,48.206 20.737,55.652 18.407,55.652 18.394,55.34 18.339,54.514 
			18.271,53.337 18.194,51.984 18.118,50.627 18.05,49.436 17.997,48.571 17.981,48.206 17.96,48.206 17.915,48.206 17.868,48.206 
			17.868,48.206 16.608,55.652 		"/>
		<polyline fill="none" stroke="#FFFFFF" stroke-width="0.216" stroke-miterlimit="2.6131" points="16.608,55.652 14.544,55.652 
			16.267,45.686 19.858,45.686 20.198,51.598 22.681,45.686 26.431,45.686 24.669,55.652 22.604,55.652 23.909,48.206 
			23.827,48.206 20.737,55.652 18.407,55.652 18.407,55.652 18.394,55.34 18.339,54.514 18.271,53.337 18.194,51.984 18.118,50.627 
			18.05,49.436 17.997,48.571 17.981,48.206 17.981,48.206 17.96,48.206 17.915,48.206 17.868,48.206 17.868,48.206 16.608,55.652 
					"/>
		<polygon fill="#FFFFFF" points="70.253,53.966 69.941,55.652 68.036,55.652 68.052,55.34 68.061,55.068 68.061,54.863 
			68.075,54.771 67.977,54.886 67.859,55 67.725,55.105 67.573,55.212 67.413,55.311 67.23,55.4 67.042,55.493 66.854,55.568 
			66.646,55.628 66.436,55.689 66.223,55.729 66.011,55.758 65.788,55.773 65.577,55.781 65.37,55.758 65.167,55.729 64.895,55.66 
			64.65,55.583 64.438,55.484 64.241,55.371 64.073,55.25 63.93,55.113 63.809,54.968 63.7,54.816 63.609,54.658 63.542,54.49 
			63.48,54.324 63.443,54.157 63.413,53.982 63.391,53.807 63.374,53.639 63.374,53.473 63.391,53.176 63.438,52.896 63.505,52.63 
			63.604,52.373 63.716,52.129 63.861,51.91 64.021,51.698 64.193,51.507 64.395,51.333 64.598,51.172 64.816,51.029 65.052,50.907 
			65.288,50.802 65.538,50.717 65.788,50.65 66.046,50.604 66.063,50.604 66.102,50.596 66.152,50.588 66.229,50.582 66.327,50.566 
			66.436,50.559 66.548,50.543 66.669,50.527 66.798,50.514 66.936,50.499 67.063,50.49 67.193,50.475 67.314,50.467 67.421,50.458 
			67.525,50.453 67.609,50.453 67.792,50.453 67.977,50.458 68.148,50.467 68.316,50.467 68.46,50.475 68.583,50.482 68.65,50.49 
			68.684,50.49 68.695,50.437 68.72,50.3 68.741,50.14 68.757,49.997 68.727,49.831 68.667,49.677 68.566,49.542 68.452,49.427 
			68.316,49.33 68.157,49.26 67.989,49.214 67.809,49.2 67.595,49.192 67.368,49.185 67.132,49.185 66.891,49.192 66.639,49.208 
			66.396,49.23 66.152,49.252 65.917,49.284 65.689,49.313 65.47,49.351 65.273,49.388 65.091,49.427 64.923,49.474 64.786,49.518 
			64.682,49.572 64.598,49.617 65.13,47.788 65.296,47.719 65.47,47.659 65.645,47.606 65.827,47.567 66.018,47.529 66.206,47.5 
			66.402,47.469 66.607,47.454 66.82,47.439 67.042,47.431 67.261,47.422 67.495,47.422 67.73,47.422 67.977,47.422 68.232,47.431 
			68.491,47.439 68.704,47.454 68.934,47.492 69.167,47.545 69.411,47.614 69.646,47.706 69.88,47.811 70.107,47.94 70.32,48.083 
			70.511,48.251 70.688,48.433 70.837,48.637 70.95,48.866 71.034,49.11 71.087,49.367 71.087,49.655 71.05,49.958 70.253,53.966 		
			"/>
		<polygon fill="#FFFFFF" points="69.941,55.706 69.986,55.66 70.298,53.975 70.206,53.959 69.896,55.645 69.941,55.598 
			69.941,55.706 69.979,55.697 69.986,55.66 69.941,55.706 		"/>
		<polygon fill="#FFFFFF" points="67.989,55.652 68.036,55.706 69.941,55.706 69.941,55.598 68.036,55.598 68.081,55.652 
			67.989,55.652 67.982,55.706 68.036,55.706 67.989,55.652 		"/>
		<polygon fill="#FFFFFF" points="68.111,54.8 68.044,54.741 68.014,54.863 68.005,55.068 68.005,55.34 67.989,55.652 
			68.081,55.652 68.098,55.34 68.111,55.068 68.104,54.863 68.104,54.8 68.036,54.741 68.111,54.8 		"/>
		<polygon fill="#FFFFFF" points="65.159,55.773 65.159,55.773 65.37,55.805 65.577,55.826 65.788,55.82 66.011,55.805 
			66.229,55.773 66.441,55.734 66.652,55.675 66.866,55.614 67.057,55.538 67.253,55.448 67.436,55.357 67.595,55.25 67.755,55.143 
			67.893,55.038 68.014,54.916 68.111,54.8 68.036,54.741 67.938,54.855 67.831,54.961 67.693,55.068 67.55,55.174 67.391,55.266 
			67.208,55.357 67.025,55.448 66.837,55.523 66.639,55.583 66.427,55.645 66.214,55.684 66.011,55.712 65.788,55.729 
			65.577,55.734 65.37,55.712 65.173,55.684 65.173,55.684 65.159,55.773 		"/>
		<polygon fill="#FFFFFF" points="63.32,53.473 63.32,53.473 63.329,53.639 63.345,53.807 63.366,53.99 63.396,54.165 
			63.438,54.332 63.497,54.505 63.564,54.68 63.663,54.839 63.771,55 63.893,55.143 64.044,55.288 64.218,55.409 64.415,55.531 
			64.636,55.628 64.884,55.706 65.159,55.773 65.173,55.684 64.9,55.614 64.667,55.538 64.46,55.439 64.264,55.333 64.104,55.212 
			63.966,55.083 63.845,54.938 63.739,54.793 63.657,54.635 63.587,54.475 63.525,54.316 63.489,54.148 63.458,53.975 
			63.438,53.807 63.421,53.639 63.43,53.473 63.43,53.473 63.32,53.473 		"/>
		<polygon fill="#FFFFFF" points="66.046,50.559 66.046,50.559 65.782,50.604 65.523,50.672 65.273,50.755 65.03,50.861 
			64.794,50.982 64.564,51.135 64.361,51.295 64.165,51.477 63.98,51.667 63.823,51.879 63.671,52.107 63.559,52.357 63.458,52.616 
			63.391,52.889 63.345,53.176 63.32,53.473 63.43,53.473 63.438,53.176 63.48,52.904 63.55,52.646 63.646,52.389 63.764,52.152 
			63.898,51.939 64.061,51.727 64.227,51.539 64.421,51.371 64.628,51.21 64.839,51.075 65.075,50.953 65.302,50.848 65.555,50.764 
			65.796,50.695 66.046,50.65 66.046,50.65 66.046,50.559 		"/>
		<polygon fill="#FFFFFF" points="67.609,50.399 67.609,50.399 67.525,50.399 67.421,50.415 67.314,50.423 67.193,50.429 
			67.063,50.444 66.936,50.453 66.798,50.467 66.669,50.482 66.548,50.499 66.436,50.514 66.327,50.52 66.229,50.537 66.152,50.543 
			66.093,50.55 66.063,50.559 66.046,50.559 66.046,50.65 66.063,50.65 66.107,50.641 66.152,50.635 66.229,50.627 66.327,50.611 
			66.436,50.604 66.548,50.588 66.669,50.573 66.798,50.559 66.936,50.543 67.063,50.537 67.193,50.52 67.314,50.514 67.421,50.505 
			67.525,50.505 67.609,50.505 67.609,50.505 67.609,50.399 		"/>
		<polygon fill="#FFFFFF" points="68.636,50.482 68.684,50.444 68.65,50.444 68.583,50.437 68.46,50.429 68.316,50.415 
			68.148,50.415 67.977,50.415 67.792,50.399 67.609,50.399 67.609,50.505 67.792,50.505 67.977,50.505 68.148,50.52 68.316,50.52 
			68.46,50.52 68.583,50.527 68.65,50.537 68.684,50.537 68.727,50.499 68.684,50.537 68.72,50.543 68.727,50.499 68.636,50.482 		
			"/>
		<polygon fill="#FFFFFF" points="68.712,49.997 68.704,49.997 68.695,50.14 68.673,50.292 68.65,50.429 68.636,50.482 
			68.727,50.499 68.741,50.444 68.766,50.306 68.788,50.14 68.813,49.997 68.802,49.997 68.712,49.997 		"/>
		<polygon fill="#FFFFFF" points="67.809,49.246 67.809,49.252 67.982,49.26 68.143,49.306 68.294,49.375 68.423,49.465 
			68.527,49.572 68.62,49.701 68.684,49.837 68.712,49.997 68.802,49.997 68.771,49.823 68.712,49.655 68.604,49.511 68.482,49.388 
			68.339,49.284 68.171,49.214 67.997,49.17 67.809,49.147 67.809,49.154 67.809,49.246 		"/>
		<polygon fill="#FFFFFF" points="64.552,49.61 64.628,49.655 64.704,49.617 64.802,49.564 64.932,49.518 65.1,49.474 65.28,49.436 
			65.479,49.397 65.698,49.359 65.917,49.33 66.152,49.297 66.396,49.275 66.639,49.252 66.891,49.238 67.132,49.238 67.368,49.238 
			67.595,49.238 67.809,49.246 67.809,49.154 67.595,49.147 67.368,49.131 67.132,49.131 66.891,49.147 66.639,49.162 
			66.396,49.185 66.152,49.208 65.917,49.238 65.684,49.267 65.462,49.306 65.266,49.344 65.083,49.382 64.917,49.427 
			64.771,49.474 64.657,49.526 64.564,49.58 64.645,49.625 64.552,49.61 		"/>
		<polygon fill="#FFFFFF" points="65.114,47.742 65.083,47.781 64.552,49.61 64.645,49.625 65.173,47.794 65.145,47.833 
			65.114,47.742 65.091,47.75 65.083,47.781 65.114,47.742 		"/>
		<polygon fill="#FFFFFF" points="68.491,47.394 68.491,47.394 68.232,47.378 67.977,47.371 67.73,47.371 67.495,47.371 
			67.261,47.371 67.042,47.386 66.82,47.394 66.607,47.41 66.402,47.422 66.198,47.454 66.011,47.484 65.818,47.523 65.636,47.561 
			65.454,47.614 65.28,47.674 65.114,47.742 65.145,47.833 65.313,47.765 65.484,47.706 65.65,47.651 65.835,47.614 66.023,47.575 
			66.214,47.545 66.402,47.514 66.607,47.5 66.82,47.484 67.042,47.477 67.261,47.477 67.495,47.477 67.73,47.477 67.977,47.477 
			68.232,47.484 68.491,47.484 68.491,47.484 68.491,47.394 		"/>
		<polygon fill="#FFFFFF" points="71.095,49.966 71.095,49.966 71.134,49.655 71.134,49.367 71.081,49.1 70.997,48.85 
			70.876,48.616 70.725,48.403 70.54,48.213 70.352,48.046 70.132,47.901 69.902,47.765 69.661,47.659 69.425,47.567 69.175,47.5 
			68.938,47.447 68.704,47.41 68.491,47.394 68.491,47.484 68.704,47.5 68.923,47.538 69.159,47.59 69.396,47.659 69.63,47.75 
			69.855,47.857 70.085,47.978 70.29,48.122 70.479,48.289 70.646,48.463 70.798,48.66 70.905,48.882 70.989,49.117 71.042,49.367 
			71.042,49.655 71.003,49.952 71.003,49.952 71.095,49.966 		"/>
		<polygon fill="#FFFFFF" points="70.298,53.975 70.298,53.975 71.095,49.966 71.003,49.952 70.206,53.959 70.206,53.959 
			70.298,53.975 		"/>
		<polygon fill="#FBB231" points="68.415,51.984 68.398,51.939 68.37,51.902 68.316,51.879 68.239,51.857 68.157,51.848 
			68.061,51.84 67.943,51.84 67.831,51.848 67.708,51.864 67.589,51.879 67.468,51.895 67.354,51.91 67.239,51.934 67.141,51.948 
			67.042,51.971 66.966,51.984 66.913,51.993 66.854,52.016 66.775,52.039 66.691,52.068 66.593,52.114 66.501,52.161 
			66.396,52.213 66.298,52.281 66.198,52.35 66.102,52.434 66.018,52.516 65.934,52.616 65.866,52.721 65.813,52.835 65.768,52.958 
			65.743,53.086 65.734,53.344 65.771,53.549 65.835,53.702 65.925,53.814 66.038,53.891 66.169,53.936 66.298,53.959 
			66.427,53.966 66.652,53.959 66.866,53.936 67.063,53.898 67.239,53.846 67.405,53.785 67.55,53.716 67.688,53.639 67.809,53.549 
			67.915,53.465 68.005,53.368 68.089,53.275 68.157,53.176 68.21,53.086 68.247,52.995 68.277,52.904 68.302,52.82 68.331,52.607 
			68.37,52.389 68.398,52.175 68.415,51.984 		"/>
		<polygon fill="#FFFFFF" points="84.052,54.613 84.066,54.438 84.128,54.232 84.234,54.05 84.364,53.891 84.521,53.762 
			84.704,53.67 84.9,53.609 85.114,53.587 85.329,53.609 85.523,53.67 85.708,53.762 85.866,53.891 85.995,54.05 86.102,54.232 
			86.163,54.438 86.18,54.613 85.95,54.613 85.941,54.475 85.896,54.309 85.82,54.157 85.723,54.027 85.602,53.92 85.458,53.846 
			85.29,53.792 85.114,53.777 84.939,53.792 84.773,53.846 84.628,53.92 84.507,54.027 84.409,54.157 84.333,54.309 84.288,54.475 
			84.271,54.613 84.052,54.613 		"/>
		<polygon fill="#FFFFFF" points="84.734,54.613 84.734,54.157 85.152,54.157 85.245,54.165 85.329,54.18 85.389,54.202 
			85.441,54.232 85.479,54.277 85.509,54.324 85.523,54.376 85.532,54.43 85.523,54.498 85.509,54.551 85.486,54.598 85.473,54.613 
			85.152,54.613 85.184,54.604 85.234,54.598 85.282,54.583 85.32,54.566 85.352,54.544 85.366,54.52 85.382,54.484 85.382,54.43 
			85.372,54.393 85.357,54.361 85.333,54.346 85.313,54.332 85.273,54.324 85.234,54.316 85.198,54.316 85.152,54.316 
			84.925,54.316 84.925,54.613 84.734,54.613 		"/>
		<polygon fill="#FFFFFF" points="84.052,54.613 84.046,54.658 84.066,54.877 84.128,55.083 84.234,55.266 84.364,55.417 
			84.521,55.544 84.704,55.645 84.9,55.706 85.114,55.729 85.329,55.706 85.523,55.645 85.708,55.544 85.866,55.417 85.995,55.266 
			86.102,55.083 86.163,54.877 86.188,54.658 86.18,54.613 85.95,54.613 85.958,54.658 85.941,54.839 85.896,55.007 85.82,55.152 
			85.723,55.279 85.602,55.386 85.458,55.469 85.29,55.523 85.114,55.538 84.939,55.523 84.773,55.469 84.628,55.386 84.507,55.279 
			84.409,55.152 84.333,55.007 84.288,54.839 84.271,54.658 84.271,54.613 84.052,54.613 		"/>
		<polygon fill="#FFFFFF" points="84.734,54.613 84.734,55.076 84.925,55.076 84.925,54.695 85.114,54.695 85.343,55.076 
			85.493,55.076 85.268,54.695 85.32,54.695 85.372,54.68 85.419,54.665 85.458,54.635 85.473,54.613 85.152,54.613 85.114,54.62 
			84.925,54.62 84.925,54.613 84.734,54.613 		"/>
		<path fill="none" stroke="#FFFFFF" stroke-width="0.216" stroke-miterlimit="2.6131" d="M84.046,54.658L84.046,54.658l0.021-0.221
			l0.062-0.205l0.106-0.183l0.13-0.159l0.157-0.129l0.183-0.092l0.196-0.063l0.214-0.021l0,0l0.215,0.021l0.194,0.063l0.185,0.092
			l0.158,0.129l0.129,0.159l0.104,0.183l0.063,0.205l0.022,0.221l0,0l-0.022,0.22L86.1,55.083l-0.104,0.183l-0.129,0.151
			l-0.158,0.128l-0.185,0.102l-0.194,0.061l-0.215,0.021l0,0L84.9,55.707l-0.196-0.061l-0.183-0.102l-0.157-0.128l-0.13-0.151
			l-0.106-0.183l-0.062-0.205L84.046,54.658 M84.925,55.076h-0.188v-0.919h0.418l0,0l0.092,0.008l0.084,0.015l0.059,0.022
			l0.055,0.03l0.037,0.045l0.029,0.047l0.016,0.053l0.009,0.055l0,0l-0.009,0.066l-0.016,0.054l-0.021,0.046l-0.029,0.039
			l-0.039,0.028l-0.047,0.017l-0.051,0.016h-0.056l0.228,0.38h-0.15l-0.229-0.38h-0.189v0.379 M85.114,54.62L85.114,54.62
			l0.067-0.017l0.053-0.006l0.048-0.016l0.038-0.016l0.029-0.022l0.017-0.024l0.016-0.035V54.43l0,0l-0.01-0.037l-0.015-0.031
			l-0.024-0.016l-0.021-0.015l-0.037-0.008l-0.039-0.007h-0.037h-0.045h-0.229v0.303L85.114,54.62 M85.114,55.538L85.114,55.538
			l0.176-0.015l0.168-0.055l0.144-0.083l0.121-0.106l0.1-0.127l0.076-0.146l0.045-0.168l0.016-0.182l0,0l-0.016-0.183l-0.045-0.168
			l-0.076-0.15l-0.1-0.131l-0.121-0.105l-0.144-0.074l-0.168-0.054l-0.176-0.017l0,0l-0.175,0.017l-0.166,0.054l-0.146,0.074
			l-0.121,0.105l-0.098,0.131l-0.076,0.15l-0.045,0.168l-0.017,0.183l0,0l0.017,0.182l0.045,0.168l0.076,0.146l0.098,0.127
			l0.121,0.106l0.146,0.083l0.166,0.055L85.114,55.538"/>
		<polygon fill="#FFFFFF" points="70.82,55.652 72.962,55.652 72.962,55.652 73.729,51.333 73.759,51.167 73.805,50.999 
			73.852,50.832 73.911,50.665 73.986,50.499 74.077,50.338 74.177,50.187 74.3,50.042 74.436,49.914 74.587,49.792 74.761,49.677 
			74.958,49.586 75.18,49.511 75.421,49.451 75.688,49.405 75.982,49.388 76.091,49.388 76.148,49.388 76.173,49.388 76.173,49.388 
			76.516,47.439 76.302,47.454 76.098,47.477 75.907,47.514 75.727,47.567 75.559,47.627 75.398,47.706 75.247,47.788 
			75.104,47.878 74.966,47.986 74.837,48.091 74.716,48.213 74.595,48.334 74.479,48.463 74.368,48.607 74.253,48.744 
			74.146,48.896 74.374,47.523 72.241,47.523 70.82,55.652 70.82,55.652 		"/>
		<polyline fill="none" stroke="#FFFFFF" stroke-width="0.216" stroke-miterlimit="2.6131" points="70.82,55.652 72.962,55.652 
			72.962,55.652 73.729,51.333 73.729,51.333 73.759,51.167 73.805,50.999 73.852,50.832 73.911,50.665 73.986,50.499 
			74.077,50.338 74.177,50.187 74.3,50.042 74.436,49.914 74.587,49.792 74.761,49.677 74.958,49.586 75.18,49.511 75.421,49.451 
			75.688,49.405 75.982,49.388 75.982,49.388 76.091,49.388 76.148,49.388 76.173,49.388 76.173,49.388 76.516,47.439 
			76.516,47.439 76.302,47.454 76.098,47.477 75.907,47.514 75.727,47.567 75.559,47.627 75.398,47.706 75.247,47.788 
			75.104,47.878 74.966,47.986 74.837,48.091 74.716,48.213 74.595,48.334 74.479,48.463 74.368,48.607 74.253,48.744 
			74.146,48.896 74.374,47.523 72.241,47.523 70.82,55.652 70.82,55.652 		"/>
		<polygon fill="#FFFFFF" points="50.723,55.652 52.861,55.652 52.898,55.652 53.628,51.333 53.659,51.167 53.695,51.006 
			53.734,50.848 53.788,50.695 53.85,50.543 53.925,50.399 54.016,50.262 54.122,50.133 54.243,50.018 54.38,49.906 54.546,49.814 
			54.729,49.731 54.941,49.662 55.177,49.603 55.436,49.564 55.73,49.542 55.753,49.542 55.784,49.549 55.82,49.556 55.859,49.556 
			55.898,49.564 55.93,49.572 55.95,49.58 55.958,49.58 55.968,49.549 55.989,49.458 56.02,49.322 56.059,49.154 56.109,48.957 
			56.163,48.744 56.232,48.532 56.3,48.318 56.361,48.174 56.438,48.03 56.514,47.886 56.589,47.757 56.657,47.644 56.71,47.553 
			56.747,47.5 56.764,47.477 56.755,47.477 56.727,47.469 56.688,47.461 56.634,47.454 56.581,47.454 56.521,47.447 56.468,47.439 
			56.415,47.439 56.18,47.454 55.968,47.477 55.77,47.514 55.587,47.561 55.411,47.621 55.253,47.698 55.107,47.772 54.973,47.863 
			54.843,47.962 54.723,48.077 54.607,48.191 54.493,48.318 54.38,48.449 54.271,48.593 54.159,48.744 54.046,48.896 54.318,47.523 
			52.143,47.523 50.723,55.652 50.723,55.652 		"/>
		<polyline fill="none" stroke="#FFFFFF" stroke-width="0.216" stroke-miterlimit="2.6131" points="50.723,55.652 52.861,55.652 
			52.898,55.652 53.628,51.333 53.628,51.333 53.659,51.167 53.695,51.006 53.734,50.848 53.788,50.695 53.85,50.543 53.925,50.399 
			54.016,50.262 54.122,50.133 54.243,50.018 54.38,49.906 54.546,49.814 54.729,49.731 54.941,49.662 55.177,49.603 55.436,49.564 
			55.73,49.542 55.73,49.542 55.753,49.542 55.784,49.549 55.82,49.556 55.859,49.556 55.898,49.564 55.93,49.572 55.95,49.58 
			55.958,49.58 55.958,49.58 55.968,49.549 55.989,49.458 56.02,49.322 56.059,49.154 56.109,48.957 56.163,48.744 56.232,48.532 
			56.3,48.318 56.3,48.318 56.361,48.174 56.438,48.03 56.514,47.886 56.589,47.757 56.657,47.644 56.71,47.553 56.747,47.5 
			56.764,47.477 56.764,47.477 56.755,47.477 56.727,47.469 56.688,47.461 56.634,47.454 56.581,47.454 56.521,47.447 
			56.468,47.439 56.415,47.439 56.415,47.439 56.18,47.454 55.968,47.477 55.77,47.514 55.587,47.561 55.411,47.621 55.253,47.698 
			55.107,47.772 54.973,47.863 54.843,47.962 54.723,48.077 54.607,48.191 54.493,48.318 54.38,48.449 54.271,48.593 54.159,48.744 
			54.046,48.896 54.318,47.523 52.143,47.523 50.723,55.652 50.723,55.652 		"/>
		<polygon fill="#FBB231" points="84.066,63.637 84.066,63.607 84.128,63.41 84.234,63.234 84.364,63.083 84.521,62.962 
			84.704,62.871 84.9,62.818 85.114,62.794 85.329,62.818 85.523,62.871 85.708,62.962 85.866,63.083 85.995,63.234 86.102,63.41 
			86.163,63.607 86.163,63.637 85.941,63.637 85.896,63.479 85.82,63.334 85.723,63.205 85.602,63.1 85.458,63.016 85.29,62.962 
			85.114,62.947 84.939,62.962 84.773,63.016 84.628,63.1 84.507,63.205 84.409,63.334 84.333,63.479 84.288,63.637 84.066,63.637 
					"/>
		<polygon fill="#FBB231" points="84.734,63.637 84.734,63.373 85.152,63.373 85.245,63.373 85.329,63.387 85.389,63.4 
			85.441,63.432 85.479,63.471 85.509,63.516 85.523,63.568 85.532,63.637 85.382,63.637 85.382,63.6 85.372,63.561 85.357,63.531 
			85.333,63.516 85.313,63.5 85.273,63.493 85.234,63.486 85.198,63.486 85.152,63.486 84.925,63.486 84.925,63.637 84.734,63.637 
					"/>
		<polygon fill="#FBB231" points="84.046,63.805 84.066,63.637 84.288,63.637 84.288,63.645 84.271,63.805 84.046,63.805 		"/>
		<polygon fill="#FBB231" points="84.734,63.805 84.734,63.637 84.925,63.637 84.925,63.789 85.114,63.789 85.184,63.775 
			85.234,63.768 85.282,63.75 85.32,63.736 85.352,63.713 85.366,63.689 85.382,63.654 85.382,63.637 85.532,63.637 85.532,63.637 
			85.523,63.689 85.509,63.736 85.486,63.775 85.458,63.805 84.734,63.805 		"/>
		<polygon fill="#FBB231" points="85.958,63.805 85.941,63.645 85.941,63.637 86.163,63.637 86.188,63.805 85.958,63.805 		"/>
		<polygon fill="#FBB231" points="84.046,63.805 84.046,63.827 84.066,64.046 84.128,64.251 84.234,64.434 84.364,64.593 
			84.521,64.723 84.704,64.813 84.9,64.875 85.114,64.896 85.329,64.875 85.523,64.813 85.708,64.723 85.866,64.593 85.995,64.434 
			86.102,64.251 86.163,64.046 86.188,63.827 86.188,63.805 85.958,63.805 85.958,63.827 85.941,64.009 85.896,64.176 85.82,64.32 
			85.723,64.448 85.602,64.557 85.458,64.639 85.29,64.693 85.114,64.708 84.939,64.693 84.773,64.639 84.628,64.557 84.507,64.448 
			84.409,64.32 84.333,64.176 84.288,64.009 84.271,63.827 84.271,63.805 84.046,63.805 		"/>
		<polygon fill="#FBB231" points="84.734,63.805 84.734,64.245 84.925,64.245 84.925,63.865 85.114,63.865 85.343,64.245 
			85.493,64.245 85.268,63.865 85.32,63.865 85.372,63.85 85.419,63.834 85.458,63.805 85.458,63.805 84.734,63.805 		"/>
		<path fill="#FFFFFF" d="M50.956,49.943l-0.062-0.454l-0.104-0.402l-0.151-0.349l-0.189-0.305l-0.229-0.259l-0.25-0.212
			l-0.272-0.182l-0.295-0.137l-0.305-0.115l-0.313-0.075L48.475,47.4l-0.313-0.03l-0.295-0.009l-0.615,0.032l-0.547,0.09
			l-0.494,0.137l-0.439,0.19l-0.381,0.228l-0.334,0.258l-0.295,0.288l-0.244,0.305l-0.211,0.318l-0.176,0.334l-0.135,0.327
			l-0.115,0.324l-0.084,0.32l-0.061,0.295l-0.045,0.281l-0.031,0.243l-0.037,0.622l0.021,0.563l0.084,0.508l0.129,0.449l0.184,0.401
			l0.219,0.351l0.258,0.311l0.297,0.258l0.318,0.221l0.342,0.189l0.357,0.146l0.371,0.111l0.381,0.092l0.379,0.055l0.379,0.037
			l0.373,0.008h0.25l0.234-0.008h0.205l0.197-0.009l0.176-0.015l0.158-0.016l0.152-0.016l0.137-0.021l0.129-0.024l0.121-0.028
			l0.123-0.039l0.113-0.037l0.113-0.047l0.121-0.043l0.123-0.063l0.121-0.061l0.305-1.867l-0.223,0.129l-0.211,0.119l-0.221,0.094
			l-0.213,0.083l-0.205,0.067l-0.211,0.045l-0.207,0.039l-0.205,0.029l-0.203,0.016l-0.199,0.008H48.19l-0.195-0.008l-0.199-0.016
			l-0.197-0.021l-0.188-0.023l-0.199-0.029l-0.152-0.031l-0.15-0.053l-0.154-0.066l-0.135-0.086l-0.137-0.09l-0.121-0.112
			l-0.113-0.114l-0.107-0.13l-0.092-0.129l-0.082-0.144l-0.061-0.139l-0.055-0.145l-0.031-0.146l-0.012-0.146l0.006-0.127l0.018-0.1
			h4.924l0.039-0.463l0.113-0.639l0.053-0.577L50.956,49.943z M48.899,50.641h-2.773l0.002-0.006l-0.004-0.001l0.02-0.106
			l0.031-0.158l0.045-0.151l0.053-0.151l0.068-0.137l0.07-0.13l0.082-0.122l0.092-0.113l0.1-0.106l0.096-0.091l0.115-0.083
			l0.113-0.069l0.131-0.061l0.129-0.044l0.129-0.031l0.135-0.023l0.146-0.008l0.135,0.016l0.129,0.023l0.123,0.03l0.119,0.045
			l0.115,0.061l0.113,0.068l0.1,0.076l0.09,0.091l0.076,0.106l0.076,0.113l0.053,0.13l0.055,0.145l0.029,0.151l0.016,0.167
			l0.008,0.183L48.899,50.641z"/>
	</g>
</g>
</svg>
