<?xml version="1.0" encoding="utf-8"?>
<!-- Generator: Adobe Illustrator 22.0.0, SVG Export Plug-In . SVG Version: 6.00 Build 0)  -->
<svg version="1.1" id="Layer_1" xmlns="http://www.w3.org/2000/svg" xmlns:xlink="http://www.w3.org/1999/xlink" x="0px" y="0px"
	 viewBox="0 0 169 48" style="enable-background:new 0 0 169 48;" xml:space="preserve">
<style type="text/css">
	.st0{fill:#FFFFFF;}
	.st1{fill:url(#path-2_2_);}
	.st2{fill:url(#path-5_2_);}
	.st3{fill:url(#path-5_3_);}
	.st4{fill:#5A78FF;}
</style>
<title>white/large</title>
<desc>Created with Sketch.</desc>
<g id="Exportable-buttons">
	<g id="Buttons" transform="translate(-313.000000, -299.000000)">
		<g id="white_x2F_large" transform="translate(313.000000, 299.000000)">
			<g id="Logo-_x2F_-Full-colour-_x2F_-Blue" transform="translate(24.000000, 12.000000)">
				<g id="Blue-logo">
					<g id="Frame">
						<g>
							<path id="path-2" class="st0" d="M9.2,1.1c-0.1,0-0.2,0-0.3,0.1l-7.2,3C1.4,4.3,1.2,4.5,1.1,4.7C1,4.9,1,5.2,1.1,5.4L8,22.3
								c0.2,0.5,0.7,0.7,1.2,0.5l7.2-3c0.5-0.2,0.7-0.7,0.5-1.2L10,1.7C9.9,1.3,9.5,1.1,9.2,1.1 M8.8,24c-0.8,0-1.5-0.5-1.8-1.3
								L0.2,5.8c-0.2-0.5-0.2-1.1,0-1.6c0.2-0.5,0.6-0.9,1.1-1.1l7.2-3c1-0.4,2.2,0.1,2.6,1.1l6.9,16.9c0.4,1-0.1,2.2-1.1,2.6
								l-7.2,3C9.3,24,9.1,24,8.8,24"/>
						</g>
						<g>
							
								<radialGradient id="path-2_2_" cx="-261.1564" cy="430.1013" r="0.3395" gradientTransform="matrix(-6.9569 -16.5928 -16.5928 6.9569 5333.605 -7315.8403)" gradientUnits="userSpaceOnUse">
								<stop  offset="0" style="stop-color:#1D275A"/>
								<stop  offset="0.6108" style="stop-color:#4960DA"/>
								<stop  offset="1" style="stop-color:#5A78FF"/>
							</radialGradient>
							<path id="path-2_1_" class="st1" d="M9.2,1.1c-0.1,0-0.2,0-0.3,0.1l-7.2,3C1.4,4.3,1.2,4.5,1.1,4.7C1,4.9,1,5.2,1.1,5.4
								L8,22.3c0.2,0.5,0.7,0.7,1.2,0.5l7.2-3c0.5-0.2,0.7-0.7,0.5-1.2L10,1.7C9.9,1.3,9.5,1.1,9.2,1.1 M8.8,24
								c-0.8,0-1.5-0.5-1.8-1.3L0.2,5.8c-0.2-0.5-0.2-1.1,0-1.6c0.2-0.5,0.6-0.9,1.1-1.1l7.2-3c1-0.4,2.2,0.1,2.6,1.1l6.9,16.9
								c0.4,1-0.1,2.2-1.1,2.6l-7.2,3C9.3,24,9.1,24,8.8,24"/>
						</g>
					</g>
					<g id="Bill">
						<g>
							
								<linearGradient id="path-5_2_" gradientUnits="userSpaceOnUse" x1="-221.3413" y1="398.3539" x2="-220.8386" y2="398.6446" gradientTransform="matrix(13.6434 0 0 -11.7391 3027.907 4688.9268)">
								<stop  offset="0" style="stop-color:#3B50CC"/>
								<stop  offset="1" style="stop-color:#5A78FF"/>
							</linearGradient>
							<path id="path-5" class="st2" d="M15.2,12.4c-2,0.9-3.8,2.1-4.9,3.5L7.4,8.8c1.2-1.5,2.8-2.6,4.9-3.5c2-0.9,4.1-1.3,5.9-1
								l2.9,7.1C19.2,11.2,17.2,11.5,15.2,12.4"/>
						</g>
						<g>
							
								<radialGradient id="path-5_3_" cx="-202.5642" cy="441.7259" r="0.3825" gradientTransform="matrix(7.188146e-16 11.7391 22.7544 -1.393303e-15 -10035.3496 2388.2644)" gradientUnits="userSpaceOnUse">
								<stop  offset="0" style="stop-color:#3E54B6"/>
								<stop  offset="0.6468" style="stop-color:#4B63DF"/>
								<stop  offset="1" style="stop-color:#5A78FF;stop-opacity:0"/>
							</radialGradient>
							<path id="path-5_1_" class="st3" d="M15.2,12.4c-2,0.9-3.8,2.1-4.9,3.5L7.4,8.8c1.2-1.5,2.8-2.6,4.9-3.5c2-0.9,4.1-1.3,5.9-1
								l2.9,7.1C19.2,11.2,17.2,11.5,15.2,12.4"/>
						</g>
					</g>
					<path id="Bill_1_" class="st4" d="M16.2,14.7c-2.2,0-4.3,0.4-5.8,1.3l0-7.3c1.7-0.9,3.6-1.3,5.8-1.3s4.3,0.4,5.8,1.3l0,7.3
						C20.4,15.1,18.4,14.7,16.2,14.7"/>
				</g>
			</g>
			<path id="Label" class="st4" d="M52.2,30h2.1c0.2,0,0.3-0.1,0.3-0.3l2.4-7.5c0-0.1,0.2-0.1,0.2,0l2.8,7.5
				c0.1,0.2,0.2,0.3,0.4,0.3h1.3c0.2,0,0.3-0.1,0.4-0.3l2.7-7.5c0.1-0.1,0.2-0.1,0.3,0l2.3,7.5c0,0.1,0.1,0.3,0.3,0.3h2.2
				c0.2,0,0.3-0.2,0.3-0.4L66.6,18c-0.1-0.2-0.2-0.3-0.3-0.3h-1.8c-0.2,0-0.3,0.1-0.4,0.3l-2.8,7.3c-0.1,0.2-0.2,0.1-0.3,0L58.2,18
				c-0.1-0.1-0.2-0.3-0.4-0.3H56c-0.2,0-0.3,0.1-0.3,0.3L52,29.6C51.9,29.9,52,30,52.2,30z M75.6,30.2c-2.8,0-4.8-2.1-4.8-4.8
				c0-2.7,2.1-4.8,4.8-4.8c2.8,0,4.8,2.1,4.8,4.8C80.4,28.1,78.4,30.2,75.6,30.2z M75.6,28c1.3,0,2.4-1.1,2.4-2.5
				c0-1.4-1.1-2.5-2.4-2.5c-1.3,0-2.4,1.1-2.4,2.5C73.2,26.9,74.3,28,75.6,28z M87.2,30.2c-1.1,0-1.8-0.4-2.4-1
				c-0.2-0.1-0.3-0.1-0.3,0.2v0.2c0,0.2-0.1,0.3-0.3,0.3h-1.7c-0.2,0-0.3-0.2-0.3-0.3V18.1c0-0.2,0.2-0.3,0.3-0.3h1.8
				c0.2,0,0.3,0.2,0.3,0.3v3.3c0,0.2,0.2,0.3,0.4,0.1c0.5-0.4,1.3-0.8,2.4-0.8c2.5,0,4.4,2.1,4.4,4.8S89.7,30.2,87.2,30.2z M86.8,28
				c1.3,0,2.4-1.1,2.4-2.5c0-1.4-1.1-2.5-2.4-2.5c-1.3,0-2.4,1.1-2.4,2.5C84.4,26.9,85.5,28,86.8,28z M94.5,20
				c0.7,0,1.4-0.6,1.4-1.4c0-0.7-0.6-1.4-1.4-1.4s-1.4,0.6-1.4,1.4C93.1,19.3,93.8,20,94.5,20z M93.6,30h1.8c0.2,0,0.3-0.2,0.3-0.3
				v-8.4c0-0.2-0.2-0.3-0.3-0.3h-1.8c-0.2,0-0.3,0.2-0.3,0.3v8.4C93.3,29.8,93.4,30,93.6,30z M101,30.1c0.2,0,0.3-0.1,0.3-0.3v-1.5
				c0-0.2-0.2-0.3-0.3-0.3c-0.6,0-0.9-0.4-0.9-1v-8.9c0-0.2-0.2-0.3-0.3-0.3H98c-0.2,0-0.3,0.2-0.3,0.3v8.8
				C97.7,29.3,98.6,30.1,101,30.1z M106.8,30.2c-2.7,0-4.7-2-4.7-4.7c0-2.7,2-4.8,4.7-4.8c2.7,0,4.6,2.1,4.6,4.8
				c0,0.3-0.1,0.6-0.4,0.6h-6.2c-0.2,0-0.2,0.1-0.2,0.2c0.1,1,1,1.8,2.2,1.8c0.8,0,1.3-0.3,1.7-0.8c0.2-0.2,0.4-0.3,0.6-0.3h1.7
				c0.3,0,0.4,0.2,0.3,0.5C110.5,29.1,108.8,30.2,106.8,30.2z M104.9,24.7h3.8c0.1,0,0.2-0.1,0.2-0.2c-0.2-1-1-1.7-2.1-1.7
				c-1,0-1.8,0.7-2.1,1.6C104.7,24.6,104.7,24.7,104.9,24.7z M113.6,30c-0.2,0-0.3-0.2-0.3-0.3V18.1c0-0.2,0.1-0.3,0.3-0.3h5.7
				c2.6,0,4.4,1.5,4.4,4c0,2.5-2,4.1-4.5,4.1h-3c-0.2,0-0.3,0.1-0.3,0.3v3.4c0,0.2-0.2,0.3-0.3,0.3H113.6z M116.1,23.8h3
				c1.2,0,1.9-1.1,1.9-2c0-1-0.7-1.9-1.9-1.9h-3c-0.2,0-0.3,0.1-0.3,0.3v3.3C115.8,23.7,115.9,23.8,116.1,23.8z M129.1,30.2
				c-2.4,0-4.4-2-4.4-4.8c0-2.7,2.1-4.8,4.5-4.8c1,0,1.7,0.4,2.4,0.9c0.2,0.1,0.3,0.1,0.3-0.1v-0.3c0-0.2,0.1-0.3,0.3-0.3h1.7
				c0.2,0,0.3,0.2,0.3,0.3v6c0,0.5,0.2,0.6,0.5,0.7c0.2,0,0.3,0.1,0.3,0.3v1.6c0,0.2-0.1,0.3-0.3,0.3c-1.2,0-1.9-0.3-2.3-1
				c-0.1-0.2-0.2-0.2-0.4,0C131.2,29.7,130.4,30.2,129.1,30.2z M129.5,28c1.3,0,2.4-1.1,2.4-2.5c0-1.4-1-2.5-2.4-2.5
				c-1.3,0-2.4,1.1-2.4,2.5C127.1,26.9,128.1,28,129.5,28z M136.2,33.5c2.6,0,3.9-1.1,5.2-4l3.4-8.1c0.1-0.2-0.1-0.4-0.3-0.4h-1.7
				c-0.2,0-0.3,0.1-0.3,0.3l-2,4.8c-0.2,0.4-0.4,0.4-0.5,0l-2.1-4.8c-0.1-0.2-0.2-0.3-0.4-0.3h-1.8c-0.2,0-0.4,0.2-0.3,0.5l3.3,7.5
				c0.1,0.3,0.1,0.5,0.1,0.7c-0.3,1.1-1.4,1.7-2.6,1.7c-0.2,0-0.3,0.1-0.3,0.3v1.5C135.9,33.3,136,33.5,136.2,33.5z"/>
		</g>
	</g>
</g>
</svg>
