<?xml version="1.0" encoding="utf-8"?>
<!-- Generator: Adobe Illustrator 16.0.3, SVG Export Plug-In . SVG Version: 6.00 Build 0)  -->
<!DOCTYPE svg PUBLIC "-//W3C//DTD SVG 1.1//EN" "http://www.w3.org/Graphics/SVG/1.1/DTD/svg11.dtd">
<svg version="1.1" id="Layer_1" xmlns="http://www.w3.org/2000/svg" xmlns:xlink="http://www.w3.org/1999/xlink" x="0px" y="0px"
	 width="100px" height="100px" viewBox="0 0 100 100" enable-background="new 0 0 100 100" xml:space="preserve">
<g id="Interac_x5F_Process_Color">
</g>
<g id="New_Symbol_3">
</g>
<g>
	<path fill="#012169" d="M100,95c0,2.75-2.25,5-5,5H5c-2.75,0-5-2.25-5-5V5c0-2.75,2.25-5,5-5h90c2.75,0,5,2.25,5,5V95z"/>
</g>
<g>
	<path fill="#FFFFFF" d="M47.92,43.676c-0.445,0-1.033,0.362-1.311,0.8c0,0-2.992,5.13-3.285,5.642
		c-0.162,0.276-0.322,0.102-0.35-0.001c-0.021-0.125-0.926-5.606-0.926-5.606c-0.102-0.441-0.564-0.82-1.141-0.818l-1.865,0.003
		c-0.451,0-0.73,0.359-0.629,0.796c0,0,1.424,8.084,1.703,9.984c0.139,1.051-0.016,1.237-0.016,1.237l-1.848,3.224
		c-0.271,0.437-0.123,0.795,0.324,0.795h2.162c0.447,0,1.041-0.356,1.309-0.795l8.316-14.068c0,0,0.795-1.201,0.063-1.191
		C49.928,43.685,47.92,43.676,47.92,43.676"/>
	<path fill="#FFFFFF" d="M21.664,46.536c-0.631,0.46-1.502,0.691-2.635,0.691h-0.512c-0.451,0-0.736-0.358-0.637-0.798l0.629-2.708
		c0.094-0.437,0.547-0.799,0.996-0.794l0.684-0.005c0.799,0,1.404,0.136,1.814,0.408c0.404,0.264,0.607,0.682,0.602,1.243
		C22.617,45.42,22.297,46.074,21.664,46.536 M26.172,42.361c-0.26-0.506-0.648-0.917-1.145-1.228
		c-0.516-0.318-1.113-0.537-1.813-0.67c-0.701-0.125-1.523-0.186-2.465-0.195l-4.359,0.004c-0.453,0.006-0.896,0.359-1,0.795
		l-2.938,12.779c-0.104,0.437,0.182,0.797,0.631,0.797h2.088c0.451,0,0.9-0.353,1-0.797l0.721-3.103
		c0.096-0.434,0.543-0.793,0.994-0.793h0.598c2.553-0.003,4.535-0.524,5.957-1.57c1.422-1.043,2.133-2.426,2.129-4.138
		C26.574,43.491,26.445,42.863,26.172,42.361"/>
	<path fill="#FFFFFF" d="M36.236,44.187c-0.793-0.442-2.031-0.666-3.729-0.666c-0.84,0-1.684,0.066-2.529,0.198
		c-0.623,0.096-0.684,0.111-1.072,0.195c-0.793,0.174-0.916,0.968-0.916,0.968l-0.254,1.048c-0.145,0.672,0.238,0.644,0.406,0.591
		c0.348-0.104,0.535-0.206,1.242-0.367c0.676-0.154,1.391-0.269,1.959-0.265c0.836,0,1.473,0.091,1.895,0.268
		c0.424,0.185,0.631,0.499,0.631,0.948c0.004,0.106,0.004,0.208-0.033,0.294c-0.035,0.084-0.102,0.163-0.303,0.189
		c-1.189,0.072-2.045,0.181-3.078,0.33c-1.018,0.144-1.906,0.389-2.65,0.729C27.01,49,26.416,49.47,26.01,50.067
		c-0.4,0.6-0.6,1.326-0.602,2.18c0,0.81,0.291,1.467,0.854,1.979c0.568,0.504,1.307,0.754,2.201,0.754
		c0.559-0.004,0.996-0.045,1.311-0.123c0.311-0.078,0.65-0.188,1.006-0.344c0.268-0.111,0.557-0.272,0.861-0.477
		c0.305-0.202,0.516-0.348,0.787-0.523l0.008,0.016l-0.076,0.337c0,0.003-0.004,0.005-0.004,0.009l0.004,0.006
		c-0.09,0.405,0.154,0.741,0.555,0.78l0.006,0.008h0.035l0.002,0.005c0.266,0,1.18-0.003,1.607-0.005h0.297
		c0.02,0,0.023-0.007,0.029-0.011c0.41-0.053,0.801-0.383,0.895-0.783l1.525-6.583c0.033-0.152,0.061-0.332,0.078-0.538
		c0.02-0.208,0.041-0.379,0.035-0.502C37.428,45.318,37.027,44.63,36.236,44.187z M32.543,52.029
		c-0.26,0.164-0.533,0.303-0.82,0.422c-0.385,0.154-0.752,0.236-1.09,0.236c-0.518,0-0.918-0.073-1.188-0.229
		c-0.27-0.147-0.412-0.408-0.408-0.778c0-0.428,0.1-0.759,0.305-1.02c0.207-0.252,0.512-0.452,0.889-0.603
		c0.379-0.129,0.844-0.232,1.379-0.309c0.477-0.061,1.418-0.167,1.537-0.169c0.121-0.001,0.201-0.067,0.146,0.253
		c-0.021,0.14-0.295,1.256-0.42,1.764C32.836,51.749,32.635,51.971,32.543,52.029z"/>
	<path fill="#FFFFFF" d="M74.152,44.196c-0.791-0.441-2.031-0.665-3.729-0.665c-0.84,0-1.682,0.066-2.526,0.198
		c-0.623,0.095-0.688,0.11-1.07,0.193c-0.797,0.174-0.918,0.969-0.918,0.969l-0.256,1.05c-0.144,0.67,0.238,0.642,0.408,0.59
		c0.348-0.104,0.535-0.209,1.241-0.369c0.677-0.152,1.392-0.269,1.959-0.264c0.837,0,1.472,0.092,1.896,0.269
		c0.424,0.185,0.631,0.498,0.631,0.946c0.002,0.107,0.004,0.208-0.033,0.296c-0.035,0.083-0.102,0.162-0.301,0.189
		c-1.193,0.07-2.051,0.179-3.082,0.33c-1.016,0.144-1.906,0.388-2.65,0.728c-0.793,0.352-1.385,0.822-1.795,1.419
		c-0.398,0.6-0.598,1.325-0.6,2.181c0,0.809,0.291,1.469,0.854,1.979c0.568,0.506,1.307,0.755,2.201,0.755
		c0.559-0.005,0.996-0.044,1.311-0.123c0.31-0.078,0.648-0.188,1.007-0.343c0.266-0.112,0.555-0.273,0.858-0.478
		c0.305-0.204,0.517-0.348,0.787-0.524l0.01,0.017l-0.076,0.337c0,0.003-0.004,0.005-0.004,0.007l0.002,0.007
		c-0.088,0.405,0.156,0.741,0.558,0.783l0.006,0.006h0.033l0.002,0.002c0.269,0,1.18,0,1.606-0.002h0.299
		c0.021,0,0.021-0.006,0.027-0.012c0.412-0.05,0.803-0.383,0.896-0.784l1.523-6.58c0.037-0.154,0.063-0.333,0.08-0.54
		c0.02-0.208,0.041-0.378,0.034-0.503C75.346,45.328,74.945,44.64,74.152,44.196z M70.459,52.039
		c-0.258,0.162-0.533,0.303-0.818,0.423c-0.387,0.154-0.752,0.236-1.09,0.236c-0.518,0-0.92-0.074-1.188-0.23
		c-0.271-0.147-0.412-0.407-0.406-0.776c0-0.428,0.098-0.762,0.303-1.021c0.205-0.25,0.512-0.452,0.891-0.603
		c0.377-0.128,0.841-0.232,1.375-0.308c0.478-0.061,1.418-0.169,1.539-0.17c0.119,0,0.199-0.067,0.146,0.253
		c-0.025,0.14-0.297,1.256-0.42,1.764C70.754,51.758,70.553,51.979,70.459,52.039z"/>
	<path fill="#FFFFFF" d="M59.574,46.588c-0.627,0.455-1.504,0.684-2.633,0.684h-0.521c-0.448,0.005-0.739-0.358-0.633-0.794
		l0.625-2.713c0.094-0.43,0.551-0.795,0.994-0.79l0.686-0.005c0.804,0.005,1.402,0.139,1.814,0.404
		c0.405,0.271,0.604,0.688,0.606,1.246C60.518,45.469,60.203,46.122,59.574,46.588 M64.082,42.407
		c-0.262-0.506-0.654-0.914-1.15-1.23c-0.51-0.317-1.115-0.538-1.815-0.667c-0.691-0.122-1.517-0.191-2.455-0.193l-4.367,0.002
		c-0.451,0.008-0.894,0.361-0.996,0.797l-2.936,12.78c-0.109,0.435,0.182,0.797,0.623,0.793l2.099-0.002
		c0.442,0.002,0.896-0.356,1.002-0.791l0.709-3.102c0.101-0.436,0.554-0.8,1.004-0.793h0.597c2.555,0,4.539-0.525,5.957-1.571
		c1.418-1.052,2.129-2.429,2.129-4.144C64.475,43.539,64.348,42.908,64.082,42.407"/>
	<g>
		<g>
			<path fill="#FFFFFF" d="M81.354,40.422h-1.869h-0.002H79.48c-0.42,0-0.838,0.319-0.969,0.726
				c-0.008,0.024-0.025,0.044-0.031,0.069c0,0-0.037,0.172-0.103,0.467l-2.58,11.698c-0.063,0.275-0.104,0.455-0.116,0.5
				l0.006,0.009c-0.086,0.401,0.156,0.728,0.552,0.771l0.012,0.017h1.938c0.422,0,0.845-0.324,0.973-0.729
				c0.008-0.023,0.023-0.042,0.029-0.065l2.799-12.666l-0.006-0.002C82.078,40.782,81.8,40.422,81.354,40.422z"/>
		</g>
	</g>
	<g>
		<path fill="#FFFFFF" d="M84.189,43c-0.064,0.018-0.135,0.031-0.211,0.041c-0.076,0.013-0.146,0.018-0.203,0.018
			c-0.207,0-0.365-0.056-0.474-0.167s-0.161-0.291-0.161-0.536v-1.081h-0.23v-0.288h0.23v-0.583h0.342v0.583h0.707v0.288h-0.707
			V42.2c0,0.106,0.004,0.189,0.008,0.249c0.006,0.062,0.021,0.117,0.051,0.17c0.025,0.049,0.063,0.083,0.109,0.106
			c0.049,0.021,0.119,0.033,0.215,0.033c0.057,0,0.113-0.009,0.176-0.025c0.059-0.015,0.102-0.029,0.129-0.041h0.02V43L84.189,43z"
			/>
		<path fill="#FFFFFF" d="M87.568,43.02h-0.342v-1.158c0-0.086-0.004-0.171-0.013-0.253c-0.01-0.081-0.024-0.146-0.051-0.194
			c-0.029-0.052-0.068-0.092-0.121-0.117c-0.053-0.027-0.125-0.041-0.226-0.041c-0.096,0-0.19,0.023-0.289,0.073
			c-0.096,0.046-0.188,0.107-0.286,0.182c0.004,0.027,0.008,0.06,0.01,0.098c0.002,0.036,0.004,0.072,0.004,0.108v1.303h-0.342
			v-1.158c0-0.089-0.004-0.175-0.013-0.255c-0.008-0.081-0.024-0.146-0.049-0.193c-0.031-0.053-0.067-0.092-0.121-0.118
			c-0.053-0.025-0.127-0.039-0.227-0.039c-0.094,0-0.186,0.022-0.281,0.07c-0.094,0.045-0.188,0.104-0.281,0.175v1.519H84.6v-2.033
			h0.342v0.225c0.107-0.087,0.216-0.157,0.32-0.206c0.105-0.05,0.219-0.075,0.338-0.075c0.14,0,0.256,0.029,0.354,0.088
			c0.096,0.058,0.168,0.139,0.215,0.243c0.14-0.117,0.265-0.202,0.379-0.253c0.113-0.052,0.236-0.078,0.365-0.078
			c0.223,0,0.389,0.068,0.494,0.203c0.106,0.136,0.159,0.326,0.159,0.566v1.318H87.568z"/>
	</g>
</g>
</svg>
