<svg id="Layer_1" data-name="Layer 1" xmlns="http://www.w3.org/2000/svg" viewBox="0 0 850.09 361.09"><defs><style>.cls-1{fill:#fff;stroke:#fff;}.cls-1,.cls-2,.cls-3{stroke-miterlimit:10;stroke-width:0.09px;}.cls-2{fill:#273896;stroke:#273896;}.cls-3{fill:#ec1c25;stroke:#ec1c25;}</style></defs><title>Sodexo</title><polygon class="cls-1" points="0.05 0.05 850.05 0.05 850.05 361.05 0.05 361.05 0.05 0.05 0.05 0.05"/><path class="cls-2" d="M911.35,274.05c4.1-8.4,8-16.9,12.2-25.3,1.1,8.6,2.3,17.1,3.5,25.7,8.3-2.8,16.4-6.1,24.8-8.5-5.9,7.2-11.6,14.6-17.3,22,6.2,4.9,12.4,9.6,18.5,14.5-8.3.9-16.6,1.3-24.9,2-.3,8.8-.9,17.7-1.4,26.6-4.8-6.4-9.2-13-13.8-19.5-6.9,6.3-13.9,12.6-20.6,19.1,2.6-9,5.2-18,7.7-27-8-1-16.1-2.1-24.1-3.2,7.8-4.4,15.7-8.9,23.5-13.4-3.2-7.7-6.5-15.3-9.6-23,7.1,3.5,14.4,6.5,21.5,10Z" transform="translate(-257 -204)"/><path class="cls-2" d="M676.25,324c7-.6,14-1,20.9-1.5q-7.5,39.9-15.1,79.6c-2.4,12-8,24.2-18.1,31.6-10.7,8.1-24.8,10.1-37.9,9.5-11.6-.6-23.8-4.5-31.3-13.9-7.7-9.9-8.1-23.6-4.5-35.2,3.8-14.2,14.7-26,28.2-31.6,16.1-7.3,34.2-6.1,51.4-5.6,2.1-11,4.3-22,6.4-32.9Z" transform="translate(-257 -204)"/><path class="cls-3" d="M834.25,389.85c21.1-18,40.1-38.4,58-59.5a163.31,163.31,0,0,1-45,73.4c-5,4-9.6,8.7-15.2,12.1-18.3,12.4-39.9,20.4-62.1,20.6l.5-.4a388.13,388.13,0,0,0,50-34.3c4.6-3.9,9.5-7.6,13.8-11.9Z" transform="translate(-257 -204)"/><path class="cls-2" d="M529.65,357.85c11.7-1.2,24.4-.3,34.8,5.8A29.48,29.48,0,0,1,579,385c1.6,11.9-2.1,24.3-8.8,34.1-10.1,14.7-27.5,23.3-45,24.8-11.5.9-23.8,0-34-6.1a29.44,29.44,0,0,1-14.4-22.2c-1.3-13,3.2-26.3,11.4-36.4,10.2-12.4,25.7-19.7,41.5-21.3Z" transform="translate(-257 -204)"/><path class="cls-2" d="M707.65,373.55c12.2-11.8,29.7-16.7,46.4-16.3,8.8.2,18.4,1.6,25.3,7.5s7.8,16.7,4,24.6c-3.5,6.9-10.4,11.4-17.4,14.2-16.7,6.3-35.1,5.6-52.4,2.5-1,9.6,3.2,19.9,11.9,24.7,13.7,7.3,30,6.9,45,5.3l-.5.4c-13,8.9-29.6,11.5-45,8.9-10.1-1.6-20.3-6.2-26.6-14.5-5.2-6.3-7.3-14.7-6.6-22.8a50.3,50.3,0,0,1,15.9-34.5Z" transform="translate(-257 -204)"/><path class="cls-2" d="M932.65,357.85c12-1.7,24.8-1.4,36,3.9,8.9,4,15.9,12.4,17.5,22.1,2.1,11.9-1.4,24.4-7.9,34.5-9.3,14.5-25.8,23.6-42.7,26-11.9,1.6-24.5,1-35.5-4.2-8.5-4-15.2-11.8-17-21-2.3-11.3.6-23.1,6.2-33,9-15.6,25.8-25.7,43.4-28.3Z" transform="translate(-257 -204)"/><path class="cls-2" d="M418.75,361.65a104,104,0,0,1,28.3-3.4,173.46,173.46,0,0,1,31.4,2.4c-1.5,4-3,7.9-4.3,11.9-14.9-1.1-30.3-2.1-45.1,1.3-4.5,1.2-10.3,3-11.5,8.3-.2,4,3.5,6.3,6.9,7.3,10.6,2.9,22,2.5,32,7.2,4.7,2.1,8.7,6.2,9.5,11.4a27.85,27.85,0,0,1-6.7,23.1c-6.5,7-16.1,10.1-25.2,11.8-18.9,3-38.4,1.4-56.8-3.3,1-4.2,2.2-8.4,3.2-12.6,15.9,2,32.2,4.5,48.1,1.2,6-1.3,12.8-4.5,13.9-11.2,1.2-4.4-2.7-7.9-6.5-9-10.1-3.1-20.9-2.4-30.8-6.1-4.3-1.6-8.5-4.5-10.1-8.9-3-7.7-.2-16.8,5.8-22.2a45.63,45.63,0,0,1,17.9-9.2Z" transform="translate(-257 -204)"/><path class="cls-2" d="M789.55,358.25c6.5,0,13.1.1,19.6,0a402.66,402.66,0,0,0,25.6,31.1l-.5.5c-4.3,4.3-9.2,8-13.8,11.9a427.85,427.85,0,0,1-30.9-43.5Z" transform="translate(-257 -204)"/><path class="cls-1" d="M628.65,375.65c11.6-6,25.1-5.9,37.8-4.5-2.3,10.6-4.3,21.2-6.5,31.7-1.2,6.7-3.7,13.6-8.9,18.2-6.4,5.9-15.7,7.2-24,6.2-5.8-.5-12-3.3-14.7-8.8-3.3-6.3-2.2-13.8-.5-20.4,2.3-9.3,8.1-18,16.8-22.4Z" transform="translate(-257 -204)"/><path class="cls-1" d="M734.75,373.75c7.1-3.2,15.4-4.5,23.1-2.5,3.6.9,6.9,3.9,7.1,7.9.9,6.3-4.6,11.2-10,13.1-12.4,4.1-25.8,3.1-38.4,1,3.6-8.3,9.9-15.7,18.2-19.5Z" transform="translate(-257 -204)"/><path class="cls-1" d="M527.55,372.75c7.6-1.8,16.4-1.1,22.6,4,5.1,4.5,6.8,11.8,6,18.3a41.35,41.35,0,0,1-8.3,20.7,34.25,34.25,0,0,1-27.8,13.1c-5.8,0-12-1.4-16.1-5.7a17.2,17.2,0,0,1-4.5-11.2c-.7-17.2,10.7-35.2,28.1-39.2Z" transform="translate(-257 -204)"/><path class="cls-1" d="M934.45,372.55c7.2-1.6,15.5-1.2,21.6,3.3,4.8,3.5,7.2,9.4,7.3,15.2.2,14.9-8.5,30.2-22.6,35.9-7.9,3.2-17.1,3.7-25.1.5a16.05,16.05,0,0,1-9.9-13.5c-1.6-18.1,10.4-37.4,28.7-41.4Z" transform="translate(-257 -204)"/><path class="cls-2" d="M832.05,415.85c5.6-3.4,10.2-8.1,15.2-12.1,12.3,13.5,24.8,26.8,37.3,40.1-8.7-.2-17.5.1-26.2-.1-2.3-1.4-3.8-3.5-5.7-5.3-7.2-7.3-14.2-14.7-20.6-22.6Z" transform="translate(-257 -204)"/></svg>