<?xml version="1.0" encoding="utf-8"?>
<!-- Generator: Adobe Illustrator 15.0.2, SVG Export Plug-In . SVG Version: 6.00 Build 0)  -->
<!DOCTYPE svg PUBLIC "-//W3C//DTD SVG 1.1//EN" "http://www.w3.org/Graphics/SVG/1.1/DTD/svg11.dtd">
<svg version="1.1" id="Layer_1" xmlns="http://www.w3.org/2000/svg" xmlns:xlink="http://www.w3.org/1999/xlink" x="0px" y="0px"
	 width="891.562px" height="232.441px" viewBox="0 0 891.562 232.441" enable-background="new 0 0 891.562 232.441"
	 xml:space="preserve">
<polygon fill="#10125A" points="231.087,50.743 253.789,50.743 253.789,111.146 267.289,111.146 267.289,50.743 288.595,50.743 
	290.2,39.042 231.087,39.042 "/>
<rect x="293.986" y="39.042" fill="#10125A" width="12.701" height="11.101"/>
<rect x="293.986" y="57.144" fill="#10125A" width="12.701" height="54.003"/>
<g>
	<defs>
		<rect id="SVGID_1_" width="891.562" height="232.441"/>
	</defs>
	<clipPath id="SVGID_2_">
		<use xlink:href="#SVGID_1_"  overflow="visible"/>
	</clipPath>
	<path clip-path="url(#SVGID_2_)" fill="#10125A" d="M340.937,67.145c4.329,0,7.814,1.747,9.507,2.789l0.745,0.458l4.31-10.248
		l-0.62-0.317c-4.782-2.445-9.626-3.583-15.243-3.583c-16.718,0-27.951,11.193-27.951,27.852c0,16.718,11.152,27.951,27.752,27.951
		c4.322,0,8.552-0.841,11.911-2.367l0.401-0.183l0.954-11.794l-1.251,0.751c-2.797,1.676-6.197,2.608-9.828,2.693l-0.413,0.003
		c-10.07,0-16.325-6.534-16.325-17.054C324.886,73.957,331.336,67.145,340.937,67.145"/>
	<path clip-path="url(#SVGID_2_)" fill="#10125A" d="M399.552,97.668l-2.808-8.824c-2.331-6.569-4.56-9.499-11.608-9.499h-0.004
		l18.401-22.202h-14.356l-17.501,21.802h-0.791V39.042h-12.7v72.105h12.7V88.345h8.251c3.75,0,4.811,1.352,6.287,5.682l2.702,8.306
		c1.326,3.977,3.007,7.676,3.331,8.377l0.201,0.437h14.421l-0.826-1.181C403.335,107.228,401.046,101.804,399.552,97.668"/>
	<path clip-path="url(#SVGID_2_)" fill="#10125A" d="M431.234,56.244c-16.312,0-28.152,11.545-28.152,27.451
		c0,16.958,11.756,28.352,29.252,28.352c5.244,0,9.881-0.854,13.414-2.468l0.403-0.184l0.837-11.25l-1.225,0.7
		c-3.345,1.911-6.944,2.802-11.329,2.802c-7.837,0-16.509-3.803-17.772-14.401h42.02l0.004-0.746
		c0.056-9.7-2.716-17.644-8.015-22.973C445.935,58.762,439.213,56.244,431.234,56.244 M445.059,77.545H416.79
		c1.918-7.097,7.332-11.301,14.645-11.301C438.842,66.244,443.767,70.349,445.059,77.545"/>
	<path clip-path="url(#SVGID_2_)" fill="#10125A" d="M485.152,109.971c-0.239-0.348-0.504-0.723-0.786-1.125
		c-3.244-4.612-9.282-13.196-9.282-25.051V67.944h8.977l1.873-10.3h-10.85V38.792l-12.702,4.99v39.813
		c0,13.215,5.39,21.473,8.285,25.91c0.309,0.473,0.589,0.902,0.831,1.289l0.219,0.353h14.246L485.152,109.971"/>
	<path clip-path="url(#SVGID_2_)" fill="#10125A" d="M58.245,182.921c-0.564-1.346-1.082-2.743-1.583-4.097
		c-2.178-5.876-4.42-11.924-10.939-14.695c8.692-1.963,15.081-10.332,15.081-20.522c0-10.975-7.066-22.05-22.851-22.05H0v72.104
		h13.501v-29.175c1.074,1.446,2.896,2.674,7.351,2.674h6.3c10.298,0,12.513,6.272,15.578,14.951
		c0.419,1.189,0.852,2.413,1.322,3.667c1.314,3.437,2.951,6.444,4.171,7.663l0.219,0.22h16.073l-0.975-1.219
		C62.003,190.522,59.713,186.15,58.245,182.921 M13.501,132.957h20.751c8.222,0,12.051,3.702,12.051,11.651
		c0,7.108-4.355,11.351-11.651,11.351H21.051c-4.939,0-7.55-2.093-7.55-6.051V132.957z"/>
	<path clip-path="url(#SVGID_2_)" fill="#10125A" d="M92.051,138.758c-16.313,0-28.152,11.545-28.152,27.45
		c0,16.958,11.755,28.353,29.252,28.353c5.245,0,9.883-0.854,13.412-2.468l0.403-0.185l0.838-11.251l-1.224,0.7
		c-3.344,1.912-6.943,2.802-11.329,2.802c-7.838,0-16.509-3.803-17.772-14.399h42.019l0.004-0.746
		c0.056-9.7-2.715-17.644-8.015-22.975C106.75,141.276,100.029,138.758,92.051,138.758 M105.875,160.059H77.606
		c1.917-7.097,7.332-11.301,14.645-11.301C99.658,148.758,104.582,152.863,105.875,160.059"/>
	<path clip-path="url(#SVGID_2_)" fill="#10125A" d="M146.366,161.629l-4.3-2c-0.482-0.226-0.962-0.444-1.437-0.66
		c-3.772-1.721-7.03-3.204-7.03-5.761c0-1.051,0-4.25,7.451-4.25c4.26,0,9.117,1.488,12.995,3.98l0.744,0.479l4.437-10.277
		l-0.655-0.311c-5.545-2.626-11.981-4.071-18.121-4.071c-12.43,0-19.851,5.438-19.851,14.551c0,8.354,6.451,11.997,13.634,15.281
		l4.302,2.001c5.074,2.342,8.665,4.288,8.665,8.019c0,3.802-2.47,5.651-7.551,5.651c-4.612,0-9.337-1.346-14.443-4.11l-0.741-0.401
		l-4.179,10.448l0.654,0.296c6.058,2.736,12.243,4.067,18.91,4.067c15.078,0,20.451-8.291,20.451-16.051
		C160.301,169.026,153.419,164.971,146.366,161.629"/>
	<path clip-path="url(#SVGID_2_)" fill="#10125A" d="M186.178,191.356c-3.243-4.611-9.28-13.195-9.28-25.046v-15.852h8.977
		l1.873-10.301h-10.85v-18.852l-12.7,4.99v39.812c0,13.214,5.388,21.473,8.283,25.91c0.309,0.472,0.589,0.902,0.831,1.29
		l0.221,0.352h14.243l-0.809-1.176C186.726,192.136,186.461,191.76,186.178,191.356"/>
	<path clip-path="url(#SVGID_2_)" fill="#10125A" d="M216.649,138.758c-17.066,0-29.452,11.84-29.452,28.151
		c0,16.222,11.288,27.551,27.451,27.551c7.605,0,14.468-2.856,19.152-7.904v7.104h12.401V167.41
		C246.201,150.005,234.601,138.758,216.649,138.758 M216.549,183.361c-9.72,0-16.251-6.692-16.251-16.652
		c0-9.706,6.834-16.75,16.251-16.75c9.78,0,16.351,6.731,16.351,16.75C232.9,176.668,226.329,183.361,216.549,183.361"/>
	<path clip-path="url(#SVGID_2_)" fill="#10125A" d="M290.1,170.609c0,8.343-4.064,12.752-11.751,12.752
		c-7.688,0-11.751-4.409-11.751-12.752v-30.951h-12.601v32.752c0,13.87,9.104,22.151,24.352,22.151S302.7,186.28,302.7,172.41
		v-32.752h-12.6V170.609"/>
	<path clip-path="url(#SVGID_2_)" fill="#10125A" d="M341.029,140.28c-0.099-0.024-0.253-0.067-0.452-0.123
		c-1.373-0.383-5.022-1.397-8.43-1.397c-14.366,0-21.651,7.385-21.651,21.949v32.952h12.601v-30.952
		c0-9.104,2.621-12.649,9.351-12.649c2.477,0,4.68,0.779,5.51,1.074l1.019,0.341l2.783-11.012L341.029,140.28"/>
	<path clip-path="url(#SVGID_2_)" fill="#10125A" d="M369.347,138.758c-17.066,0-29.452,11.84-29.452,28.151
		c0,16.222,11.289,27.551,27.451,27.551c7.605,0,14.467-2.856,19.152-7.904v7.104h12.4V167.41
		C398.898,150.005,387.299,138.758,369.347,138.758 M369.247,183.361c-9.721,0-16.251-6.692-16.251-16.652
		c0-9.706,6.834-16.75,16.251-16.75c9.78,0,16.351,6.731,16.351,16.75C385.598,176.668,379.027,183.361,369.247,183.361"/>
	<path clip-path="url(#SVGID_2_)" fill="#10125A" d="M431.046,138.857c-15.248,0-24.351,8.244-24.351,22.052v32.752h12.6v-30.952
		c0-8.341,4.064-12.75,11.751-12.75c7.688,0,11.751,4.409,11.751,12.75v30.952h12.602v-32.752
		C455.398,147.101,446.295,138.857,431.046,138.857"/>
	<path clip-path="url(#SVGID_2_)" fill="#10125A" d="M485.162,192.485c-0.24-0.349-0.505-0.725-0.789-1.13
		c-3.243-4.611-9.279-13.195-9.279-25.045v-15.852h8.978l1.872-10.301h-10.85v-18.852l-12.7,4.99v39.812
		c0,13.214,5.389,21.472,8.283,25.909c0.309,0.473,0.589,0.903,0.832,1.291l0.22,0.352h14.244L485.162,192.485"/>
	<path clip-path="url(#SVGID_2_)" fill="#ED1C24" d="M656.066,100.934c-6.74,0-11.03,4.391-12.357,10.212h24
		C666.893,104.713,662.398,100.934,656.066,100.934"/>
	<path clip-path="url(#SVGID_2_)" fill="#ED1C24" d="M591.931,103.486c-8.579,0-13.991,5.925-13.991,14.198
		c0,8.17,5.516,14.296,13.991,14.296c8.478,0,14.196-5.82,14.196-14.296C606.127,109.206,600.408,103.486,591.931,103.486"/>
	<path clip-path="url(#SVGID_2_)" fill="#ED1C24" d="M765.128,89.903c-12.881,0-22.918,5.148-24.555,18.504
		c-0.12,0.008,0.079-0.004-0.041,0.003C736.482,47.865,688.715,0.001,627.154,0.001c-48.654,0-90.301,29.91-107.621,72.336h41.249
		l-2.145,13.89h-32.376v14.707h29.312l-2.248,13.379h-27.064v8.579c0,5.208,2.248,7.66,6.537,7.66h27.678l-2.246,13.889H527.59
		c-1.493,0-2.912-0.136-4.262-0.381v0.01c0,0-5.307-0.578-8.589-4.848c-0.081-0.1-1.418-1.69-2.077-4.306
		c-0.172-0.684-0.184-0.729-0.322-1.26c0.217,1.732,0.588,4.05,0.754,4.913c0.93,4.844,2.116,8.948,2.221,9.237
		c13.765,48.83,58.605,84.634,111.84,84.634c54.453,0,100.449-37.453,113.062-88h-15.62v-28.392c0-7.66-2.963-12.563-10.521-12.563
		s-10.519,4.903-10.519,12.563v28.392H687.93v-32.272c0-15.422,11.234-22.265,26.146-22.265c14.912,0,26.146,6.843,26.146,22.265
		l-0.006,32.272h15.722v-28.392c0-7.66,2.041-12.563,9.496-12.563c2.35,0,5.21,0.714,6.231,1.227l2.961-13.687
		C772.891,90.822,768.499,89.903,765.128,89.903 M621.855,114.517c0,19.506-11.541,30.946-30.64,30.946
		c-17.669,0-29.618-11.85-29.618-27.779c0-16.648,11.336-27.781,28.291-27.781c7.762,0,13.48,3.064,16.34,6.127V72.337h15.627
		V114.517z M661.275,133.718c4.596,0,8.854-1.327,12.838-3.166l-1.297,12.356c-4.494,1.839-9.907,2.555-15.32,2.555
		c-17.975,0-30.639-10.521-30.639-28.393c0-15.524,11.336-27.167,28.698-27.167c19.61,0,29.414,12.46,29.005,31.661h-40.443
		C645.649,130.348,654.023,133.718,661.275,133.718"/>
	<path clip-path="url(#SVGID_2_)" fill="#ED1C24" d="M800.566,89.903c-17.362,0-28.699,11.643-28.699,27.167
		c0,17.873,12.666,28.394,30.641,28.394c5.412,0,10.825-0.716,15.319-2.555l1.296-12.356c-3.982,1.838-8.241,3.166-12.837,3.166
		c-7.251,0-15.628-3.371-17.159-12.154h40.445C829.979,102.363,820.177,89.903,800.566,89.903 M788.72,111.146
		c1.327-5.821,5.617-10.212,12.357-10.212c6.331,0,10.826,3.779,11.643,10.212H788.72z"/>
	<path clip-path="url(#SVGID_2_)" fill="#ED1C24" d="M875.936,72.337v23.694c-2.859-3.064-8.578-6.128-16.341-6.128
		c-16.953,0-28.29,11.133-28.29,27.78c0,15.932,11.949,27.78,29.618,27.78c19.099,0,30.64-11.44,30.64-30.946v-42.18H875.936
		 M861.637,131.98c-8.477,0-13.99-6.126-13.99-14.297c0-8.272,5.412-14.197,13.99-14.197c8.478,0,14.197,5.72,14.197,14.197
		C875.834,126.159,870.114,131.98,861.637,131.98"/>
</g>
</svg>
