<?xml version="1.0" encoding="utf-8"?>
<!-- Generator: Adobe Illustrator 16.0.3, SVG Export Plug-In . SVG Version: 6.00 Build 0)  -->
<!DOCTYPE svg PUBLIC "-//W3C//DTD SVG 1.1//EN" "http://www.w3.org/Graphics/SVG/1.1/DTD/svg11.dtd">
<svg version="1.1" id="Layer_1" xmlns="http://www.w3.org/2000/svg" xmlns:xlink="http://www.w3.org/1999/xlink" x="0px" y="0px"
	 width="100px" height="100px" viewBox="0 0 100 100" enable-background="new 0 0 100 100" xml:space="preserve">
<g id="Interac_x5F_Process_Color">
</g>
<g id="New_Symbol_3">
</g>
<g>
	<path fill="#01B4A4" d="M100,95c0,2.75-2.25,5-5,5H5c-2.75,0-5-2.25-5-5V5c0-2.75,2.25-5,5-5h90c2.75,0,5,2.25,5,5V95z"/>
</g>
<g>
	<g>
		<g>
			<path fill="#FFFFFF" d="M21.943,70.805h-1.799v-1.631h5.613v1.631h-1.799v6.932h-2.016L21.943,70.805L21.943,70.805z"/>
			<path fill="#FFFFFF" d="M26.828,69.174h3.383c1.715,0,2.303,1.055,2.303,2.23c0,1.246-0.504,1.859-1.439,2.087v0.024
				c1.283,0.18,1.355,0.981,1.379,2.135c0.035,1.689,0.096,1.857,0.385,1.979v0.107h-2.172c-0.156-0.287-0.215-0.769-0.215-1.738
				c0-1.486-0.205-1.799-0.84-1.799h-0.768v3.537h-2.016V69.174z M28.844,72.783h0.623c0.816,0,1.031-0.611,1.031-1.115
				c0-0.646-0.24-1.079-1.043-1.079h-0.611V72.783z"/>
			<path fill="#FFFFFF" d="M35.672,69.174h2.518l2.135,8.563h-2.086l-0.313-1.631h-2.051l-0.301,1.631h-2.086L35.672,69.174z
				 M36.895,70.732h-0.023l-0.709,3.813h1.465L36.895,70.732z"/>
			<path fill="#FFFFFF" d="M40.389,69.174h2.158l1.02,6.62h0.025l1.031-6.62h2.158l-1.943,8.563h-2.566L40.389,69.174z"/>
			<path fill="#FFFFFF" d="M47.805,69.174h4.953v1.631h-2.939v1.715h2.76v1.631h-2.76v1.955h3.07v1.631h-5.083V69.174z"/>
			<path fill="#FFFFFF" d="M54.176,69.174h2.016v6.932h2.914v1.631h-4.93V69.174z"/>
			<path fill="#FFFFFF" d="M60.104,69.174h4.953v1.631h-2.938v1.715h2.758v1.631h-2.758v1.955h3.07v1.631h-5.086V69.174
				L60.104,69.174z"/>
			<path fill="#FFFFFF" d="M66.477,69.174h3.381c1.716,0,2.304,1.055,2.304,2.23c0,1.246-0.504,1.859-1.438,2.087v0.024
				c1.282,0.18,1.354,0.981,1.381,2.135c0.035,1.689,0.096,1.857,0.383,1.979v0.107h-2.17c-0.156-0.287-0.217-0.769-0.217-1.738
				c0-1.486-0.203-1.799-0.841-1.799H68.49v3.537h-2.014V69.174L66.477,69.174z M68.49,72.783h0.623
				c0.816,0,1.033-0.611,1.033-1.115c0-0.646-0.24-1.079-1.045-1.079H68.49V72.783z"/>
			<path fill="#FFFFFF" d="M75.402,75.122v0.3c0,0.648,0.18,1.141,0.875,1.141c0.709,0,0.912-0.528,0.912-1.021
				c0-1.847-3.683-0.815-3.683-4.019c0-1.366,0.729-2.519,2.808-2.519c2.014,0,2.733,1.021,2.733,2.338v0.205h-1.942
				c0-0.407-0.047-0.708-0.168-0.899c-0.119-0.203-0.313-0.301-0.611-0.301c-0.504,0-0.803,0.301-0.803,0.924
				c0,1.787,3.682,0.889,3.682,3.91c0,1.942-1.08,2.723-2.928,2.723c-1.463,0-2.818-0.443-2.818-2.23v-0.552H75.402z"/>
			<path fill="#FFFFFF" d="M33.648,84.548c0-1.247-0.145-1.799-0.816-1.799c-0.803,0-0.875,0.769-0.875,3.011
				c0,2.542,0.084,3.201,0.924,3.201c0.742,0,0.826-0.852,0.838-2.184h1.943v0.301c0,1.848-0.516,3.227-3.01,3.227
				c-2.578,0-2.783-1.932-2.783-4.51c0-2.195,0.121-4.391,2.975-4.391c1.775,0,2.746,0.769,2.746,2.783v0.359L33.648,84.548
				L33.648,84.548z"/>
			<path fill="#FFFFFF" d="M36.877,81.573h2.016v3.202H40.5v-3.202h2.014v8.563H40.5v-3.657h-1.607v3.657h-2.016V81.573z"/>
			<path fill="#FFFFFF" d="M44.139,81.573h4.953v1.632h-2.939v1.715h2.76v1.631h-2.76v1.955h3.07v1.631h-5.084V81.573z"/>
			<path fill="#FFFFFF" d="M54.359,90.186c-0.121,0.035-0.277,0.06-0.457,0.084c-0.18,0.023-0.371,0.035-0.574,0.035
				c-2.65,0-3.012-1.727-3.012-4.449c0-2.722,0.361-4.449,3.012-4.449c2.854,0,3.01,2.074,3.01,4.449
				c0,1.355-0.049,2.615-0.637,3.453l0.973,0.996l-1.176,1.079L54.359,90.186z M53.314,88.961c0.815,0,0.936-0.756,0.936-3.105
				c0-2.352-0.119-3.105-0.936-3.105c-0.791,0-0.91,0.755-0.91,3.105C52.404,88.205,52.523,88.961,53.314,88.961z"/>
			<path fill="#FFFFFF" d="M63.299,87.307c0,1.68-0.48,2.998-2.818,2.998c-2.34,0-2.817-1.318-2.817-2.998v-5.732h2.014v6.32
				c0,0.672,0.267,1.066,0.806,1.066s0.803-0.396,0.803-1.066v-6.32h2.016v5.732H63.299z"/>
			<path fill="#FFFFFF" d="M64.814,81.573h4.953v1.632h-2.939v1.715h2.76v1.631h-2.76v1.955h3.07v1.631h-5.084V81.573z"/>
		</g>
	</g>
</g>
<path fill="#FFFFFF" d="M53.58,30.755l-7.795-3.399c0,0,2.023-1.838,3.741-1.912c2.832-0.122,9.906,1.324,9.906,1.324L53.58,30.755z
	 M61.175,37.271l-0.584,12.128c0,0,2.336-0.802,3.158-2.635c1.678-3.741,4.341-14.088,4.341-14.088L61.175,37.271z M80.369,22.176
	c-4.201-5.339-11.432,0.447-11.432,0.447L47.316,35.772l-5.155-2.866l-3.172,2.046l6.006,6.705
	C54.261,41.697,79.78,24.228,80.369,22.176L80.369,22.176z M27.621,34.655h8.785l-0.054-0.059l0.608-0.392v-2.039h-9.34
	L27.621,34.655L27.621,34.655z M40.764,39.521H27.621v2.49h15.373L40.764,39.521z M51.229,46.303H40.98v2.491h10.249V46.303
	L51.229,46.303z M27.621,48.794h10.248v-2.491H27.621V48.794z M71.719,31.174v1.074v3.887v12.452v3.735H23.367V29.908H47.32
	l-4.672-2.037l1.869-1.696c-11.015,0-21.15,0-21.15,0s-3.736,0-3.736,3.733c0,3.659,0,22.412,0,22.412s0,3.734,3.736,3.734
	c3.734,0,48.352,0,48.352,0s3.735,0,3.735-3.734c0-1.313,0-2.603,0-3.733c0-2.159,0-3.735,0-3.735v-12.45v-0.153v-2.34
	c0,0,0-0.519-0.194-1.17C74.166,29.522,72.977,30.342,71.719,31.174z M59.012,46.303h-4.457v2.491h4.338L59.012,46.303z"/>
</svg>
