<?xml version="1.0" encoding="utf-8"?>
<!-- Generator: Adobe Illustrator 16.0.3, SVG Export Plug-In . SVG Version: 6.00 Build 0)  -->
<!DOCTYPE svg PUBLIC "-//W3C//DTD SVG 1.1//EN" "http://www.w3.org/Graphics/SVG/1.1/DTD/svg11.dtd">
<svg version="1.1" id="Layer_1" xmlns="http://www.w3.org/2000/svg" xmlns:xlink="http://www.w3.org/1999/xlink" x="0px" y="0px"
	 width="100px" height="100px" viewBox="0 0 100 100" enable-background="new 0 0 100 100" xml:space="preserve">
<g id="Interac_x5F_Process_Color">
</g>
<g id="New_Symbol_3">
</g>
<g>
	<g>
		<path fill="#0057A0" d="M100,95c0,2.75-2.25,5-5,5H5c-2.75,0-5-2.25-5-5V5c0-2.75,2.25-5,5-5h90c2.75,0,5,2.25,5,5V95z"/>
	</g>
	<g>
		<g>
			<polygon fill="#FFFFFF" points="45.006,61.775 38.879,61.775 42.709,38.241 48.836,38.241 			"/>
			<path fill="#FFFFFF" d="M33.725,38.241l-5.842,16.187l-0.691-3.484l0,0L25.131,40.36c0,0-0.25-2.119-2.906-2.119h-9.658
				l-0.111,0.398c0,0,2.953,0.613,6.408,2.69l5.322,20.444h6.385l9.75-23.533L33.725,38.241L33.725,38.241z"/>
			<path fill="#FFFFFF" d="M81.92,61.775h5.625l-4.904-23.534h-4.926c-2.275,0-2.83,1.753-2.83,1.753l-9.137,21.781h6.387
				l1.275-3.496h7.791L81.92,61.775z M75.178,53.451l3.219-8.809l1.813,8.809H75.178z"/>
			<path fill="#FFFFFF" d="M66.227,43.9l0.873-5.055c0,0-2.697-1.025-5.51-1.025c-3.041,0-10.262,1.329-10.262,7.791
				c0,6.081,8.477,6.157,8.477,9.349s-7.604,2.622-10.111,0.608l-0.912,5.281c0,0,2.735,1.33,6.916,1.33
				c4.182,0,10.489-2.164,10.489-8.057c0-6.118-8.551-6.689-8.551-9.35C57.637,42.113,63.605,42.455,66.227,43.9z"/>
		</g>
		<path fill="#F9A533" d="M27.191,50.943l-2.06-10.583c0,0-0.25-2.119-2.906-2.119h-9.658l-0.111,0.398c0,0,4.641,0.962,9.092,4.565
			C25.803,46.65,27.191,50.943,27.191,50.943z"/>
	</g>
</g>
</svg>
