<?xml version="1.0" encoding="utf-8"?>
<!-- Generator: Adobe Illustrator 23.0.6, SVG Export Plug-In . SVG Version: 6.00 Build 0)  -->
<svg version="1.1" id="Layer_1" xmlns="http://www.w3.org/2000/svg" xmlns:xlink="http://www.w3.org/1999/xlink" x="0px" y="0px"
	 viewBox="0 0 100 100" style="enable-background:new 0 0 100 100;" xml:space="preserve">
<style type="text/css">
	.st0{fill:#1C3378;}
	.st1{fill:#FFFFFF;}
</style>
<g id="Interac_x5F_Process_Color">
</g>
<g id="New_Symbol_3">
</g>
<g>
	<path id="path8681" class="st0" d="M96.2,0H3.8v100h92.3V0z"/>
	<path id="path8683" class="st1" d="M93.8,64.9H6.2V2.3h87.7V64.9z"/>
	<path id="path8685" class="st0" d="M72.2,13.7L55,54.7H43.7L35.3,22c-0.5-2-1-2.8-2.5-3.6c-2.6-1.4-6.8-2.7-10.5-3.5l0.2-1.2h18.1
		c2.3,0,4.4,1.5,4.9,4.2L50,41.6L61,13.7H72.2"/>
	<path id="path8687" class="st1" d="M30.6,81c0.4,0.1,1,0.1,1.6,0.1c2.5,0,4-1.3,4-3.5c0-2.1-1.4-3.3-3.7-3.3
		c-0.9,0-1.6,0.1-1.9,0.2V81z M27.3,72.1c1.2-0.2,2.9-0.4,5.1-0.4c2.4,0,4.2,0.5,5.4,1.6c1.1,0.9,1.8,2.4,1.8,4.2
		c0,1.8-0.5,3.3-1.6,4.3c-1.3,1.4-3.4,2-5.8,2c-0.6,0-1.2,0-1.6-0.1v7.2h-3.3L27.3,72.1z"/>
	<path id="path8689" class="st1" d="M52.2,82.9l-1.4-4.7c-0.4-1.2-0.7-2.5-0.9-3.6h-0.1c-0.3,1.1-0.5,2.4-0.9,3.6l-1.4,4.7H52.2z
		 M46.9,85.5l-1.6,5.4h-3.4l5.9-19.1H52L58,90.9h-3.6l-1.7-5.4H46.9z"/>
	<path id="path8691" class="st1" d="M65,90.9v-8l-5.8-11.1H63l2.2,4.9c0.6,1.4,1.1,2.5,1.6,3.8h0c0.5-1.2,1-2.4,1.6-3.8l2.2-4.9h3.8
		l-6.1,11v8H65z"/>
</g>
</svg>
