<svg xmlns="http://www.w3.org/2000/svg" xml:space="preserve" style="fill-rule:evenodd;clip-rule:evenodd;stroke-linejoin:round;stroke-miterlimit:2" viewBox="0 0 2561 1601">
  <path d="M334.62 1038.59h2560.09v1789.42H334.62z" style="fill:#fff" transform="matrix(1 0 0 .89464 -334.62 -929.163)"/>
  <path d="M781.99 1007.44c-3.86-11.256-3.86-22.516 0-33.775l80.101-11.596c2.573-24.478 3.86-62.166 3.86-113.064V279.793l-78.171-9.666c-2.573-9.651-2.573-21.553 0-35.708 9.651.644 24.77.966 45.359.966 41.176 0 94.416-1.77 159.719-5.308 65.302-3.539 102.782-5.308 112.432-5.308 126.1 0 221.64 34.099 286.63 102.297 64.98 68.199 97.47 159.881 97.47 275.046 0 117.096-30.56 214.246-91.68 291.452-61.12 77.206-146.69 115.806-256.71 115.806-36.68 0-85.25-.48-145.729-1.44-60.478-.97-103.906-1.45-130.285-1.45-37.316 0-64.981.32-82.996.96Zm322.33-44.391c181.44 0 272.16-118.382 272.16-355.146 0-102.298-23.65-183.042-70.94-242.234-47.29-59.191-115.32-90.716-204.11-94.577-7.72-.643-19.62-.965-35.71-.965-34.1 0-64.98 2.574-92.646 7.721-2.573 24.448-3.86 63.373-3.86 116.774v565.532c7.721 0 26.218.483 55.496 1.448 29.27.965 55.81 1.447 79.61 1.447ZM1804.97 326.101v630.193l114.84 14.476c2.57 10.294 2.57 23.162 0 38.6-40.53-1.93-95.54-2.89-165.03-2.89-57.26 0-112.91.64-166.95 1.93-3.86-12.226-3.86-24.772 0-37.64l114.84-10.616c2.57-35.386 3.86-76.24 3.86-122.564V307.765l-127.39 22.197c-2.57-12.225-2.57-27.666 0-46.324l221-65.625c5.79 6.434 9.01 12.868 9.65 19.302-3.21 16.728-4.82 46.323-4.82 88.786Z" style="fill:#232020;fill-rule:nonzero;stroke:#232020;stroke-width:92.42px" transform="matrix(.69708 0 0 1 -422.945 169.162)"/>
  <path d="M2183.28 332.857h-69.49l-.97 176.608c30.89-2.573 52.44-3.86 64.67-3.86 93.93 0 162.93 22.679 207 68.038 44.08 45.358 66.11 106.64 66.11 183.846 0 81.709-21.23 146.691-63.69 194.945-42.47 48.256-104.88 72.376-187.23 72.376-60.48 0-110.34-12.38-149.58-37.151-39.25-24.77-58.87-60.961-58.87-108.571 13.51-14.798 46.64-21.553 99.4-20.266 9.65 50.183 23.8 83.639 42.46 100.367 18.66 16.728 44.72 25.092 78.17 25.092 90.72 0 136.08-72.702 136.08-218.106 0-139.614-67.88-209.421-203.63-209.421-27.02 0-57.26 2.895-90.72 8.685V237.315h370.59c0 31.525.64 67.876 1.93 109.053-30.24-5.791-65.3-9.972-105.19-12.546l-137.04-.965Z" style="fill:#232020;fill-rule:nonzero;stroke:#232020;stroke-width:92.42px" transform="matrix(.69708 0 0 1 -401.945 169.162)"/>
  <path d="M763.653 237.315h666.867l.96 223.897c-14.15 2.573-26.05 2.573-35.7 0l-45.36-175.644h-200.74v676.516l97.47 9.651c2.58 9.932 2.58 22.157 0 36.675-40.53-1.93-89.42-2.9-146.69-2.9-44.39 0-93.61.65-147.652 1.93-3.861-11.88-3.861-23.782 0-35.705l89.752-11.581c2.57-24.448 3.86-62.086 3.86-112.913V285.568H843.754l-45.358 175.644c-9.651 2.573-21.553 2.573-35.708 0l.965-223.897Z" style="fill:#232020;fill-rule:nonzero;stroke:#232020;stroke-width:91.3px" transform="matrix(.39418 0 0 .5749 1079.255 256.706)"/>
  <path d="m1436.31 963.065 80.1 7.705c2.57 11.259 2.9 23.483.97 36.67-96.51-1.93-162.46-2.89-197.84-2.89-54.05 0-95.55 1.28-124.5 3.86-3.86-11.201-4.18-23.104-.96-35.71l98.43-13.466c-10.93-23.734-32.81-58.366-65.62-103.896l-128.36-184.706-220.033 291.483 78.171 9.62c2.574 9.932 2.574 22.157 0 36.675-40.533-1.93-77.206-2.9-110.018-2.9-20.589 0-57.905.65-111.949 1.93-3.86-11.88-3.86-23.782 0-35.705l70.451-11.551c33.455-32.078 59.512-60.628 78.17-85.65l185.298-248.295-238.377-346.461-78.17-9.651c-2.574-9.651-2.574-21.553 0-35.708 35.386 2.574 87.178 3.861 155.376 3.861 63.052 0 115.171-.965 156.341-2.895 3.86 11.58 3.86 23.161 0 34.742l-95.541 18.337c11.581 21.231 24.127 40.854 37.641 58.869l129.32 186.259 190.12-253.814-78.18-9.651c-2.57-9.651-2.57-21.553 0-35.708 35.39 2.574 72.39 3.861 110.99 3.861 32.81 0 70.13-.965 111.95-2.895 3.86 11.58 3.86 23.161 0 34.742l-60.8 11.581c-32.17 22.518-61.45 51.149-87.82 85.892l-157.31 207.49 272.15 387.975ZM1895.68 394.456v567.643l78.18 9.636c2.57 9.932 2.57 22.157 0 36.675-40.54-1.93-84.61-2.9-132.22-2.9-34.74 0-79.14.65-133.18 1.93-3.86-11.88-3.86-23.782 0-35.705l80.1-11.566c2.57-24.418 3.86-62.006 3.86-112.762V279.763l-78.17-9.636c-2.57-9.651-2.57-21.553 0-35.708 35.39 2.574 79.46 3.861 132.22 3.861 46.96 0 91.36-.965 133.17-2.895 3.87 11.58 3.87 23.161 0 34.742l-80.1 11.566c-2.57 24.418-3.86 62.006-3.86 112.763Z" style="fill:#232020;fill-rule:nonzero;stroke:#232020;stroke-width:116.35px" transform="matrix(.35122 0 0 .41931 1712.105 409.286)"/>
  <path d="M867.881 876.751c0 33.606 6.112 57.356 18.337 71.249 12.224 13.893 31.525 20.84 57.904 20.84 19.302 0 40.694-5.977 64.178-17.929 23.48-11.953 45.2-29.239 65.14-51.858V747.838c-66.27 3.881-117.094 15.675-152.48 35.384-35.386 19.708-53.079 50.885-53.079 93.529Zm205.559-162.69v-49.219c0-54.687-6.27-94.416-18.82-119.187-12.54-24.77-33.29-37.155-62.244-37.155-29.596 0-53.401 9.49-71.416 28.47-18.014 18.98-30.239 51.31-36.672 96.99-20.589 4.503-35.708 6.755-45.359 6.755-25.092 0-39.89-9.007-44.393-27.022 0-43.75 18.98-78.492 56.939-104.228 37.96-25.735 85.248-38.603 141.866-38.603 62.409 0 106.639 12.707 132.699 38.121 26.06 25.413 39.08 70.933 39.08 136.558v272.15c0 16.085.97 29.917 2.9 41.498l76.24 9.651c2.57 9.651 2.57 21.875 0 36.67-45.68 1.93-94.26 6.44-145.73 13.51-5.14-5.14-8.36-11.58-9.65-19.298l-4.82-66.59c-53.4 61.121-112.916 91.678-178.541 91.678-40.533 0-72.219-11.58-95.06-34.738-22.84-23.162-34.26-54.366-34.26-93.613 0-59.191 26.862-103.906 80.584-134.145 53.722-30.239 125.942-46.323 216.657-48.253Z" style="fill:#232020;fill-rule:nonzero;stroke:#232020;stroke-width:80.83px" transform="matrix(.51718 0 0 .5939 1270.955 231.901)"/>
  <path d="M2671.78 1609.23c0-4.65-1.9-9.11-5.28-12.4-3.37-3.29-7.95-5.14-12.73-5.14H1908.1c-7.52 0-13.61 5.93-13.61 13.26v72.73h777.29v-68.45Z" style="fill:#ffdd2d;stroke:#ffdd2d;stroke-width:1.01px;stroke-linecap:round;stroke-miterlimit:1.5" transform="matrix(.97447 0 0 1 -180.617 -1216.845)"/>
  <path d="M894.903 938.154c37.316 25.604 89.752 38.406 157.307 38.406 45.68 0 79.94-13.151 102.78-39.454 22.84-26.304 34.26-57.736 34.26-94.299 0-19.241-1.61-35.438-4.83-48.592-3.21-13.155-10.13-28.071-20.74-44.748-10.62-16.678-27.51-33.356-50.67-50.033-23.16-16.678-53.4-34.321-90.72-52.928-43.747-21.875-79.133-42.464-106.155-61.765-27.022-19.302-47.289-39.246-60.8-59.835-13.511-20.588-22.518-40.211-27.022-58.869-4.503-18.658-6.755-41.82-6.755-69.485 0-56.618 22.679-100.529 68.037-131.733 45.359-31.204 98.92-46.806 160.685-46.806 76.56 0 150.55 19.302 221.97 57.905v185.294c-21.88 3.86-40.21 3.86-55.01 0l-30.88-166.958c-41.18-22.518-87.18-33.778-138.01-33.778-34.1 0-62.891 10.134-86.374 30.4-23.484 20.267-35.225 48.736-35.225 85.409 0 20.588 1.287 36.673 3.86 48.254 2.574 11.581 9.007 25.253 19.301 41.015 10.295 15.763 27.344 31.526 51.148 47.289 23.81 15.763 55.65 33.295 95.54 52.596 137.69 66.912 206.53 146.692 206.53 239.339 0 65.624-25.09 118.703-75.28 159.237-50.18 40.535-115.8 60.795-196.87 60.795-80.424 0-154.413-18.98-221.968-56.935V782.581c21.875-3.86 40.211-3.86 55.009 0l30.882 155.573Z" style="fill:#232020;fill-rule:nonzero;stroke:#232020;stroke-width:141.73px" transform="matrix(.31586 0 0 .31914 1167.435 869.386)"/>
  <path d="M1812.69 733.362h-303.04c-5.79 164.063 43.43 246.094 147.66 246.094 44.39 0 89.75-19.623 136.08-58.87 9.65 5.791 17.05 15.763 22.19 29.918-44.39 49.536-100.69 74.306-168.89 74.306-156.98 0-235.47-92.321-235.47-276.972 0-87.5 23.16-155.537 69.48-204.113 46.33-48.575 100.37-72.863 162.14-72.863 67.55 0 116.13 23.484 145.72 70.451 29.6 46.967 44.39 108.088 44.39 183.363-6.43 5.148-13.18 8.043-20.26 8.686ZM1640.9 509.465c-33.45 0-61.92 17.372-85.4 52.114-23.49 34.743-37.8 79.136-42.95 133.18h119.67c47.61 0 81.71-2.895 102.3-8.685 0-52.758-8.05-95.382-24.13-127.873-16.08-32.49-39.25-48.736-69.49-48.736ZM2080.01 490.164l-1.93 99.402c16.09-29.595 38.45-56.778 67.08-81.548 28.63-24.771 55.81-37.156 81.54-37.156 19.95 0 37.64 2.252 53.08 6.756 5.15 8.364 7.72 19.301 7.72 32.812 0 21.232-4.5 42.464-13.51 63.695-23.16-6.434-45.36-9.651-66.59-9.651-52.76 0-96.18 25.736-130.28 77.206l-1.93 168.888v145.726l107.12 14.476c2.57 10.294 2.57 23.162 0 38.6-40.53-1.93-86.86-2.89-138.97-2.89-39.25 0-85.89.64-139.94 1.93-3.86-12.226-3.86-24.772 0-37.64l76.24-10.616c2.58-35.386 3.87-76.24 3.87-122.564V573.16c0-12.868-.97-24.77-2.9-35.708l-76.24-9.65c-2.57-9.651-2.57-21.875 0-36.673 44.39-3.217 99.72-9.973 165.99-20.267 5.79 6.434 9.01 12.868 9.65 19.302ZM2571.24 1047.98h-20.27L2351.2 536.502l-60.8-11.596c-2.57-10.012-2.57-22.558 0-37.637 35.38 2.573 73.67 3.86 114.84 3.86 36.67 0 75.6-.965 116.78-2.895 3.86 12.566 3.86 24.79 0 36.672l-60.8 11.611 78.17 222.54c22.52 64.509 37.31 111.275 44.39 140.298h1.93c15.44-55.472 30.56-100.624 45.36-135.457l83-231.256-75.28-7.736c-2.57-10.012-2.57-22.558 0-37.637 35.39 2.573 69.16 3.86 101.33 3.86 27.02 0 61.45-.965 103.27-2.895 3.86 12.566 3.86 24.79 0 36.672l-72.38 10.631-199.77 512.443ZM3041.22 646.506v309.788l78.18 14.476c.64 3.217 1.12 6.112 1.44 8.686.33 2.573.49 5.468.49 8.685 0 3.217-.16 6.595-.49 10.134-.32 3.535-.8 7.235-1.44 11.095-40.54-1.93-82.03-2.89-124.5-2.89-14.8 0-32.65.16-53.56.48-20.91.32-44.88.8-71.9 1.45-1.93-5.79-2.89-11.905-2.89-18.338 0-5.791.96-12.225 2.89-19.302l76.24-10.616c1.29-18.014 2.25-37.155 2.9-57.422.64-20.266.96-41.98.96-65.142V632.029c0-42.463-.96-73.988-2.89-94.577l-76.24-9.65c-1.29-3.217-1.93-8.686-1.93-16.407v-9.65c0-3.217.64-6.756 1.93-10.616 43.75-2.574 99.08-9.329 165.99-20.267 5.79 6.434 9.01 12.868 9.65 19.302-3.22 18.014-4.83 70.128-4.83 156.342Zm-140.89-344.531a26.98 26.98 0 0 1-1.94-10.134v-10.133c0-17.371 7.24-31.365 21.72-41.981 14.48-10.615 32.33-15.923 53.56-15.923 19.95 0 36.19 5.951 48.74 17.854 12.54 11.902 18.81 28.147 18.81 48.736 0 16.728-7.23 30.239-21.71 40.533s-32.97 15.441-55.49 15.441c-15.44 0-29.11-3.86-41.02-11.581-11.9-7.721-19.46-18.658-22.67-32.812ZM3600.97 613.693c-13.51 14.154-45.36 20.91-95.54 20.267-10.3-81.71-39.57-122.565-87.83-122.565-37.96 0-70.13 21.921-96.5 65.761-26.38 43.84-39.57 101.544-39.57 173.11 0 73.496 11.58 130.069 34.74 169.717 23.16 39.649 57.91 59.473 104.23 59.473 48.9 0 96.83-19.945 143.8-59.835 9.65 5.791 17.04 15.763 22.19 29.917-46.96 50.184-105.83 75.272-176.61 75.272-67.55 0-122.88-23.32-165.99-69.964-43.11-46.645-64.66-115.326-64.66-206.043 0-86.856 23.97-154.894 71.9-204.113 47.93-49.218 102.78-73.828 164.54-73.828 48.9 0 92.01 12.225 129.32 36.673 37.32 24.449 55.98 59.835 55.98 106.158ZM4074.82 733.362h-303.04c-5.79 164.063 43.43 246.094 147.66 246.094 44.4 0 89.75-19.623 136.08-58.87 9.65 5.791 17.05 15.763 22.19 29.918-44.39 49.536-100.69 74.306-168.88 74.306-156.99 0-235.48-92.321-235.48-276.972 0-87.5 23.16-155.537 69.48-204.113 46.33-48.575 100.37-72.863 162.14-72.863 67.55 0 116.13 23.484 145.72 70.451 29.6 46.967 44.4 108.088 44.4 183.363-6.44 5.148-13.19 8.043-20.27 8.686Zm-171.79-223.897c-33.45 0-61.92 17.372-85.4 52.114-23.49 34.743-37.8 79.136-42.95 133.18h119.67c47.61 0 81.71-2.895 102.3-8.685 0-52.758-8.04-95.382-24.13-127.873-16.08-32.49-39.25-48.736-69.49-48.736Z" style="fill:#232020;fill-rule:nonzero;stroke:#232020;stroke-width:108.79px" transform="matrix(.30107 0 0 .31914 1196.305 869.386)"/>
</svg>
